600.ufo
<glyph name="quotedbl" format="2">
  <advance width="502"/>
  <unicode hex="0022"/>
  <outline>
    <contour>
      <point x="112" y="700" type="line"/>
      <point x="254" y="700" type="line"/>
      <point x="152" y="386" type="line"/>
      <point x="66" y="386" type="line"/>
    </contour>
    <contour>
      <point x="314" y="700" type="line"/>
      <point x="456" y="700" type="line"/>
      <point x="354" y="386" type="line"/>
      <point x="268" y="386" type="line"/>
    </contour>
  </outline>
</glyph>
<glyph name="numbersign" format="2">
  <advance width="648"/>
  <unicode hex="0023"/>
  <outline>
    <contour>
      <point x="75" y="420" type="line"/>
      <point x="75" y="524" type="line"/>
      <point x="614" y="524" type="line"/>
      <point x="614" y="420" type="line"/>
      <point x="464" y="420" type="line" smooth="yes"/>
      <point x="438" y="424" type="line" smooth="yes"/>
      <point x="238" y="424" type="line" smooth="yes"/>
      <point x="216" y="420" type="line" smooth="yes"/>
    </contour>
    <contour>
      <point x="35" y="180" type="line"/>
      <point x="35" y="284" type="line"/>
      <point x="173" y="284" type="line" smooth="yes"/>
      <point x="200" y="280" type="line" smooth="yes"/>
      <point x="421" y="280" type="line" smooth="yes"/>
      <point x="448" y="284" type="line" smooth="yes"/>
      <point x="574" y="284" type="line"/>
      <point x="574" y="180" type="line"/>
    </contour>
    <contour>
      <point x="468" y="700" type="line"/>
      <point x="582" y="700" type="line"/>
      <point x="412" y="0" type="line"/>
      <point x="298" y="0" type="line"/>
      <point x="352" y="225" type="line" smooth="yes"/>
      <point x="363" y="249" type="line" smooth="yes"/>
      <point x="414" y="458" type="line" smooth="yes"/>
      <point x="416" y="484" type="line" smooth="yes"/>
    </contour>
    <contour>
      <point x="236" y="700" type="line"/>
      <point x="351" y="700" type="line"/>
      <point x="298" y="486" type="line" smooth="yes"/>
      <point x="288" y="459" type="line" smooth="yes"/>
      <point x="236" y="250" type="line" smooth="yes"/>
      <point x="236" y="226" type="line" smooth="yes"/>
      <point x="181" y="0" type="line"/>
      <point x="66" y="0" type="line"/>
    </contour>
  </outline>
</glyph>
<glyph name="percent" format="2">
  <advance width="868"/>
  <unicode hex="0025"/>
  <outline>
    <contour>
      <point x="26" y="539" type="curve" smooth="yes"/>
      <point x="26" y="637"/>
      <point x="102" y="716"/>
      <point x="206" y="716" type="curve" smooth="yes"/>
      <point x="310" y="716"/>
      <point x="386" y="637"/>
      <point x="386" y="539" type="curve" smooth="yes"/>
      <point x="386" y="441"/>
      <point x="310" y="362"/>
      <point x="206" y="362" type="curve" smooth="yes"/>
      <point x="102" y="362"/>
      <point x="26" y="441"/>
    </contour>
    <contour>
      <point x="134" y="539" type="curve" smooth="yes"/>
      <point x="134" y="499"/>
      <point x="163" y="464"/>
      <point x="206" y="464" type="curve" smooth="yes"/>
      <point x="249" y="464"/>
      <point x="277" y="499"/>
      <point x="277" y="539" type="curve" smooth="yes"/>
      <point x="277" y="579"/>
      <point x="249" y="614"/>
      <point x="206" y="614" type="curve" smooth="yes"/>
      <point x="163" y="614"/>
      <point x="134" y="579"/>
    </contour>
    <contour>
      <point x="484" y="161" type="curve" smooth="yes"/>
      <point x="484" y="259"/>
      <point x="559" y="338"/>
      <point x="663" y="338" type="curve" smooth="yes"/>
      <point x="767" y="338"/>
      <point x="842" y="259"/>
      <point x="842" y="161" type="curve" smooth="yes"/>
      <point x="842" y="63"/>
      <point x="767" y="-16"/>
      <point x="663" y="-16" type="curve" smooth="yes"/>
      <point x="559" y="-16"/>
      <point x="484" y="63"/>
    </contour>
    <contour>
      <point x="592" y="161" type="curve" smooth="yes"/>
      <point x="592" y="121"/>
      <point x="620" y="86"/>
      <point x="663" y="86" type="curve" smooth="yes"/>
      <point x="706" y="86"/>
      <point x="734" y="121"/>
      <point x="734" y="161" type="curve" smooth="yes"/>
      <point x="734" y="201"/>
      <point x="706" y="236"/>
      <point x="663" y="236" type="curve" smooth="yes"/>
      <point x="620" y="236"/>
      <point x="592" y="201"/>
    </contour>
    <contour>
      <point x="624" y="700" type="line"/>
      <point x="756" y="700" type="line"/>
      <point x="244" y="0" type="line"/>
      <point x="113" y="0" type="line"/>
    </contour>
  </outline>
</glyph>
<glyph name="ampersand" format="2">
  <advance width="728"/>
  <unicode hex="0026"/>
  <outline>
    <contour>
      <point x="223" y="376" type="line" smooth="yes"/>
      <point x="180" y="423"/>
      <point x="124" y="475"/>
      <point x="124" y="548" type="curve" smooth="yes"/>
      <point x="124" y="638"/>
      <point x="202" y="715"/>
      <point x="326" y="715" type="curve" smooth="yes"/>
      <point x="449" y="715"/>
      <point x="518" y="634"/>
      <point x="518" y="550" type="curve" smooth="yes"/>
      <point x="518" y="466"/>
      <point x="459" y="420"/>
      <point x="353" y="352" type="curve" smooth="yes"/>
      <point x="281" y="307"/>
      <point x="177" y="283"/>
      <point x="177" y="197" type="curve" smooth="yes"/>
      <point x="177" y="141"/>
      <point x="222" y="100"/>
      <point x="294" y="100" type="curve" smooth="yes"/>
      <point x="412" y="100"/>
      <point x="522" y="208"/>
      <point x="606" y="334" type="curve"/>
      <point x="696" y="267" type="line"/>
      <point x="604" y="135"/>
      <point x="470" y="-12"/>
      <point x="278" y="-12" type="curve" smooth="yes"/>
      <point x="150" y="-12"/>
      <point x="40" y="63"/>
      <point x="40" y="186" type="curve" smooth="yes"/>
      <point x="40" y="342"/>
      <point x="210" y="385"/>
      <point x="280" y="419" type="curve" smooth="yes"/>
      <point x="355" y="457"/>
      <point x="396" y="500"/>
      <point x="396" y="540" type="curve" smooth="yes"/>
      <point x="396" y="578"/>
      <point x="369" y="609"/>
      <point x="324" y="609" type="curve" smooth="yes"/>
      <point x="276" y="609"/>
      <point x="252" y="578"/>
      <point x="252" y="540" type="curve" smooth="yes"/>
      <point x="252" y="498"/>
      <point x="292" y="462"/>
      <point x="342" y="408" type="curve" smooth="yes"/>
      <point x="712" y="0" type="line"/>
      <point x="561" y="0" type="line"/>
    </contour>
  </outline>
</glyph>
<glyph name="quotesingle" format="2">
  <advance width="299"/>
  <unicode hex="0027"/>
  <outline>
    <contour>
      <point x="112" y="700" type="line"/>
      <point x="254" y="700" type="line"/>
      <point x="152" y="386" type="line"/>
      <point x="66" y="386" type="line"/>
    </contour>
  </outline>
</glyph>
<glyph name="parenright" format="2">
  <advance width="331"/>
  <unicode hex="0029"/>
  <outline>
    <contour>
      <point x="138" y="-200" type="curve"/>
      <point x="19" y="-200" type="line"/>
      <point x="89" y="-50"/>
      <point x="126" y="120"/>
      <point x="126" y="290" type="curve" smooth="yes"/>
      <point x="126" y="460"/>
      <point x="89" y="630"/>
      <point x="19" y="780" type="curve"/>
      <point x="138" y="780" type="line"/>
      <point x="218" y="630"/>
      <point x="257" y="460"/>
      <point x="257" y="290" type="curve" smooth="yes"/>
      <point x="257" y="120"/>
      <point x="218" y="-50"/>
    </contour>
  </outline>
</glyph>
<glyph name="plus" format="2">
  <advance width="656"/>
  <unicode hex="002B"/>
  <outline>
    <contour>
      <point x="65" y="202" type="line"/>
      <point x="65" y="328" type="line"/>
      <point x="592" y="328" type="line"/>
      <point x="592" y="202" type="line"/>
    </contour>
    <contour>
      <point x="261" y="528" type="line"/>
      <point x="396" y="528" type="line"/>
      <point x="396" y="2" type="line"/>
      <point x="261" y="2" type="line"/>
    </contour>
  </outline>
</glyph>
<glyph name="period" format="2">
  <advance width="315"/>
  <unicode hex="002E"/>
  <outline>
    <contour>
      <point x="76" y="60" type="curve" smooth="yes"/>
      <point x="76" y="104"/>
      <point x="110" y="141"/>
      <point x="158" y="141" type="curve" smooth="yes"/>
      <point x="206" y="141"/>
      <point x="240" y="104"/>
      <point x="240" y="60" type="curve" smooth="yes"/>
      <point x="240" y="16"/>
      <point x="206" y="-22"/>
      <point x="158" y="-22" type="curve" smooth="yes"/>
      <point x="110" y="-22"/>
      <point x="76" y="16"/>
    </contour>
  </outline>
</glyph>
<glyph name="slash" format="2">
  <advance width="580"/>
  <unicode hex="002F"/>
  <outline>
    <contour>
      <point x="440" y="700" type="line"/>
      <point x="566" y="700" type="line"/>
      <point x="146" y="-150" type="line"/>
      <point x="15" y="-150" type="line"/>
    </contour>
  </outline>
</glyph>
<glyph name="zero" format="2">
  <advance width="643"/>
  <unicode hex="0030"/>
  <outline>
    <contour>
      <point x="180" y="350" type="curve" smooth="yes"/>
      <point x="180" y="208"/>
      <point x="236" y="114"/>
      <point x="322" y="114" type="curve" smooth="yes"/>
      <point x="408" y="114"/>
      <point x="464" y="208"/>
      <point x="464" y="350" type="curve" smooth="yes"/>
      <point x="464" y="492"/>
      <point x="408" y="586"/>
      <point x="322" y="586" type="curve" smooth="yes"/>
      <point x="236" y="586"/>
      <point x="180" y="492"/>
    </contour>
    <contour>
      <point x="40" y="350" type="curve" smooth="yes"/>
      <point x="40" y="572"/>
      <point x="154" y="712"/>
      <point x="322" y="712" type="curve" smooth="yes"/>
      <point x="494" y="712"/>
      <point x="604" y="572"/>
      <point x="604" y="350" type="curve" smooth="yes"/>
      <point x="604" y="128"/>
      <point x="494" y="-12"/>
      <point x="322" y="-12" type="curve" smooth="yes"/>
      <point x="154" y="-12"/>
      <point x="40" y="128"/>
    </contour>
  </outline>
</glyph>
<glyph name="two" format="2">
  <advance width="629"/>
  <unicode hex="0032"/>
  <outline>
    <contour>
      <point x="20" y="0" type="line"/>
      <point x="338" y="332" type="line" smooth="yes"/>
      <point x="391" y="388"/>
      <point x="422" y="432"/>
      <point x="422" y="488" type="curve" smooth="yes"/>
      <point x="422" y="538"/>
      <point x="385" y="587"/>
      <point x="315" y="587" type="curve" smooth="yes"/>
      <point x="243" y="587"/>
      <point x="198" y="530"/>
      <point x="198" y="446" type="curve"/>
      <point x="56" y="446" type="line"/>
      <point x="56" y="595"/>
      <point x="148" y="713"/>
      <point x="319" y="713" type="curve" smooth="yes"/>
      <point x="487" y="713"/>
      <point x="571" y="597"/>
      <point x="571" y="497" type="curve" smooth="yes"/>
      <point x="571" y="423"/>
      <point x="531" y="356"/>
      <point x="472" y="303" type="curve" smooth="yes"/>
      <point x="292" y="132" type="line"/>
      <point x="584" y="132" type="line"/>
      <point x="584" y="0" type="line"/>
    </contour>
  </outline>
</glyph>
<glyph name="four" format="2">
  <advance width="663"/>
  <unicode hex="0034"/>
  <outline>
    <contour>
      <point x="16" y="129" type="line"/>
      <point x="416" y="700" type="line"/>
      <point x="515" y="700" type="line"/>
      <point x="515" y="0" type="line"/>
      <point x="366" y="0" type="line"/>
      <point x="366" y="176" type="line"/>
      <point x="380" y="187" type="line"/>
      <point x="380" y="472" type="line"/>
      <point x="214" y="236" type="line"/>
      <point x="465" y="236" type="line"/>
      <point x="482" y="252" type="line"/>
      <point x="625" y="252" type="line"/>
      <point x="625" y="129" type="line"/>
    </contour>
  </outline>
</glyph>
<glyph name="five" format="2">
  <advance width="620"/>
  <unicode hex="0035"/>
  <outline>
    <contour>
      <point x="580" y="226" type="curve" smooth="yes"/>
      <point x="580" y="63"/>
      <point x="445" y="-12"/>
      <point x="310" y="-12" type="curve" smooth="yes"/>
      <point x="181" y="-12"/>
      <point x="98" y="38"/>
      <point x="38" y="96" type="curve"/>
      <point x="106" y="208" type="line"/>
      <point x="154" y="156"/>
      <point x="223" y="120"/>
      <point x="283" y="120" type="curve" smooth="yes"/>
      <point x="372" y="120"/>
      <point x="425" y="162"/>
      <point x="425" y="238" type="curve" smooth="yes"/>
      <point x="425" y="314"/>
      <point x="357" y="355"/>
      <point x="283" y="355" type="curve" smooth="yes"/>
      <point x="225" y="355"/>
      <point x="163" y="346"/>
      <point x="92" y="306" type="curve"/>
      <point x="188" y="700" type="line"/>
      <point x="570" y="700" type="line"/>
      <point x="570" y="574" type="line"/>
      <point x="294" y="574" type="line"/>
      <point x="252" y="432" type="line"/>
      <point x="288" y="450"/>
      <point x="327" y="457"/>
      <point x="369" y="457" type="curve" smooth="yes"/>
      <point x="483" y="457"/>
      <point x="580" y="369"/>
    </contour>
  </outline>
</glyph>
<glyph name="colon" format="2">
  <advance width="315"/>
  <unicode hex="003A"/>
  <outline>
    <contour>
      <point x="76" y="60" type="curve" smooth="yes"/>
      <point x="76" y="104"/>
      <point x="110" y="141"/>
      <point x="158" y="141" type="curve" smooth="yes"/>
      <point x="206" y="141"/>
      <point x="240" y="104"/>
      <point x="240" y="60" type="curve" smooth="yes"/>
      <point x="240" y="16"/>
      <point x="206" y="-22"/>
      <point x="158" y="-22" type="curve" smooth="yes"/>
      <point x="110" y="-22"/>
      <point x="76" y="16"/>
    </contour>
    <contour>
      <point x="76" y="436" type="curve" smooth="yes"/>
      <point x="76" y="480"/>
      <point x="110" y="516"/>
      <point x="158" y="516" type="curve" smooth="yes"/>
      <point x="206" y="516"/>
      <point x="240" y="480"/>
      <point x="240" y="436" type="curve" smooth="yes"/>
      <point x="240" y="392"/>
      <point x="206" y="354"/>
      <point x="158" y="354" type="curve" smooth="yes"/>
      <point x="110" y="354"/>
      <point x="76" y="392"/>
    </contour>
  </outline>
</glyph>
<glyph name="equal" format="2">
  <advance width="622"/>
  <unicode hex="003D"/>
  <outline>
    <contour>
      <point x="58" y="101" type="line"/>
      <point x="58" y="215" type="line"/>
      <point x="564" y="215" type="line"/>
      <point x="564" y="101" type="line"/>
    </contour>
    <contour>
      <point x="58" y="290" type="line"/>
      <point x="58" y="404" type="line"/>
      <point x="564" y="404" type="line"/>
      <point x="564" y="290" type="line"/>
    </contour>
  </outline>
</glyph>
<glyph name="greater" format="2">
  <advance width="640"/>
  <unicode hex="003E"/>
  <outline>
    <contour>
      <point x="384" y="258" type="line"/>
      <point x="65" y="392" type="line"/>
      <point x="65" y="520" type="line"/>
      <point x="575" y="304" type="line"/>
      <point x="575" y="220" type="line"/>
      <point x="65" y="4" type="line"/>
      <point x="65" y="132" type="line"/>
    </contour>
  </outline>
</glyph>
<glyph name="question" format="2">
  <advance width="606"/>
  <unicode hex="003F"/>
  <outline>
    <contour>
      <point x="419" y="500" type="curve" smooth="yes"/>
      <point x="419" y="566"/>
      <point x="372" y="604"/>
      <point x="296" y="604" type="curve" smooth="yes"/>
      <point x="233" y="604"/>
      <point x="177" y="572"/>
      <point x="142" y="518" type="curve"/>
      <point x="52" y="590" type="line"/>
      <point x="116" y="668"/>
      <point x="187" y="716"/>
      <point x="306" y="716" type="curve" smooth="yes"/>
      <point x="435" y="716"/>
      <point x="550" y="632"/>
      <point x="550" y="500" type="curve" smooth="yes"/>
      <point x="550" y="380"/>
      <point x="445" y="300"/>
      <point x="337" y="286" type="curve"/>
      <point x="331" y="192" type="line"/>
      <point x="228" y="192" type="line"/>
      <point x="208" y="369" type="line"/>
      <point x="238" y="369" type="line" smooth="yes"/>
      <point x="358" y="369"/>
      <point x="419" y="442"/>
    </contour>
    <contour>
      <point x="198" y="54" type="curve" smooth="yes"/>
      <point x="198" y="94"/>
      <point x="233" y="128"/>
      <point x="281" y="128" type="curve" smooth="yes"/>
      <point x="329" y="128"/>
      <point x="363" y="94"/>
      <point x="363" y="54" type="curve" smooth="yes"/>
      <point x="363" y="14"/>
      <point x="329" y="-22"/>
      <point x="281" y="-22" type="curve" smooth="yes"/>
      <point x="233" y="-22"/>
      <point x="198" y="14"/>
    </contour>
  </outline>
</glyph>
<glyph name="at" format="2">
  <advance width="770"/>
  <unicode hex="0040"/>
  <outline>
    <contour>
      <point x="301" y="320" type="curve" smooth="yes"/>
      <point x="301" y="272"/>
      <point x="320" y="246"/>
      <point x="357" y="246" type="curve" smooth="yes"/>
      <point x="396" y="246"/>
      <point x="444" y="286"/>
      <point x="444" y="366" type="curve" smooth="yes"/>
      <point x="444" y="416"/>
      <point x="419" y="440"/>
      <point x="385" y="440" type="curve" smooth="yes"/>
      <point x="341" y="440"/>
      <point x="301" y="388"/>
    </contour>
    <contour>
      <point x="194" y="314" type="curve" smooth="yes"/>
      <point x="194" y="453"/>
      <point x="283" y="530"/>
      <point x="364" y="530" type="curve" smooth="yes"/>
      <point x="440" y="530"/>
      <point x="488" y="453"/>
      <point x="488" y="370" type="curve" smooth="yes"/>
      <point x="488" y="231"/>
      <point x="414" y="156"/>
      <point x="328" y="156" type="curve" smooth="yes"/>
      <point x="250" y="156"/>
      <point x="194" y="215"/>
    </contour>
    <contour>
      <point x="24" y="320" type="curve" smooth="yes"/>
      <point x="24" y="543"/>
      <point x="187" y="718"/>
      <point x="415" y="718" type="curve" smooth="yes"/>
      <point x="629" y="718"/>
      <point x="746" y="553"/>
      <point x="746" y="390" type="curve" smooth="yes"/>
      <point x="746" y="212"/>
      <point x="646" y="146"/>
      <point x="558" y="146" type="curve" smooth="yes"/>
      <point x="493" y="146"/>
      <point x="442" y="200"/>
      <point x="452" y="266" type="curve"/>
      <point x="442" y="288" type="line"/>
      <point x="469" y="520" type="line"/>
      <point x="573" y="520" type="line"/>
      <point x="542" y="302" type="line" smooth="yes"/>
      <point x="541" y="295"/>
      <point x="540" y="284"/>
      <point x="540" y="276" type="curve" smooth="yes"/>
      <point x="540" y="252"/>
      <point x="546" y="234"/>
      <point x="570" y="234" type="curve" smooth="yes"/>
      <point x="596" y="234"/>
      <point x="648" y="268"/>
      <point x="648" y="390" type="curve" smooth="yes"/>
      <point x="648" y="519"/>
      <point x="569" y="630"/>
      <point x="415" y="630" type="curve" smooth="yes"/>
      <point x="235" y="630"/>
      <point x="122" y="499"/>
      <point x="122" y="320" type="curve" smooth="yes"/>
      <point x="122" y="166"/>
      <point x="212" y="68"/>
      <point x="374" y="68" type="curve" smooth="yes"/>
      <point x="444" y="68"/>
      <point x="503" y="80"/>
      <point x="563" y="114" type="curve"/>
      <point x="600" y="34" type="line"/>
      <point x="540" y="0"/>
      <point x="471" y="-21"/>
      <point x="365" y="-21" type="curve" smooth="yes"/>
      <point x="143" y="-21"/>
      <point x="24" y="121"/>
    </contour>
  </outline>
</glyph>
<glyph name="C" format="2">
  <advance width="695"/>
  <unicode hex="0043"/>
  <outline>
    <contour>
      <point x="192" y="350" type="curve" smooth="yes"/>
      <point x="192" y="211"/>
      <point x="296" y="124"/>
      <point x="416" y="124" type="curve" smooth="yes"/>
      <point x="515" y="124"/>
      <point x="583" y="166"/>
      <point x="630" y="220" type="curve"/>
      <point x="630" y="58" type="line"/>
      <point x="573" y="12"/>
      <point x="512" y="-14"/>
      <point x="410" y="-14" type="curve" smooth="yes"/>
      <point x="194" y="-14"/>
      <point x="36" y="134"/>
      <point x="36" y="350" type="curve" smooth="yes"/>
      <point x="36" y="566"/>
      <point x="194" y="714"/>
      <point x="410" y="714" type="curve" smooth="yes"/>
      <point x="512" y="714"/>
      <point x="573" y="688"/>
      <point x="630" y="642" type="curve"/>
      <point x="630" y="480" type="line"/>
      <point x="583" y="534"/>
      <point x="515" y="576"/>
      <point x="416" y="576" type="curve" smooth="yes"/>
      <point x="296" y="576"/>
      <point x="192" y="489"/>
    </contour>
  </outline>
</glyph>
<glyph name="F" format="2">
  <advance width="537"/>
  <unicode hex="0046"/>
  <outline>
    <contour>
      <point x="168" y="574" type="line"/>
      <point x="168" y="700" type="line"/>
      <point x="482" y="700" type="line"/>
      <point x="482" y="574" type="line"/>
    </contour>
    <contour>
      <point x="168" y="298" type="line"/>
      <point x="168" y="418" type="line"/>
      <point x="472" y="418" type="line"/>
      <point x="472" y="298" type="line"/>
    </contour>
    <contour>
      <point x="76" y="700" type="line"/>
      <point x="216" y="700" type="line"/>
      <point x="216" y="0" type="line"/>
      <point x="76" y="0" type="line"/>
    </contour>
  </outline>
</glyph>
<glyph name="H" format="2">
  <advance width="764"/>
  <unicode hex="0048"/>
  <outline>
    <contour>
      <point x="123" y="307" type="line"/>
      <point x="123" y="438" type="line"/>
      <point x="638" y="438" type="line"/>
      <point x="638" y="307" type="line"/>
    </contour>
    <contour>
      <point x="546" y="700" type="line"/>
      <point x="690" y="700" type="line"/>
      <point x="690" y="0" type="line"/>
      <point x="546" y="0" type="line"/>
    </contour>
    <contour>
      <point x="76" y="700" type="line"/>
      <point x="220" y="700" type="line"/>
      <point x="220" y="0" type="line"/>
      <point x="76" y="0" type="line"/>
    </contour>
  </outline>
</glyph>
<glyph name="L" format="2">
  <advance width="504"/>
  <unicode hex="004C"/>
  <outline>
    <contour>
      <point x="76" y="700" type="line"/>
      <point x="220" y="700" type="line"/>
      <point x="220" y="126" type="line"/>
      <point x="499" y="126" type="line"/>
      <point x="499" y="0" type="line"/>
      <point x="76" y="0" type="line"/>
    </contour>
  </outline>
</glyph>
<glyph name="M" format="2">
  <advance width="866"/>
  <unicode hex="004D"/>
  <outline>
    <contour>
      <point x="232" y="391" type="line"/>
      <point x="186" y="0" type="line"/>
      <point x="36" y="0" type="line"/>
      <point x="140" y="735" type="line"/>
      <point x="434" y="284" type="line"/>
      <point x="726" y="735" type="line"/>
      <point x="832" y="0" type="line"/>
      <point x="681" y="0" type="line"/>
      <point x="636" y="391" type="line"/>
      <point x="434" y="65" type="line"/>
    </contour>
  </outline>
</glyph>
<glyph name="Q" format="2">
  <advance width="841"/>
  <unicode hex="0051"/>
  <outline>
    <contour>
      <point x="188" y="350" type="curve" smooth="yes"/>
      <point x="188" y="208"/>
      <point x="287" y="112"/>
      <point x="416" y="112" type="curve" smooth="yes"/>
      <point x="545" y="112"/>
      <point x="637" y="202"/>
      <point x="637" y="336" type="curve" smooth="yes"/>
      <point x="637" y="470"/>
      <point x="548" y="580"/>
      <point x="408" y="580" type="curve" smooth="yes"/>
      <point x="279" y="580"/>
      <point x="188" y="484"/>
    </contour>
    <contour>
      <point x="36" y="350" type="curve" smooth="yes"/>
      <point x="36" y="562"/>
      <point x="198" y="714"/>
      <point x="408" y="714" type="curve" smooth="yes"/>
      <point x="620" y="714"/>
      <point x="776" y="562"/>
      <point x="776" y="350" type="curve" smooth="yes"/>
      <point x="776" y="138"/>
      <point x="623" y="-18"/>
      <point x="408" y="-18" type="curve" smooth="yes"/>
      <point x="193" y="-18"/>
      <point x="36" y="138"/>
    </contour>
    <contour>
      <point x="363" y="300" type="line"/>
      <point x="519" y="300" type="line"/>
      <point x="846" y="-8" type="line"/>
      <point x="686" y="-8" type="line"/>
    </contour>
  </outline>
</glyph>
<glyph name="R" format="2">
  <advance width="620"/>
  <unicode hex="0052"/>
  <outline>
    <contour>
      <point x="236" y="326" type="line"/>
      <point x="388" y="326" type="line"/>
      <point x="616" y="0" type="line"/>
      <point x="445" y="0" type="line"/>
    </contour>
    <contour>
      <point x="76" y="700" type="line"/>
      <point x="220" y="700" type="line"/>
      <point x="220" y="0" type="line"/>
      <point x="76" y="0" type="line"/>
    </contour>
    <contour>
      <point x="164" y="576" type="line"/>
      <point x="164" y="700" type="line"/>
      <point x="312" y="700" type="line" smooth="yes"/>
      <point x="478" y="700"/>
      <point x="574" y="609"/>
      <point x="574" y="476" type="curve" smooth="yes"/>
      <point x="574" y="343"/>
      <point x="478" y="254"/>
      <point x="312" y="254" type="curve" smooth="yes"/>
      <point x="164" y="254" type="line"/>
      <point x="164" y="368" type="line"/>
      <point x="303" y="368" type="line" smooth="yes"/>
      <point x="377" y="368"/>
      <point x="425" y="406"/>
      <point x="425" y="472" type="curve" smooth="yes"/>
      <point x="425" y="538"/>
      <point x="377" y="576"/>
      <point x="303" y="576" type="curve" smooth="yes"/>
    </contour>
  </outline>
</glyph>
<glyph name="S" format="2">
  <advance width="601"/>
  <unicode hex="0053"/>
  <outline>
    <contour>
      <point x="138" y="236" type="line"/>
      <point x="182" y="158"/>
      <point x="239" y="106"/>
      <point x="314" y="106" type="curve" smooth="yes"/>
      <point x="372" y="106"/>
      <point x="410" y="138"/>
      <point x="410" y="188" type="curve" smooth="yes"/>
      <point x="410" y="252"/>
      <point x="360" y="274"/>
      <point x="266" y="310" type="curve" smooth="yes"/>
      <point x="196" y="336"/>
      <point x="79" y="386"/>
      <point x="79" y="520" type="curve" smooth="yes"/>
      <point x="79" y="638"/>
      <point x="180" y="714"/>
      <point x="311" y="714" type="curve" smooth="yes"/>
      <point x="443" y="714"/>
      <point x="522" y="636"/>
      <point x="558" y="564" type="curve"/>
      <point x="446" y="500" type="line"/>
      <point x="416" y="550"/>
      <point x="373" y="591"/>
      <point x="311" y="591" type="curve" smooth="yes"/>
      <point x="255" y="591"/>
      <point x="227" y="561"/>
      <point x="227" y="526" type="curve" smooth="yes"/>
      <point x="227" y="474"/>
      <point x="279" y="445"/>
      <point x="384" y="409" type="curve" smooth="yes"/>
      <point x="475" y="377"/>
      <point x="562" y="314"/>
      <point x="562" y="196" type="curve" smooth="yes"/>
      <point x="562" y="60"/>
      <point x="442" y="-18"/>
      <point x="316" y="-18" type="curve" smooth="yes"/>
      <point x="186" y="-18"/>
      <point x="80" y="62"/>
      <point x="34" y="162" type="curve"/>
    </contour>
  </outline>
</glyph>
<glyph name="U" format="2">
  <advance width="678"/>
  <unicode hex="0055"/>
  <outline>
    <contour>
      <point x="71" y="700" type="line"/>
      <point x="214" y="700" type="line"/>
      <point x="214" y="238" type="line" smooth="yes"/>
      <point x="214" y="160"/>
      <point x="257" y="107"/>
      <point x="339" y="107" type="curve" smooth="yes"/>
      <point x="421" y="107"/>
      <point x="464" y="160"/>
      <point x="464" y="238" type="curve" smooth="yes"/>
      <point x="464" y="700" type="line"/>
      <point x="608" y="700" type="line"/>
      <point x="608" y="230" type="line" smooth="yes"/>
      <point x="608" y="65"/>
      <point x="493" y="-24"/>
      <point x="339" y="-24" type="curve" smooth="yes"/>
      <point x="185" y="-24"/>
      <point x="71" y="65"/>
      <point x="71" y="230" type="curve" smooth="yes"/>
    </contour>
  </outline>
</glyph>
<glyph name="W" format="2">
  <advance width="1042"/>
  <unicode hex="0057"/>
  <outline>
    <contour>
      <point x="718" y="266" type="line"/>
      <point x="868" y="700" type="line"/>
      <point x="1036" y="700" type="line"/>
      <point x="742" y="-39" type="line"/>
      <point x="521" y="418" type="line"/>
      <point x="300" y="-39" type="line"/>
      <point x="6" y="700" type="line"/>
      <point x="175" y="700" type="line"/>
      <point x="326" y="266" type="line"/>
      <point x="521" y="735" type="line"/>
    </contour>
  </outline>
</glyph>
<glyph name="X" format="2">
  <advance width="646"/>
  <unicode hex="0058"/>
  <outline>
    <contour>
      <point x="450" y="700" type="line"/>
      <point x="626" y="700" type="line"/>
      <point x="410" y="362" type="line"/>
      <point x="641" y="0" type="line"/>
      <point x="464" y="0" type="line"/>
      <point x="326" y="250" type="line"/>
      <point x="182" y="0" type="line"/>
      <point x="6" y="0" type="line"/>
      <point x="242" y="362" type="line"/>
      <point x="31" y="700" type="line"/>
      <point x="207" y="700" type="line"/>
      <point x="327" y="480" type="line"/>
    </contour>
  </outline>
</glyph>
<glyph name="Y" format="2">
  <advance width="630"/>
  <unicode hex="0059"/>
  <outline>
    <contour>
      <point x="465" y="700" type="line"/>
      <point x="630" y="700" type="line"/>
      <point x="389" y="290" type="line"/>
      <point x="389" y="0" type="line"/>
      <point x="242" y="0" type="line"/>
      <point x="242" y="289" type="line"/>
      <point x="1" y="700" type="line"/>
      <point x="166" y="700" type="line"/>
      <point x="315" y="418" type="line"/>
    </contour>
  </outline>
</glyph>
<glyph name="Z" format="2">
  <advance width="597"/>
  <unicode hex="005A"/>
  <outline>
    <contour>
      <point x="50" y="570" type="line"/>
      <point x="50" y="700" type="line"/>
      <point x="582" y="700" type="line"/>
      <point x="240" y="126" type="line"/>
      <point x="551" y="126" type="line"/>
      <point x="551" y="0" type="line"/>
      <point x="11" y="0" type="line"/>
      <point x="350" y="570" type="line"/>
    </contour>
  </outline>
</glyph>
<glyph name="bracketleft" format="2">
  <advance width="343"/>
  <unicode hex="005B"/>
  <outline>
    <contour>
      <point x="223" y="666" type="line"/>
      <point x="223" y="-106" type="line"/>
      <point x="324" y="-106" type="line"/>
      <point x="324" y="-220" type="line"/>
      <point x="94" y="-220" type="line"/>
      <point x="94" y="780" type="line"/>
      <point x="324" y="780" type="line"/>
      <point x="324" y="666" type="line"/>
    </contour>
  </outline>
</glyph>
<glyph name="grave" format="2">
  <advance width="375"/>
  <unicode hex="0060"/>
  <outline>
    <contour>
      <point x="60" y="656" type="line"/>
      <point x="164" y="704" type="line"/>
      <point x="314" y="544" type="line"/>
      <point x="240" y="506" type="line"/>
    </contour>
  </outline>
</glyph>
<glyph name="a" format="2">
  <advance width="521"/>
  <unicode hex="0061"/>
  <outline>
    <contour>
      <point x="157" y="144" type="curve" smooth="yes"/>
      <point x="157" y="103"/>
      <point x="188" y="80"/>
      <point x="232" y="80" type="curve" smooth="yes"/>
      <point x="290" y="80"/>
      <point x="340" y="116"/>
      <point x="340" y="184" type="curve"/>
      <point x="356" y="124" type="line"/>
      <point x="356" y="36"/>
      <point x="272" y="-10"/>
      <point x="188" y="-10" type="curve" smooth="yes"/>
      <point x="100" y="-10"/>
      <point x="26" y="42"/>
      <point x="26" y="136" type="curve" smooth="yes"/>
      <point x="26" y="224"/>
      <point x="91" y="281"/>
      <point x="206" y="281" type="curve" smooth="yes"/>
      <point x="293" y="281"/>
      <point x="352" y="250"/>
      <point x="374" y="226" type="curve"/>
      <point x="374" y="164" type="line"/>
      <point x="338" y="190"/>
      <point x="291" y="204"/>
      <point x="242" y="204" type="curve" smooth="yes"/>
      <point x="182" y="204"/>
      <point x="157" y="182"/>
    </contour>
    <contour>
      <point x="106" y="330" type="curve"/>
      <point x="58" y="418" type="line"/>
      <point x="106" y="443"/>
      <point x="176" y="472"/>
      <point x="262" y="472" type="curve" smooth="yes"/>
      <point x="379" y="472"/>
      <point x="466" y="419"/>
      <point x="466" y="326" type="curve" smooth="yes"/>
      <point x="466" y="0" type="line"/>
      <point x="340" y="0" type="line"/>
      <point x="340" y="298" type="line" smooth="yes"/>
      <point x="340" y="349"/>
      <point x="305" y="370"/>
      <point x="248" y="370" type="curve" smooth="yes"/>
      <point x="184" y="370"/>
      <point x="125" y="343"/>
    </contour>
  </outline>
</glyph>
<glyph name="c" format="2">
  <advance width="488"/>
  <unicode hex="0063"/>
  <outline>
    <contour>
      <point x="164" y="230" type="curve" smooth="yes"/>
      <point x="164" y="150"/>
      <point x="222" y="97"/>
      <point x="296" y="97" type="curve" smooth="yes"/>
      <point x="356" y="97"/>
      <point x="414" y="126"/>
      <point x="439" y="170" type="curve"/>
      <point x="439" y="37" type="line"/>
      <point x="407" y="7"/>
      <point x="355" y="-10"/>
      <point x="288" y="-10" type="curve" smooth="yes"/>
      <point x="140" y="-10"/>
      <point x="30" y="87"/>
      <point x="30" y="230" type="curve" smooth="yes"/>
      <point x="30" y="373"/>
      <point x="140" y="470"/>
      <point x="288" y="470" type="curve" smooth="yes"/>
      <point x="355" y="470"/>
      <point x="407" y="451"/>
      <point x="439" y="424" type="curve"/>
      <point x="439" y="290" type="line"/>
      <point x="414" y="334"/>
      <point x="352" y="363"/>
      <point x="296" y="363" type="curve" smooth="yes"/>
      <point x="222" y="363"/>
      <point x="164" y="306"/>
    </contour>
  </outline>
</glyph>
<glyph name="e" format="2">
  <advance width="555"/>
  <unicode hex="0065"/>
  <outline>
    <contour>
      <point x="282" y="-10" type="curve" smooth="yes"/>
      <point x="130" y="-10"/>
      <point x="33" y="84"/>
      <point x="33" y="230" type="curve" smooth="yes"/>
      <point x="33" y="377"/>
      <point x="128" y="470"/>
      <point x="282" y="470" type="curve" smooth="yes"/>
      <point x="434" y="470"/>
      <point x="522" y="384"/>
      <point x="522" y="236" type="curve" smooth="yes"/>
      <point x="522" y="222"/>
      <point x="520" y="210"/>
      <point x="520" y="202" type="curve"/>
      <point x="108" y="202" type="line"/>
      <point x="108" y="281" type="line"/>
      <point x="406" y="281" type="line"/>
      <point x="370" y="235" type="line"/>
      <point x="376" y="244"/>
      <point x="382" y="259"/>
      <point x="382" y="269" type="curve" smooth="yes"/>
      <point x="382" y="335"/>
      <point x="341" y="378"/>
      <point x="280" y="378" type="curve" smooth="yes"/>
      <point x="205" y="378"/>
      <point x="164" y="329"/>
      <point x="164" y="233" type="curve" smooth="yes"/>
      <point x="162" y="142"/>
      <point x="206" y="89"/>
      <point x="282" y="89" type="curve" smooth="yes"/>
      <point x="338" y="89"/>
      <point x="380" y="111"/>
      <point x="406" y="156" type="curve"/>
      <point x="520" y="120" type="line"/>
      <point x="472" y="33"/>
      <point x="394" y="-10"/>
    </contour>
  </outline>
</glyph>
<glyph name="f" format="2">
  <advance width="326"/>
  <unicode hex="0066"/>
  <outline>
    <contour>
      <point x="24" y="460" type="line"/>
      <point x="314" y="460" type="line"/>
      <point x="314" y="350" type="line"/>
      <point x="24" y="350" type="line"/>
    </contour>
    <contour>
      <point x="300" y="650" type="line"/>
      <point x="286" y="670"/>
      <point x="270" y="675"/>
      <point x="252" y="675" type="curve" smooth="yes"/>
      <point x="222" y="675"/>
      <point x="204" y="652"/>
      <point x="204" y="600" type="curve" smooth="yes"/>
      <point x="204" y="0" type="line"/>
      <point x="78" y="0" type="line"/>
      <point x="78" y="630" type="line" smooth="yes"/>
      <point x="78" y="735"/>
      <point x="134" y="794"/>
      <point x="240" y="794" type="curve" smooth="yes"/>
      <point x="300" y="794"/>
      <point x="337" y="767"/>
      <point x="356" y="747" type="curve"/>
    </contour>
  </outline>
</glyph>
<glyph name="j" format="2">
  <advance width="264"/>
  <unicode hex="006A"/>
  <outline>
    <contour>
      <point x="50" y="638" type="curve" smooth="yes"/>
      <point x="50" y="680"/>
      <point x="84" y="711"/>
      <point x="128" y="711" type="curve" smooth="yes"/>
      <point x="172" y="711"/>
      <point x="206" y="680"/>
      <point x="206" y="638" type="curve" smooth="yes"/>
      <point x="206" y="596"/>
      <point x="172" y="564"/>
      <point x="128" y="564" type="curve" smooth="yes"/>
      <point x="84" y="564"/>
      <point x="50" y="596"/>
    </contour>
    <contour>
      <point x="-28" y="-88" type="line"/>
      <point x="-16" y="-104"/>
      <point x="-2" y="-114"/>
      <point x="18" y="-114" type="curve" smooth="yes"/>
      <point x="50" y="-114"/>
      <point x="66" y="-91"/>
      <point x="66" y="-39" type="curve" smooth="yes"/>
      <point x="66" y="460" type="line"/>
      <point x="193" y="460" type="line"/>
      <point x="193" y="-68" type="line" smooth="yes"/>
      <point x="193" y="-168"/>
      <point x="137" y="-234"/>
      <point x="31" y="-234" type="curve" smooth="yes"/>
      <point x="-28" y="-234"/>
      <point x="-62" y="-210"/>
      <point x="-84" y="-186" type="curve"/>
    </contour>
  </outline>
</glyph>
<glyph name="k" format="2">
  <advance width="535"/>
  <unicode hex="006B"/>
  <outline>
    <contour>
      <point x="62" y="780" type="line"/>
      <point x="187" y="780" type="line"/>
      <point x="187" y="0" type="line"/>
      <point x="62" y="0" type="line"/>
    </contour>
    <contour>
      <point x="356" y="460" type="line"/>
      <point x="512" y="460" type="line"/>
      <point x="314" y="270" type="line"/>
      <point x="532" y="0" type="line"/>
      <point x="377" y="0" type="line"/>
      <point x="158" y="270" type="line"/>
    </contour>
  </outline>
</glyph>
<glyph name="l" format="2">
  <advance width="258"/>
  <unicode hex="006C"/>
  <outline>
    <contour>
      <point x="64" y="780" type="line"/>
      <point x="194" y="780" type="line"/>
      <point x="194" y="0" type="line"/>
      <point x="64" y="0" type="line"/>
    </contour>
  </outline>
</glyph>
<glyph name="m" format="2">
  <advance width="808"/>
  <unicode hex="006D"/>
  <outline>
    <contour>
      <point x="744" y="294" type="curve" smooth="yes"/>
      <point x="744" y="0" type="line"/>
      <point x="614" y="0" type="line"/>
      <point x="614" y="280" type="line" smooth="yes"/>
      <point x="614" y="342"/>
      <point x="593" y="374"/>
      <point x="547" y="374" type="curve" smooth="yes"/>
      <point x="499" y="374"/>
      <point x="467" y="341"/>
      <point x="467" y="280" type="curve" smooth="yes"/>
      <point x="467" y="0" type="line"/>
      <point x="336" y="0" type="line"/>
      <point x="336" y="280" type="line" smooth="yes"/>
      <point x="336" y="342"/>
      <point x="316" y="374"/>
      <point x="270" y="374" type="curve" smooth="yes"/>
      <point x="222" y="374"/>
      <point x="190" y="341"/>
      <point x="190" y="280" type="curve" smooth="yes"/>
      <point x="190" y="0" type="line"/>
      <point x="64" y="0" type="line"/>
      <point x="64" y="460" type="line"/>
      <point x="190" y="460" type="line"/>
      <point x="190" y="392" type="line"/>
      <point x="216" y="442"/>
      <point x="260" y="470"/>
      <point x="321" y="470" type="curve" smooth="yes"/>
      <point x="391" y="470"/>
      <point x="435" y="444"/>
      <point x="454" y="392" type="curve"/>
      <point x="486" y="442"/>
      <point x="536" y="470"/>
      <point x="598" y="470" type="curve" smooth="yes"/>
      <point x="701" y="470"/>
      <point x="744" y="406"/>
    </contour>
  </outline>
</glyph>
<glyph name="n" format="2">
  <advance width="560"/>
  <unicode hex="006E"/>
  <outline>
    <contour>
      <point x="362" y="280" type="line" smooth="yes"/>
      <point x="362" y="340"/>
      <point x="340" y="374"/>
      <point x="286" y="374" type="curve" smooth="yes"/>
      <point x="232" y="374"/>
      <point x="194" y="338"/>
      <point x="194" y="280" type="curve" smooth="yes"/>
      <point x="194" y="0" type="line"/>
      <point x="64" y="0" type="line"/>
      <point x="64" y="460" type="line"/>
      <point x="194" y="460" type="line"/>
      <point x="194" y="390" type="line"/>
      <point x="222" y="442"/>
      <point x="268" y="470"/>
      <point x="334" y="470" type="curve" smooth="yes"/>
      <point x="443" y="470"/>
      <point x="496" y="404"/>
      <point x="496" y="294" type="curve" smooth="yes"/>
      <point x="496" y="0" type="line"/>
      <point x="362" y="0" type="line"/>
    </contour>
  </outline>
</glyph>
<glyph name="r" format="2">
  <advance width="390"/>
  <unicode hex="0072"/>
  <outline>
    <contour>
      <point x="192" y="460" type="line"/>
      <point x="192" y="0" type="line"/>
      <point x="64" y="0" type="line"/>
      <point x="64" y="460" type="line"/>
    </contour>
    <contour>
      <point x="327" y="324" type="line"/>
      <point x="309" y="340"/>
      <point x="293" y="349"/>
      <point x="267" y="349" type="curve" smooth="yes"/>
      <point x="218" y="349"/>
      <point x="192" y="309"/>
      <point x="192" y="243" type="curve"/>
      <point x="156" y="280" type="line"/>
      <point x="156" y="389"/>
      <point x="228" y="470"/>
      <point x="302" y="470" type="curve" smooth="yes"/>
      <point x="335" y="470"/>
      <point x="368" y="458"/>
      <point x="386" y="434" type="curve"/>
    </contour>
  </outline>
</glyph>
<glyph name="s" format="2">
  <advance width="440"/>
  <unicode hex="0073"/>
  <outline>
    <contour>
      <point x="87" y="159" type="line"/>
      <point x="145" y="105"/>
      <point x="191" y="84"/>
      <point x="231" y="84" type="curve" smooth="yes"/>
      <point x="265" y="84"/>
      <point x="284" y="100"/>
      <point x="284" y="126" type="curve" smooth="yes"/>
      <point x="284" y="160"/>
      <point x="252" y="177"/>
      <point x="184" y="200" type="curve" smooth="yes"/>
      <point x="120" y="222"/>
      <point x="54" y="256"/>
      <point x="54" y="342" type="curve" smooth="yes"/>
      <point x="54" y="426"/>
      <point x="126" y="470"/>
      <point x="218" y="470" type="curve" smooth="yes"/>
      <point x="295" y="470"/>
      <point x="360" y="438"/>
      <point x="406" y="396" type="curve"/>
      <point x="349" y="314" type="line"/>
      <point x="315" y="350"/>
      <point x="265" y="376"/>
      <point x="222" y="376" type="curve" smooth="yes"/>
      <point x="193" y="376"/>
      <point x="174" y="363"/>
      <point x="174" y="342" type="curve" smooth="yes"/>
      <point x="174" y="309"/>
      <point x="216" y="297"/>
      <point x="278" y="273" type="curve" smooth="yes"/>
      <point x="352" y="244"/>
      <point x="414" y="214"/>
      <point x="414" y="130" type="curve" smooth="yes"/>
      <point x="414" y="38"/>
      <point x="351" y="-16"/>
      <point x="246" y="-16" type="curve" smooth="yes"/>
      <point x="148" y="-16"/>
      <point x="75" y="27"/>
      <point x="24" y="78" type="curve"/>
    </contour>
  </outline>
</glyph>
<glyph name="t" format="2">
  <advance width="294"/>
  <unicode hex="0074"/>
  <outline>
    <contour>
      <point x="5" y="460" type="line"/>
      <point x="290" y="460" type="line"/>
      <point x="290" y="350" type="line"/>
      <point x="5" y="350" type="line"/>
    </contour>
    <contour>
      <point x="84" y="620" type="line"/>
      <point x="210" y="620" type="line"/>
      <point x="210" y="0" type="line"/>
      <point x="84" y="0" type="line"/>
    </contour>
  </outline>
</glyph>
<glyph name="u" format="2">
  <advance width="560"/>
  <unicode hex="0075"/>
  <outline>
    <contour>
      <point x="199" y="180" type="line" smooth="yes"/>
      <point x="199" y="121"/>
      <point x="220" y="86"/>
      <point x="274" y="86" type="curve" smooth="yes"/>
      <point x="328" y="86"/>
      <point x="366" y="122"/>
      <point x="366" y="180" type="curve" smooth="yes"/>
      <point x="366" y="460" type="line"/>
      <point x="496" y="460" type="line"/>
      <point x="496" y="0" type="line"/>
      <point x="366" y="0" type="line"/>
      <point x="366" y="70" type="line"/>
      <point x="338" y="18"/>
      <point x="292" y="-10"/>
      <point x="226" y="-10" type="curve" smooth="yes"/>
      <point x="118" y="-10"/>
      <point x="64" y="56"/>
      <point x="64" y="166" type="curve" smooth="yes"/>
      <point x="64" y="460" type="line"/>
      <point x="199" y="460" type="line"/>
    </contour>
  </outline>
</glyph>
<glyph name="v" format="2">
  <advance width="500"/>
  <unicode hex="0076"/>
  <outline>
    <contour>
      <point x="-2" y="460" type="line"/>
      <point x="138" y="460" type="line"/>
      <point x="251" y="184" type="line"/>
      <point x="364" y="460" type="line"/>
      <point x="504" y="460" type="line"/>
      <point x="251" y="-48" type="line"/>
    </contour>
  </outline>
</glyph>
<glyph name="y" format="2">
  <advance width="496"/>
  <unicode hex="0079"/>
  <outline>
    <contour>
      <point x="504" y="460" type="line"/>
      <point x="204" y="-220" type="line"/>
      <point x="70" y="-220" type="line"/>
      <point x="186" y="46" type="line"/>
      <point x="-6" y="460" type="line"/>
      <point x="139" y="460" type="line"/>
      <point x="286" y="94" type="line"/>
      <point x="222" y="96" type="line"/>
      <point x="368" y="460" type="line"/>
    </contour>
  </outline>
</glyph>
<glyph name="braceleft" format="2">
  <advance width="371"/>
  <unicode hex="007B"/>
  <outline>
    <contour>
      <point x="240" y="625" type="curve" smooth="yes"/>
      <point x="240" y="490" type="line" smooth="yes"/>
      <point x="240" y="401"/>
      <point x="234" y="280"/>
      <point x="104" y="280" type="curve"/>
      <point x="104" y="300" type="line"/>
      <point x="234" y="300"/>
      <point x="240" y="179"/>
      <point x="240" y="90" type="curve" smooth="yes"/>
      <point x="240" y="-45" type="line" smooth="yes"/>
      <point x="240" y="-71"/>
      <point x="258" y="-95"/>
      <point x="288" y="-95" type="curve" smooth="yes"/>
      <point x="322" y="-95" type="line"/>
      <point x="322" y="-200" type="line"/>
      <point x="240" y="-200" type="line" smooth="yes"/>
      <point x="170" y="-200"/>
      <point x="98" y="-159"/>
      <point x="98" y="-60" type="curve" smooth="yes"/>
      <point x="98" y="132" type="line" smooth="yes"/>
      <point x="98" y="208"/>
      <point x="80" y="232"/>
      <point x="42" y="242" type="curve"/>
      <point x="42" y="338" type="line"/>
      <point x="80" y="348"/>
      <point x="98" y="372"/>
      <point x="98" y="448" type="curve" smooth="yes"/>
      <point x="98" y="640" type="line" smooth="yes"/>
      <point x="98" y="739"/>
      <point x="170" y="780"/>
      <point x="240" y="780" type="curve" smooth="yes"/>
      <point x="322" y="780" type="line"/>
      <point x="322" y="675" type="line"/>
      <point x="288" y="675" type="line" smooth="yes"/>
      <point x="258" y="675"/>
      <point x="240" y="651"/>
    </contour>
  </outline>
</glyph>
<glyph name="braceright" format="2">
  <advance width="371"/>
  <unicode hex="007D"/>
  <outline>
    <contour>
      <point x="138" y="-45" type="curve" smooth="yes"/>
      <point x="138" y="90" type="line" smooth="yes"/>
      <point x="138" y="179"/>
      <point x="143" y="300"/>
      <point x="273" y="300" type="curve"/>
      <point x="273" y="280" type="line"/>
      <point x="143" y="280"/>
      <point x="138" y="401"/>
      <point x="138" y="490" type="curve" smooth="yes"/>
      <point x="138" y="625" type="line" smooth="yes"/>
      <point x="138" y="651"/>
      <point x="120" y="675"/>
      <point x="90" y="675" type="curve" smooth="yes"/>
      <point x="55" y="675" type="line"/>
      <point x="55" y="780" type="line"/>
      <point x="137" y="780" type="line" smooth="yes"/>
      <point x="207" y="780"/>
      <point x="280" y="739"/>
      <point x="280" y="640" type="curve" smooth="yes"/>
      <point x="280" y="448" type="line" smooth="yes"/>
      <point x="280" y="372"/>
      <point x="298" y="348"/>
      <point x="336" y="338" type="curve"/>
      <point x="336" y="242" type="line"/>
      <point x="298" y="232"/>
      <point x="280" y="208"/>
      <point x="280" y="132" type="curve" smooth="yes"/>
      <point x="280" y="-60" type="line" smooth="yes"/>
      <point x="280" y="-159"/>
      <point x="207" y="-200"/>
      <point x="137" y="-200" type="curve" smooth="yes"/>
      <point x="55" y="-200" type="line"/>
      <point x="55" y="-95" type="line"/>
      <point x="90" y="-95" type="line" smooth="yes"/>
      <point x="120" y="-95"/>
      <point x="138" y="-71"/>
    </contour>
  </outline>
</glyph>
<glyph name="asciitilde" format="2">
  <advance width="575"/>
  <unicode hex="007E"/>
  <outline>
    <contour>
      <point x="152" y="168" type="curve"/>
      <point x="46" y="172" type="line"/>
      <point x="44" y="179"/>
      <point x="44" y="187"/>
      <point x="44" y="196" type="curve" smooth="yes"/>
      <point x="44" y="226"/>
      <point x="50" y="256"/>
      <point x="72" y="284" type="curve" smooth="yes"/>
      <point x="98" y="318"/>
      <point x="134" y="340"/>
      <point x="194" y="340" type="curve" smooth="yes"/>
      <point x="237" y="340"/>
      <point x="272" y="324"/>
      <point x="318" y="292" type="curve" smooth="yes"/>
      <point x="348" y="270"/>
      <point x="372" y="258"/>
      <point x="390" y="258" type="curve" smooth="yes"/>
      <point x="414" y="258"/>
      <point x="426" y="275"/>
      <point x="426" y="300" type="curve" smooth="yes"/>
      <point x="426" y="310"/>
      <point x="424" y="322"/>
      <point x="420" y="332" type="curve"/>
      <point x="528" y="326" type="line"/>
      <point x="530" y="318"/>
      <point x="532" y="308"/>
      <point x="532" y="298" type="curve" smooth="yes"/>
      <point x="532" y="270"/>
      <point x="526" y="237"/>
      <point x="505" y="210" type="curve" smooth="yes"/>
      <point x="479" y="176"/>
      <point x="448" y="158"/>
      <point x="398" y="158" type="curve" smooth="yes"/>
      <point x="360" y="158"/>
      <point x="324" y="176"/>
      <point x="277" y="208" type="curve" smooth="yes"/>
      <point x="247" y="230"/>
      <point x="218" y="242"/>
      <point x="193" y="242" type="curve" smooth="yes"/>
      <point x="160" y="242"/>
      <point x="146" y="220"/>
      <point x="146" y="194" type="curve" smooth="yes"/>
      <point x="146" y="183"/>
      <point x="149" y="176"/>
    </contour>
  </outline>
</glyph>
<glyph name="exclamdown" format="2">
  <advance width="330"/>
  <unicode hex="00A1"/>
  <outline>
    <contour>
      <point x="246" y="-234" type="line"/>
      <point x="84" y="-234" type="line"/>
      <point x="114" y="244" type="line"/>
      <point x="217" y="244" type="line"/>
    </contour>
    <contour>
      <point x="248" y="411" type="curve" smooth="yes"/>
      <point x="248" y="367"/>
      <point x="214" y="334"/>
      <point x="166" y="334" type="curve" smooth="yes"/>
      <point x="118" y="334"/>
      <point x="83" y="367"/>
      <point x="83" y="411" type="curve" smooth="yes"/>
      <point x="83" y="455"/>
      <point x="118" y="488"/>
      <point x="166" y="488" type="curve" smooth="yes"/>
      <point x="214" y="488"/>
      <point x="248" y="455"/>
    </contour>
  </outline>
</glyph>
<glyph name="cent" format="2">
  <advance width="580"/>
  <unicode hex="00A2"/>
  <outline>
    <contour>
      <point x="249" y="38" type="line"/>
      <point x="346" y="38" type="line"/>
      <point x="352" y="-112" type="line"/>
      <point x="243" y="-112" type="line"/>
    </contour>
    <contour>
      <point x="192" y="230" type="curve" smooth="yes"/>
      <point x="192" y="148"/>
      <point x="254" y="97"/>
      <point x="326" y="97" type="curve" smooth="yes"/>
      <point x="392" y="97"/>
      <point x="443" y="129"/>
      <point x="468" y="170" type="curve"/>
      <point x="468" y="36" type="line"/>
      <point x="436" y="6"/>
      <point x="380" y="-10"/>
      <point x="317" y="-10" type="curve" smooth="yes"/>
      <point x="169" y="-10"/>
      <point x="60" y="87"/>
      <point x="60" y="230" type="curve" smooth="yes"/>
      <point x="60" y="373"/>
      <point x="169" y="470"/>
      <point x="317" y="470" type="curve" smooth="yes"/>
      <point x="380" y="470"/>
      <point x="436" y="452"/>
      <point x="468" y="424" type="curve"/>
      <point x="468" y="290" type="line"/>
      <point x="443" y="331"/>
      <point x="392" y="363"/>
      <point x="326" y="363" type="curve" smooth="yes"/>
      <point x="254" y="363"/>
      <point x="192" y="308"/>
    </contour>
    <contour>
      <point x="243" y="578" type="line"/>
      <point x="352" y="578" type="line"/>
      <point x="346" y="428" type="line"/>
      <point x="249" y="428" type="line"/>
    </contour>
  </outline>
</glyph>
<glyph name="currency" format="2">
  <advance width="577"/>
  <unicode hex="00A4"/>
  <outline>
    <contour>
      <point x="27" y="503" type="line"/>
      <point x="86" y="562" type="line"/>
      <point x="184" y="463" type="line"/>
      <point x="126" y="406" type="line"/>
    </contour>
    <contour>
      <point x="86" y="38" type="line"/>
      <point x="27" y="97" type="line"/>
      <point x="126" y="194" type="line"/>
      <point x="184" y="137" type="line"/>
    </contour>
    <contour>
      <point x="452" y="406" type="line"/>
      <point x="394" y="463" type="line"/>
      <point x="492" y="562" type="line"/>
      <point x="550" y="503" type="line"/>
    </contour>
    <contour>
      <point x="394" y="137" type="line"/>
      <point x="452" y="194" type="line"/>
      <point x="550" y="97" type="line"/>
      <point x="492" y="38" type="line"/>
    </contour>
    <contour>
      <point x="52" y="300" type="curve" smooth="yes"/>
      <point x="52" y="439"/>
      <point x="155" y="540"/>
      <point x="290" y="540" type="curve" smooth="yes"/>
      <point x="425" y="540"/>
      <point x="528" y="439"/>
      <point x="528" y="300" type="curve" smooth="yes"/>
      <point x="528" y="161"/>
      <point x="425" y="60"/>
      <point x="290" y="60" type="curve" smooth="yes"/>
      <point x="155" y="60"/>
      <point x="52" y="161"/>
    </contour>
    <contour>
      <point x="172" y="300" type="curve" smooth="yes"/>
      <point x="172" y="228"/>
      <point x="222" y="179"/>
      <point x="290" y="179" type="curve" smooth="yes"/>
      <point x="358" y="179"/>
      <point x="407" y="228"/>
      <point x="407" y="300" type="curve" smooth="yes"/>
      <point x="407" y="372"/>
      <point x="358" y="421"/>
      <point x="290" y="421" type="curve" smooth="yes"/>
      <point x="222" y="421"/>
      <point x="172" y="372"/>
    </contour>
  </outline>
</glyph>
<glyph name="yen" format="2">
  <advance width="642"/>
  <unicode hex="00A5"/>
  <outline>
    <contour>
      <point x="45" y="272" type="line"/>
      <point x="45" y="365" type="line"/>
      <point x="594" y="365" type="line"/>
      <point x="594" y="272" type="line"/>
    </contour>
    <contour>
      <point x="45" y="122" type="line"/>
      <point x="45" y="215" type="line"/>
      <point x="594" y="215" type="line"/>
      <point x="594" y="122" type="line"/>
    </contour>
    <contour>
      <point x="471" y="700" type="line"/>
      <point x="635" y="700" type="line"/>
      <point x="396" y="292" type="line"/>
      <point x="396" y="0" type="line"/>
      <point x="248" y="0" type="line"/>
      <point x="248" y="290" type="line"/>
      <point x="6" y="700" type="line"/>
      <point x="172" y="700" type="line"/>
      <point x="321" y="418" type="line"/>
    </contour>
  </outline>
</glyph>
<glyph name="section" format="2">
  <advance width="526"/>
  <unicode hex="00A7"/>
  <outline>
    <contour>
      <point x="374" y="558" type="line"/>
      <point x="348" y="590"/>
      <point x="302" y="609"/>
      <point x="269" y="609" type="curve" smooth="yes"/>
      <point x="233" y="609"/>
      <point x="212" y="597"/>
      <point x="212" y="575" type="curve" smooth="yes"/>
      <point x="212" y="546"/>
      <point x="263" y="532"/>
      <point x="316" y="515" type="curve" smooth="yes"/>
      <point x="388" y="492"/>
      <point x="450" y="447"/>
      <point x="450" y="376" type="curve" smooth="yes"/>
      <point x="450" y="274"/>
      <point x="356" y="232"/>
      <point x="250" y="232" type="curve"/>
      <point x="250" y="272" type="line"/>
      <point x="292" y="276"/>
      <point x="328" y="310"/>
      <point x="328" y="350" type="curve" smooth="yes"/>
      <point x="328" y="403"/>
      <point x="264" y="422"/>
      <point x="212" y="442" type="curve" smooth="yes"/>
      <point x="152" y="465"/>
      <point x="87" y="501"/>
      <point x="87" y="582" type="curve" smooth="yes"/>
      <point x="87" y="672"/>
      <point x="177" y="720"/>
      <point x="262" y="720" type="curve" smooth="yes"/>
      <point x="340" y="720"/>
      <point x="417" y="684"/>
      <point x="442" y="640" type="curve"/>
    </contour>
    <contour>
      <point x="118" y="170" type="line"/>
      <point x="156" y="118"/>
      <point x="215" y="91"/>
      <point x="259" y="91" type="curve" smooth="yes"/>
      <point x="301" y="91"/>
      <point x="322" y="107"/>
      <point x="322" y="133" type="curve" smooth="yes"/>
      <point x="322" y="169"/>
      <point x="276" y="183"/>
      <point x="222" y="200" type="curve" smooth="yes"/>
      <point x="150" y="222"/>
      <point x="77" y="265"/>
      <point x="77" y="342" type="curve" smooth="yes"/>
      <point x="77" y="432"/>
      <point x="167" y="480"/>
      <point x="281" y="480" type="curve"/>
      <point x="281" y="446" type="line"/>
      <point x="235" y="430"/>
      <point x="200" y="410"/>
      <point x="200" y="369" type="curve" smooth="yes"/>
      <point x="200" y="307"/>
      <point x="275" y="295"/>
      <point x="326" y="274" type="curve" smooth="yes"/>
      <point x="391" y="247"/>
      <point x="453" y="206"/>
      <point x="453" y="130" type="curve" smooth="yes"/>
      <point x="453" y="27"/>
      <point x="362" y="-18"/>
      <point x="263" y="-18" type="curve" smooth="yes"/>
      <point x="161" y="-18"/>
      <point x="84" y="28"/>
      <point x="48" y="90" type="curve"/>
    </contour>
  </outline>
</glyph>
<glyph name="dieresis" format="2">
  <advance width="498"/>
  <unicode hex="00A8"/>
  <outline>
    <contour>
      <point x="286" y="640" type="curve" smooth="yes"/>
      <point x="286" y="682"/>
      <point x="321" y="714"/>
      <point x="365" y="714" type="curve" smooth="yes"/>
      <point x="409" y="714"/>
      <point x="443" y="682"/>
      <point x="443" y="640" type="curve" smooth="yes"/>
      <point x="443" y="598"/>
      <point x="409" y="566"/>
      <point x="365" y="566" type="curve" smooth="yes"/>
      <point x="321" y="566"/>
      <point x="286" y="598"/>
    </contour>
    <contour>
      <point x="56" y="640" type="curve" smooth="yes"/>
      <point x="56" y="682"/>
      <point x="90" y="714"/>
      <point x="134" y="714" type="curve" smooth="yes"/>
      <point x="178" y="714"/>
      <point x="212" y="682"/>
      <point x="212" y="640" type="curve" smooth="yes"/>
      <point x="212" y="598"/>
      <point x="178" y="566"/>
      <point x="134" y="566" type="curve" smooth="yes"/>
      <point x="90" y="566"/>
      <point x="56" y="598"/>
    </contour>
  </outline>
</glyph>
<glyph name="degree" format="2">
  <advance width="290"/>
  <unicode hex="00B0"/>
  <outline>
    <contour>
      <point x="18" y="598" type="curve" smooth="yes"/>
      <point x="18" y="670"/>
      <point x="72" y="720"/>
      <point x="146" y="720" type="curve" smooth="yes"/>
      <point x="220" y="720"/>
      <point x="274" y="670"/>
      <point x="274" y="598" type="curve" smooth="yes"/>
      <point x="274" y="526"/>
      <point x="220" y="476"/>
      <point x="146" y="476" type="curve" smooth="yes"/>
      <point x="72" y="476"/>
      <point x="18" y="526"/>
    </contour>
    <contour>
      <point x="82" y="598" type="curve" smooth="yes"/>
      <point x="82" y="558"/>
      <point x="110" y="532"/>
      <point x="146" y="532" type="curve" smooth="yes"/>
      <point x="182" y="532"/>
      <point x="209" y="558"/>
      <point x="209" y="598" type="curve" smooth="yes"/>
      <point x="209" y="638"/>
      <point x="182" y="664"/>
      <point x="146" y="664" type="curve" smooth="yes"/>
      <point x="110" y="664"/>
      <point x="82" y="638"/>
    </contour>
  </outline>
</glyph>
<glyph name="plusminus" format="2">
  <advance width="627"/>
  <unicode hex="00B1"/>
  <outline>
    <contour>
      <point x="65" y="4" type="line"/>
      <point x="65" y="119" type="line"/>
      <point x="564" y="119" type="line"/>
      <point x="564" y="4" type="line"/>
    </contour>
    <contour>
      <point x="65" y="336" type="line"/>
      <point x="65" y="456" type="line"/>
      <point x="564" y="456" type="line"/>
      <point x="564" y="336" type="line"/>
    </contour>
    <contour>
      <point x="248" y="620" type="line"/>
      <point x="381" y="620" type="line"/>
      <point x="381" y="172" type="line"/>
      <point x="248" y="172" type="line"/>
    </contour>
  </outline>
</glyph>
<glyph name="acute" format="2">
  <advance width="375"/>
  <unicode hex="00B4"/>
  <outline>
    <contour>
      <point x="314" y="656" type="line"/>
      <point x="134" y="506" type="line"/>
      <point x="60" y="544" type="line"/>
      <point x="210" y="704" type="line"/>
    </contour>
  </outline>
</glyph>
<glyph name="mu" format="2">
  <advance width="560"/>
  <unicode hex="00B5"/>
  <outline>
    <contour>
      <point x="199" y="460" type="line"/>
      <point x="199" y="198" type="line" smooth="yes"/>
      <point x="199" y="138"/>
      <point x="220" y="104"/>
      <point x="274" y="104" type="curve" smooth="yes"/>
      <point x="328" y="104"/>
      <point x="366" y="140"/>
      <point x="366" y="198" type="curve" smooth="yes"/>
      <point x="366" y="460" type="line"/>
      <point x="496" y="460" type="line"/>
      <point x="496" y="0" type="line"/>
      <point x="366" y="0" type="line"/>
      <point x="366" y="56" type="line"/>
      <point x="342" y="20"/>
      <point x="305" y="-6"/>
      <point x="260" y="-6" type="curve" smooth="yes"/>
      <point x="236" y="-6"/>
      <point x="214" y="-1"/>
      <point x="190" y="14" type="curve"/>
      <point x="190" y="-320" type="line"/>
      <point x="64" y="-320" type="line"/>
      <point x="64" y="460" type="line"/>
    </contour>
  </outline>
</glyph>
<glyph name="periodcentered" format="2">
  <advance width="315"/>
  <unicode hex="00B7"/>
  <outline>
    <contour>
      <point x="76" y="260" type="curve" smooth="yes"/>
      <point x="76" y="304"/>
      <point x="110" y="341"/>
      <point x="158" y="341" type="curve" smooth="yes"/>
      <point x="206" y="341"/>
      <point x="240" y="304"/>
      <point x="240" y="260" type="curve" smooth="yes"/>
      <point x="240" y="216"/>
      <point x="206" y="178"/>
      <point x="158" y="178" type="curve" smooth="yes"/>
      <point x="110" y="178"/>
      <point x="76" y="216"/>
    </contour>
  </outline>
</glyph>
<glyph name="onequarter" format="2">
  <advance width="801"/>
  <unicode hex="00BC"/>
  <outline>
    <contour>
      <point x="626" y="700" type="line"/>
      <point x="714" y="700" type="line"/>
      <point x="194" y="0" type="line"/>
      <point x="106" y="0" type="line"/>
    </contour>
    <contour>
      <point x="26" y="584" type="line"/>
      <point x="26" y="662" type="line"/>
      <point x="210" y="702" type="line"/>
      <point x="210" y="274" type="line"/>
      <point x="126" y="274" type="line"/>
      <point x="126" y="610" type="line"/>
    </contour>
    <contour>
      <point x="404" y="78" type="line"/>
      <point x="475" y="142" type="line"/>
      <point x="660" y="142" type="line" smooth="yes"/>
      <point x="670" y="152" type="line" smooth="yes"/>
      <point x="770" y="152" type="line"/>
      <point x="770" y="78" type="line"/>
    </contour>
    <contour>
      <point x="492" y="98" type="line"/>
      <point x="404" y="78" type="line"/>
      <point x="645" y="420" type="line"/>
      <point x="704" y="420" type="line"/>
      <point x="704" y="0" type="line"/>
      <point x="615" y="0" type="line"/>
      <point x="615" y="100" type="line" smooth="yes"/>
      <point x="622" y="106" type="line" smooth="yes"/>
      <point x="622" y="283" type="line"/>
    </contour>
  </outline>
</glyph>
<glyph name="onehalf" format="2">
  <advance width="871"/>
  <unicode hex="00BD"/>
  <outline>
    <contour>
      <point x="626" y="700" type="line"/>
      <point x="714" y="700" type="line"/>
      <point x="194" y="0" type="line"/>
      <point x="106" y="0" type="line"/>
    </contour>
    <contour>
      <point x="26" y="584" type="line"/>
      <point x="26" y="662" type="line"/>
      <point x="210" y="702" type="line"/>
      <point x="210" y="274" type="line"/>
      <point x="126" y="274" type="line"/>
      <point x="126" y="610" type="line"/>
    </contour>
    <contour>
      <point x="502" y="2" type="line"/>
      <point x="692" y="202" type="line" smooth="yes"/>
      <point x="724" y="236"/>
      <point x="744" y="261"/>
      <point x="744" y="295" type="curve" smooth="yes"/>
      <point x="744" y="325"/>
      <point x="724" y="355"/>
      <point x="682" y="355" type="curve" smooth="yes"/>
      <point x="638" y="355"/>
      <point x="608" y="320"/>
      <point x="608" y="270" type="curve"/>
      <point x="524" y="270" type="line"/>
      <point x="524" y="359"/>
      <point x="581" y="430"/>
      <point x="684" y="430" type="curve" smooth="yes"/>
      <point x="784" y="430"/>
      <point x="832" y="359"/>
      <point x="832" y="297" type="curve" smooth="yes"/>
      <point x="832" y="253"/>
      <point x="808" y="215"/>
      <point x="773" y="183" type="curve" smooth="yes"/>
      <point x="665" y="82" type="line"/>
      <point x="840" y="82" type="line"/>
      <point x="840" y="2" type="line"/>
    </contour>
  </outline>
</glyph>
<glyph name="threequarters" format="2">
  <advance width="861"/>
  <unicode hex="00BE"/>
  <outline>
    <contour>
      <point x="692" y="700" type="line"/>
      <point x="778" y="700" type="line"/>
      <point x="258" y="0" type="line"/>
      <point x="172" y="0" type="line"/>
    </contour>
    <contour>
      <point x="157" y="484" type="curve"/>
      <point x="157" y="526" type="line"/>
      <point x="205" y="526"/>
      <point x="238" y="554"/>
      <point x="238" y="588" type="curve" smooth="yes"/>
      <point x="238" y="618"/>
      <point x="219" y="637"/>
      <point x="184" y="637" type="curve" smooth="yes"/>
      <point x="150" y="637"/>
      <point x="126" y="614"/>
      <point x="126" y="582" type="curve"/>
      <point x="45" y="582" type="line"/>
      <point x="45" y="654"/>
      <point x="101" y="708"/>
      <point x="185" y="708" type="curve" smooth="yes"/>
      <point x="273" y="708"/>
      <point x="323" y="655"/>
      <point x="323" y="592" type="curve" smooth="yes"/>
      <point x="323" y="524"/>
      <point x="251" y="484"/>
    </contour>
    <contour>
      <point x="181" y="271" type="curve" smooth="yes"/>
      <point x="85" y="271"/>
      <point x="27" y="335"/>
      <point x="27" y="407" type="curve"/>
      <point x="113" y="407" type="line"/>
      <point x="113" y="365"/>
      <point x="145" y="343"/>
      <point x="184" y="343" type="curve" smooth="yes"/>
      <point x="223" y="343"/>
      <point x="250" y="362"/>
      <point x="250" y="402" type="curve" smooth="yes"/>
      <point x="250" y="442"/>
      <point x="217" y="468"/>
      <point x="157" y="468" type="curve"/>
      <point x="157" y="513" type="line"/>
      <point x="259" y="513"/>
      <point x="335" y="478"/>
      <point x="335" y="394" type="curve" smooth="yes"/>
      <point x="335" y="322"/>
      <point x="275" y="271"/>
    </contour>
    <contour>
      <point x="464" y="78" type="line"/>
      <point x="536" y="142" type="line"/>
      <point x="720" y="142" type="line" smooth="yes"/>
      <point x="730" y="152" type="line" smooth="yes"/>
      <point x="830" y="152" type="line"/>
      <point x="830" y="78" type="line"/>
    </contour>
    <contour>
      <point x="552" y="98" type="line"/>
      <point x="464" y="78" type="line"/>
      <point x="706" y="420" type="line"/>
      <point x="764" y="420" type="line"/>
      <point x="764" y="0" type="line"/>
      <point x="676" y="0" type="line"/>
      <point x="676" y="100" type="line" smooth="yes"/>
      <point x="684" y="106" type="line" smooth="yes"/>
      <point x="684" y="283" type="line"/>
    </contour>
  </outline>
</glyph>
<glyph name="questiondown" format="2">
  <advance width="606"/>
  <unicode hex="00BF"/>
  <outline>
    <contour>
      <point x="187" y="200" type="curve" smooth="yes"/>
      <point x="187" y="134"/>
      <point x="234" y="96"/>
      <point x="310" y="96" type="curve" smooth="yes"/>
      <point x="373" y="96"/>
      <point x="429" y="128"/>
      <point x="464" y="182" type="curve"/>
      <point x="555" y="110" type="line"/>
      <point x="491" y="32"/>
      <point x="419" y="-16"/>
      <point x="300" y="-16" type="curve" smooth="yes"/>
      <point x="171" y="-16"/>
      <point x="56" y="68"/>
      <point x="56" y="200" type="curve" smooth="yes"/>
      <point x="56" y="320"/>
      <point x="161" y="400"/>
      <point x="269" y="414" type="curve"/>
      <point x="275" y="508" type="line"/>
      <point x="378" y="508" type="line"/>
      <point x="398" y="331" type="line"/>
      <point x="368" y="331" type="line" smooth="yes"/>
      <point x="248" y="331"/>
      <point x="187" y="258"/>
    </contour>
    <contour>
      <point x="408" y="646" type="curve" smooth="yes"/>
      <point x="408" y="606"/>
      <point x="373" y="572"/>
      <point x="325" y="572" type="curve" smooth="yes"/>
      <point x="277" y="572"/>
      <point x="243" y="606"/>
      <point x="243" y="646" type="curve" smooth="yes"/>
      <point x="243" y="686"/>
      <point x="277" y="722"/>
      <point x="325" y="722" type="curve" smooth="yes"/>
      <point x="373" y="722"/>
      <point x="408" y="686"/>
    </contour>
  </outline>
</glyph>
<glyph name="Acircumflex" format="2">
  <advance width="712"/>
  <unicode hex="00C2"/>
  <outline>
    <contour>
      <point x="173" y="158" type="line"/>
      <point x="190" y="272" type="line"/>
      <point x="526" y="272" type="line"/>
      <point x="543" y="158" type="line"/>
    </contour>
    <contour>
      <point x="356" y="472" type="line"/>
      <point x="252" y="231" type="line"/>
      <point x="255" y="199" type="line"/>
      <point x="164" y="0" type="line"/>
      <point x="1" y="0" type="line"/>
      <point x="356" y="742" type="line"/>
      <point x="712" y="0" type="line"/>
      <point x="549" y="0" type="line"/>
      <point x="460" y="192" type="line"/>
      <point x="461" y="229" type="line"/>
    </contour>
    <contour>
      <point x="356" y="868" type="line"/>
      <point x="259" y="779" type="line"/>
      <point x="170" y="841" type="line"/>
      <point x="356" y="981" type="line"/>
      <point x="542" y="841" type="line"/>
      <point x="454" y="779" type="line"/>
    </contour>
  </outline>
</glyph>
<glyph name="Atilde" format="2">
  <advance width="712"/>
  <unicode hex="00C3"/>
  <outline>
    <contour>
      <point x="173" y="158" type="line"/>
      <point x="190" y="272" type="line"/>
      <point x="526" y="272" type="line"/>
      <point x="543" y="158" type="line"/>
    </contour>
    <contour>
      <point x="356" y="472" type="line"/>
      <point x="252" y="231" type="line"/>
      <point x="255" y="199" type="line"/>
      <point x="164" y="0" type="line"/>
      <point x="1" y="0" type="line"/>
      <point x="356" y="742" type="line"/>
      <point x="712" y="0" type="line"/>
      <point x="549" y="0" type="line"/>
      <point x="460" y="192" type="line"/>
      <point x="461" y="229" type="line"/>
    </contour>
    <contour>
      <point x="169" y="848" type="line"/>
      <point x="179" y="897"/>
      <point x="226" y="938"/>
      <point x="284" y="938" type="curve" smooth="yes"/>
      <point x="350" y="938"/>
      <point x="361" y="888"/>
      <point x="417" y="888" type="curve" smooth="yes"/>
      <point x="440" y="888"/>
      <point x="460" y="907"/>
      <point x="480" y="939" type="curve"/>
      <point x="544" y="874" type="line"/>
      <point x="528" y="837"/>
      <point x="476" y="792"/>
      <point x="418" y="792" type="curve" smooth="yes"/>
      <point x="363" y="792"/>
      <point x="332" y="844"/>
      <point x="284" y="844" type="curve" smooth="yes"/>
      <point x="245" y="844"/>
      <point x="236" y="808"/>
      <point x="236" y="793" type="curve"/>
    </contour>
  </outline>
</glyph>
<glyph name="Adieresis" format="2">
  <advance width="712"/>
  <unicode hex="00C4"/>
  <outline>
    <contour>
      <point x="173" y="158" type="line"/>
      <point x="190" y="272" type="line"/>
      <point x="526" y="272" type="line"/>
      <point x="543" y="158" type="line"/>
    </contour>
    <contour>
      <point x="356" y="472" type="line"/>
      <point x="252" y="231" type="line"/>
      <point x="255" y="199" type="line"/>
      <point x="164" y="0" type="line"/>
      <point x="1" y="0" type="line"/>
      <point x="356" y="742" type="line"/>
      <point x="712" y="0" type="line"/>
      <point x="549" y="0" type="line"/>
      <point x="460" y="192" type="line"/>
      <point x="461" y="229" type="line"/>
    </contour>
    <contour>
      <point x="406" y="836" type="curve" smooth="yes"/>
      <point x="406" y="878"/>
      <point x="440" y="910"/>
      <point x="484" y="910" type="curve" smooth="yes"/>
      <point x="528" y="910"/>
      <point x="562" y="878"/>
      <point x="562" y="836" type="curve" smooth="yes"/>
      <point x="562" y="794"/>
      <point x="528" y="762"/>
      <point x="484" y="762" type="curve" smooth="yes"/>
      <point x="440" y="762"/>
      <point x="406" y="794"/>
    </contour>
    <contour>
      <point x="145" y="840" type="curve" smooth="yes"/>
      <point x="145" y="882"/>
      <point x="180" y="914"/>
      <point x="224" y="914" type="curve" smooth="yes"/>
      <point x="268" y="914"/>
      <point x="302" y="882"/>
      <point x="302" y="840" type="curve" smooth="yes"/>
      <point x="302" y="798"/>
      <point x="268" y="766"/>
      <point x="224" y="766" type="curve" smooth="yes"/>
      <point x="180" y="766"/>
      <point x="145" y="798"/>
    </contour>
  </outline>
</glyph>
<glyph name="Ccedilla" format="2">
  <advance width="695"/>
  <unicode hex="00C7"/>
  <outline>
    <contour>
      <point x="192" y="350" type="curve" smooth="yes"/>
      <point x="192" y="211"/>
      <point x="296" y="124"/>
      <point x="416" y="124" type="curve" smooth="yes"/>
      <point x="515" y="124"/>
      <point x="583" y="166"/>
      <point x="630" y="220" type="curve"/>
      <point x="630" y="58" type="line"/>
      <point x="573" y="12"/>
      <point x="512" y="-14"/>
      <point x="410" y="-14" type="curve" smooth="yes"/>
      <point x="194" y="-14"/>
      <point x="36" y="134"/>
      <point x="36" y="350" type="curve" smooth="yes"/>
      <point x="36" y="566"/>
      <point x="194" y="714"/>
      <point x="410" y="714" type="curve" smooth="yes"/>
      <point x="512" y="714"/>
      <point x="573" y="688"/>
      <point x="630" y="642" type="curve"/>
      <point x="630" y="480" type="line"/>
      <point x="583" y="534"/>
      <point x="515" y="576"/>
      <point x="416" y="576" type="curve" smooth="yes"/>
      <point x="296" y="576"/>
      <point x="192" y="489"/>
    </contour>
    <contour>
      <point x="364" y="52" type="line"/>
      <point x="460" y="49" type="line"/>
      <point x="380" y="-70" type="line"/>
      <point x="388" y="-68"/>
      <point x="398" y="-68"/>
      <point x="408" y="-68" type="curve" smooth="yes"/>
      <point x="446" y="-68"/>
      <point x="494" y="-97"/>
      <point x="494" y="-158" type="curve" smooth="yes"/>
      <point x="494" y="-226"/>
      <point x="431" y="-262"/>
      <point x="371" y="-262" type="curve" smooth="yes"/>
      <point x="321" y="-262"/>
      <point x="284" y="-254"/>
      <point x="242" y="-224" type="curve"/>
      <point x="285" y="-164" type="line"/>
      <point x="308" y="-182"/>
      <point x="335" y="-188"/>
      <point x="357" y="-188" type="curve" smooth="yes"/>
      <point x="391" y="-188"/>
      <point x="410" y="-176"/>
      <point x="410" y="-152" type="curve" smooth="yes"/>
      <point x="410" y="-126"/>
      <point x="384" y="-118"/>
      <point x="352" y="-118" type="curve" smooth="yes"/>
      <point x="342" y="-118"/>
      <point x="308" y="-122"/>
      <point x="277" y="-136" type="curve"/>
    </contour>
  </outline>
</glyph>
<glyph name="Ecircumflex" format="2">
  <advance width="587"/>
  <unicode hex="00CA"/>
  <outline>
    <contour>
      <point x="168" y="0" type="line"/>
      <point x="168" y="122" type="line"/>
      <point x="522" y="122" type="line"/>
      <point x="522" y="0" type="line"/>
    </contour>
    <contour>
      <point x="168" y="578" type="line"/>
      <point x="168" y="700" type="line"/>
      <point x="522" y="700" type="line"/>
      <point x="522" y="578" type="line"/>
    </contour>
    <contour>
      <point x="168" y="312" type="line"/>
      <point x="168" y="431" type="line"/>
      <point x="502" y="431" type="line"/>
      <point x="502" y="312" type="line"/>
    </contour>
    <contour>
      <point x="76" y="700" type="line"/>
      <point x="216" y="700" type="line"/>
      <point x="216" y="0" type="line"/>
      <point x="76" y="0" type="line"/>
    </contour>
    <contour>
      <point x="313" y="863" type="line"/>
      <point x="216" y="774" type="line"/>
      <point x="126" y="836" type="line"/>
      <point x="313" y="976" type="line"/>
      <point x="499" y="836" type="line"/>
      <point x="410" y="774" type="line"/>
    </contour>
  </outline>
</glyph>
<glyph name="Edieresis" format="2">
  <advance width="587"/>
  <unicode hex="00CB"/>
  <outline>
    <contour>
      <point x="168" y="0" type="line"/>
      <point x="168" y="122" type="line"/>
      <point x="522" y="122" type="line"/>
      <point x="522" y="0" type="line"/>
    </contour>
    <contour>
      <point x="168" y="578" type="line"/>
      <point x="168" y="700" type="line"/>
      <point x="522" y="700" type="line"/>
      <point x="522" y="578" type="line"/>
    </contour>
    <contour>
      <point x="168" y="312" type="line"/>
      <point x="168" y="431" type="line"/>
      <point x="502" y="431" type="line"/>
      <point x="502" y="312" type="line"/>
    </contour>
    <contour>
      <point x="76" y="700" type="line"/>
      <point x="216" y="700" type="line"/>
      <point x="216" y="0" type="line"/>
      <point x="76" y="0" type="line"/>
    </contour>
    <contour>
      <point x="342" y="860" type="curve" smooth="yes"/>
      <point x="342" y="902"/>
      <point x="376" y="934"/>
      <point x="420" y="934" type="curve" smooth="yes"/>
      <point x="464" y="934"/>
      <point x="498" y="902"/>
      <point x="498" y="860" type="curve" smooth="yes"/>
      <point x="498" y="818"/>
      <point x="464" y="786"/>
      <point x="420" y="786" type="curve" smooth="yes"/>
      <point x="376" y="786"/>
      <point x="342" y="818"/>
    </contour>
    <contour>
      <point x="111" y="860" type="curve" smooth="yes"/>
      <point x="111" y="902"/>
      <point x="146" y="934"/>
      <point x="190" y="934" type="curve" smooth="yes"/>
      <point x="234" y="934"/>
      <point x="268" y="902"/>
      <point x="268" y="860" type="curve" smooth="yes"/>
      <point x="268" y="818"/>
      <point x="234" y="786"/>
      <point x="190" y="786" type="curve" smooth="yes"/>
      <point x="146" y="786"/>
      <point x="111" y="818"/>
    </contour>
  </outline>
</glyph>
<glyph name="Icircumflex" format="2">
  <advance width="297"/>
  <unicode hex="00CE"/>
  <outline>
    <contour>
      <point x="76" y="700" type="line"/>
      <point x="222" y="700" type="line"/>
      <point x="222" y="0" type="line"/>
      <point x="76" y="0" type="line"/>
    </contour>
    <contour>
      <point x="148" y="863" type="line"/>
      <point x="52" y="774" type="line"/>
      <point x="-38" y="836" type="line"/>
      <point x="148" y="976" type="line"/>
      <point x="334" y="836" type="line"/>
      <point x="246" y="774" type="line"/>
    </contour>
  </outline>
</glyph>
<glyph name="Idieresis" format="2">
  <advance width="297"/>
  <unicode hex="00CF"/>
  <outline>
    <contour>
      <point x="76" y="700" type="line"/>
      <point x="222" y="700" type="line"/>
      <point x="222" y="0" type="line"/>
      <point x="76" y="0" type="line"/>
    </contour>
    <contour>
      <point x="186" y="848" type="curve" smooth="yes"/>
      <point x="186" y="890"/>
      <point x="220" y="922"/>
      <point x="264" y="922" type="curve" smooth="yes"/>
      <point x="308" y="922"/>
      <point x="342" y="890"/>
      <point x="342" y="848" type="curve" smooth="yes"/>
      <point x="342" y="806"/>
      <point x="308" y="774"/>
      <point x="264" y="774" type="curve" smooth="yes"/>
      <point x="220" y="774"/>
      <point x="186" y="806"/>
    </contour>
    <contour>
      <point x="-44" y="848" type="curve" smooth="yes"/>
      <point x="-44" y="890"/>
      <point x="-11" y="922"/>
      <point x="33" y="922" type="curve" smooth="yes"/>
      <point x="77" y="922"/>
      <point x="112" y="890"/>
      <point x="112" y="848" type="curve" smooth="yes"/>
      <point x="112" y="806"/>
      <point x="77" y="774"/>
      <point x="33" y="774" type="curve" smooth="yes"/>
      <point x="-11" y="774"/>
      <point x="-44" y="806"/>
    </contour>
  </outline>
</glyph>
<glyph name="Ntilde" format="2">
  <advance width="787"/>
  <unicode hex="00D1"/>
  <outline>
    <contour>
      <point x="573" y="700" type="line"/>
      <point x="712" y="700" type="line"/>
      <point x="712" y="-35" type="line"/>
      <point x="216" y="432" type="line"/>
      <point x="216" y="0" type="line"/>
      <point x="76" y="0" type="line"/>
      <point x="76" y="735" type="line"/>
      <point x="573" y="268" type="line"/>
    </contour>
    <contour>
      <point x="184" y="820" type="line"/>
      <point x="194" y="869"/>
      <point x="242" y="912"/>
      <point x="300" y="912" type="curve" smooth="yes"/>
      <point x="366" y="912"/>
      <point x="376" y="862"/>
      <point x="432" y="862" type="curve" smooth="yes"/>
      <point x="455" y="862"/>
      <point x="475" y="881"/>
      <point x="495" y="913" type="curve"/>
      <point x="558" y="848" type="line"/>
      <point x="542" y="811"/>
      <point x="490" y="766"/>
      <point x="432" y="766" type="curve" smooth="yes"/>
      <point x="377" y="766"/>
      <point x="346" y="817"/>
      <point x="298" y="817" type="curve" smooth="yes"/>
      <point x="259" y="817"/>
      <point x="250" y="781"/>
      <point x="250" y="766" type="curve"/>
    </contour>
  </outline>
</glyph>
<glyph name="Oacute" format="2">
  <advance width="811"/>
  <unicode hex="00D3"/>
  <outline>
    <contour>
      <point x="188" y="350" type="curve" smooth="yes"/>
      <point x="188" y="216"/>
      <point x="277" y="120"/>
      <point x="406" y="120" type="curve" smooth="yes"/>
      <point x="535" y="120"/>
      <point x="624" y="216"/>
      <point x="624" y="350" type="curve" smooth="yes"/>
      <point x="624" y="484"/>
      <point x="538" y="580"/>
      <point x="406" y="580" type="curve" smooth="yes"/>
      <point x="277" y="580"/>
      <point x="188" y="484"/>
    </contour>
    <contour>
      <point x="36" y="350" type="curve" smooth="yes"/>
      <point x="36" y="562"/>
      <point x="196" y="714"/>
      <point x="406" y="714" type="curve" smooth="yes"/>
      <point x="618" y="714"/>
      <point x="776" y="562"/>
      <point x="776" y="350" type="curve" smooth="yes"/>
      <point x="776" y="138"/>
      <point x="621" y="-18"/>
      <point x="406" y="-18" type="curve" smooth="yes"/>
      <point x="191" y="-18"/>
      <point x="36" y="138"/>
    </contour>
    <contour>
      <point x="556" y="928" type="line"/>
      <point x="376" y="778" type="line"/>
      <point x="304" y="818" type="line"/>
      <point x="454" y="978" type="line"/>
    </contour>
  </outline>
</glyph>
<glyph name="Ocircumflex" format="2">
  <advance width="811"/>
  <unicode hex="00D4"/>
  <outline>
    <contour>
      <point x="188" y="350" type="curve" smooth="yes"/>
      <point x="188" y="216"/>
      <point x="277" y="120"/>
      <point x="406" y="120" type="curve" smooth="yes"/>
      <point x="535" y="120"/>
      <point x="624" y="216"/>
      <point x="624" y="350" type="curve" smooth="yes"/>
      <point x="624" y="484"/>
      <point x="538" y="580"/>
      <point x="406" y="580" type="curve" smooth="yes"/>
      <point x="277" y="580"/>
      <point x="188" y="484"/>
    </contour>
    <contour>
      <point x="36" y="350" type="curve" smooth="yes"/>
      <point x="36" y="562"/>
      <point x="196" y="714"/>
      <point x="406" y="714" type="curve" smooth="yes"/>
      <point x="618" y="714"/>
      <point x="776" y="562"/>
      <point x="776" y="350" type="curve" smooth="yes"/>
      <point x="776" y="138"/>
      <point x="621" y="-18"/>
      <point x="406" y="-18" type="curve" smooth="yes"/>
      <point x="191" y="-18"/>
      <point x="36" y="138"/>
    </contour>
    <contour>
      <point x="410" y="863" type="line"/>
      <point x="313" y="774" type="line"/>
      <point x="223" y="836" type="line"/>
      <point x="410" y="976" type="line"/>
      <point x="596" y="836" type="line"/>
      <point x="507" y="774" type="line"/>
    </contour>
  </outline>
</glyph>
<glyph name="Otilde" format="2">
  <advance width="811"/>
  <unicode hex="00D5"/>
  <outline>
    <contour>
      <point x="188" y="350" type="curve" smooth="yes"/>
      <point x="188" y="216"/>
      <point x="277" y="120"/>
      <point x="406" y="120" type="curve" smooth="yes"/>
      <point x="535" y="120"/>
      <point x="624" y="216"/>
      <point x="624" y="350" type="curve" smooth="yes"/>
      <point x="624" y="484"/>
      <point x="538" y="580"/>
      <point x="406" y="580" type="curve" smooth="yes"/>
      <point x="277" y="580"/>
      <point x="188" y="484"/>
    </contour>
    <contour>
      <point x="36" y="350" type="curve" smooth="yes"/>
      <point x="36" y="562"/>
      <point x="196" y="714"/>
      <point x="406" y="714" type="curve" smooth="yes"/>
      <point x="618" y="714"/>
      <point x="776" y="562"/>
      <point x="776" y="350" type="curve" smooth="yes"/>
      <point x="776" y="138"/>
      <point x="621" y="-18"/>
      <point x="406" y="-18" type="curve" smooth="yes"/>
      <point x="191" y="-18"/>
      <point x="36" y="138"/>
    </contour>
    <contour>
      <point x="236" y="820" type="line"/>
      <point x="246" y="869"/>
      <point x="294" y="912"/>
      <point x="352" y="912" type="curve" smooth="yes"/>
      <point x="418" y="912"/>
      <point x="428" y="862"/>
      <point x="484" y="862" type="curve" smooth="yes"/>
      <point x="507" y="862"/>
      <point x="527" y="881"/>
      <point x="547" y="913" type="curve"/>
      <point x="610" y="848" type="line"/>
      <point x="594" y="811"/>
      <point x="542" y="766"/>
      <point x="484" y="766" type="curve" smooth="yes"/>
      <point x="429" y="766"/>
      <point x="398" y="817"/>
      <point x="350" y="817" type="curve" smooth="yes"/>
      <point x="311" y="817"/>
      <point x="302" y="781"/>
      <point x="302" y="766" type="curve"/>
    </contour>
  </outline>
</glyph>
<glyph name="Odieresis" format="2">
  <advance width="811"/>
  <unicode hex="00D6"/>
  <outline>
    <contour>
      <point x="188" y="350" type="curve" smooth="yes"/>
      <point x="188" y="216"/>
      <point x="277" y="120"/>
      <point x="406" y="120" type="curve" smooth="yes"/>
      <point x="535" y="120"/>
      <point x="624" y="216"/>
      <point x="624" y="350" type="curve" smooth="yes"/>
      <point x="624" y="484"/>
      <point x="538" y="580"/>
      <point x="406" y="580" type="curve" smooth="yes"/>
      <point x="277" y="580"/>
      <point x="188" y="484"/>
    </contour>
    <contour>
      <point x="36" y="350" type="curve" smooth="yes"/>
      <point x="36" y="562"/>
      <point x="196" y="714"/>
      <point x="406" y="714" type="curve" smooth="yes"/>
      <point x="618" y="714"/>
      <point x="776" y="562"/>
      <point x="776" y="350" type="curve" smooth="yes"/>
      <point x="776" y="138"/>
      <point x="621" y="-18"/>
      <point x="406" y="-18" type="curve" smooth="yes"/>
      <point x="191" y="-18"/>
      <point x="36" y="138"/>
    </contour>
    <contour>
      <point x="443" y="848" type="curve" smooth="yes"/>
      <point x="443" y="890"/>
      <point x="477" y="922"/>
      <point x="521" y="922" type="curve" smooth="yes"/>
      <point x="565" y="922"/>
      <point x="600" y="890"/>
      <point x="600" y="848" type="curve" smooth="yes"/>
      <point x="600" y="806"/>
      <point x="565" y="774"/>
      <point x="521" y="774" type="curve" smooth="yes"/>
      <point x="477" y="774"/>
      <point x="443" y="806"/>
    </contour>
    <contour>
      <point x="212" y="848" type="curve" smooth="yes"/>
      <point x="212" y="890"/>
      <point x="247" y="922"/>
      <point x="291" y="922" type="curve" smooth="yes"/>
      <point x="335" y="922"/>
      <point x="369" y="890"/>
      <point x="369" y="848" type="curve" smooth="yes"/>
      <point x="369" y="806"/>
      <point x="335" y="774"/>
      <point x="291" y="774" type="curve" smooth="yes"/>
      <point x="247" y="774"/>
      <point x="212" y="806"/>
    </contour>
  </outline>
</glyph>
<glyph name="Ugrave" format="2">
  <advance width="678"/>
  <unicode hex="00D9"/>
  <outline>
    <contour>
      <point x="71" y="700" type="line"/>
      <point x="214" y="700" type="line"/>
      <point x="214" y="238" type="line" smooth="yes"/>
      <point x="214" y="160"/>
      <point x="257" y="107"/>
      <point x="339" y="107" type="curve" smooth="yes"/>
      <point x="421" y="107"/>
      <point x="464" y="160"/>
      <point x="464" y="238" type="curve" smooth="yes"/>
      <point x="464" y="700" type="line"/>
      <point x="608" y="700" type="line"/>
      <point x="608" y="230" type="line" smooth="yes"/>
      <point x="608" y="65"/>
      <point x="493" y="-24"/>
      <point x="339" y="-24" type="curve" smooth="yes"/>
      <point x="185" y="-24"/>
      <point x="71" y="65"/>
      <point x="71" y="230" type="curve" smooth="yes"/>
    </contour>
    <contour>
      <point x="187" y="924" type="line"/>
      <point x="291" y="974" type="line"/>
      <point x="441" y="814" type="line"/>
      <point x="367" y="774" type="line"/>
    </contour>
  </outline>
</glyph>
<glyph name="Udieresis" format="2">
  <advance width="678"/>
  <unicode hex="00DC"/>
  <outline>
    <contour>
      <point x="71" y="700" type="line"/>
      <point x="214" y="700" type="line"/>
      <point x="214" y="238" type="line" smooth="yes"/>
      <point x="214" y="160"/>
      <point x="257" y="107"/>
      <point x="339" y="107" type="curve" smooth="yes"/>
      <point x="421" y="107"/>
      <point x="464" y="160"/>
      <point x="464" y="238" type="curve" smooth="yes"/>
      <point x="464" y="700" type="line"/>
      <point x="608" y="700" type="line"/>
      <point x="608" y="230" type="line" smooth="yes"/>
      <point x="608" y="65"/>
      <point x="493" y="-24"/>
      <point x="339" y="-24" type="curve" smooth="yes"/>
      <point x="185" y="-24"/>
      <point x="71" y="65"/>
      <point x="71" y="230" type="curve" smooth="yes"/>
    </contour>
    <contour>
      <point x="390" y="848" type="curve" smooth="yes"/>
      <point x="390" y="890"/>
      <point x="424" y="922"/>
      <point x="468" y="922" type="curve" smooth="yes"/>
      <point x="512" y="922"/>
      <point x="546" y="890"/>
      <point x="546" y="848" type="curve" smooth="yes"/>
      <point x="546" y="806"/>
      <point x="512" y="774"/>
      <point x="468" y="774" type="curve" smooth="yes"/>
      <point x="424" y="774"/>
      <point x="390" y="806"/>
    </contour>
    <contour>
      <point x="133" y="848" type="curve" smooth="yes"/>
      <point x="133" y="890"/>
      <point x="167" y="922"/>
      <point x="211" y="922" type="curve" smooth="yes"/>
      <point x="255" y="922"/>
      <point x="289" y="890"/>
      <point x="289" y="848" type="curve" smooth="yes"/>
      <point x="289" y="806"/>
      <point x="255" y="774"/>
      <point x="211" y="774" type="curve" smooth="yes"/>
      <point x="167" y="774"/>
      <point x="133" y="806"/>
    </contour>
  </outline>
</glyph>
<glyph name="germandbls" format="2">
  <advance width="591"/>
  <unicode hex="00DF"/>
  <outline>
    <contour>
      <point x="364" y="-12" type="curve" smooth="yes"/>
      <point x="308" y="-12"/>
      <point x="255" y="8"/>
      <point x="221" y="36" type="curve"/>
      <point x="258" y="136" type="line"/>
      <point x="286" y="112"/>
      <point x="322" y="96"/>
      <point x="356" y="96" type="curve" smooth="yes"/>
      <point x="410" y="96"/>
      <point x="448" y="136"/>
      <point x="448" y="186" type="curve" smooth="yes"/>
      <point x="448" y="288"/>
      <point x="290" y="291"/>
      <point x="290" y="391" type="curve" smooth="yes"/>
      <point x="290" y="471"/>
      <point x="388" y="504"/>
      <point x="388" y="598" type="curve" smooth="yes"/>
      <point x="388" y="656"/>
      <point x="346" y="680"/>
      <point x="292" y="680" type="curve" smooth="yes"/>
      <point x="226" y="680"/>
      <point x="184" y="644"/>
      <point x="184" y="562" type="curve" smooth="yes"/>
      <point x="185" y="-2" type="line"/>
      <point x="54" y="-2" type="line"/>
      <point x="54" y="569" type="line" smooth="yes"/>
      <point x="54" y="711"/>
      <point x="145" y="796"/>
      <point x="299" y="796" type="curve" smooth="yes"/>
      <point x="425" y="796"/>
      <point x="522" y="736"/>
      <point x="522" y="620" type="curve" smooth="yes"/>
      <point x="522" y="492"/>
      <point x="429" y="468"/>
      <point x="429" y="402" type="curve" smooth="yes"/>
      <point x="429" y="336"/>
      <point x="584" y="334"/>
      <point x="584" y="190" type="curve" smooth="yes"/>
      <point x="584" y="78"/>
      <point x="480" y="-12"/>
    </contour>
  </outline>
</glyph>
<glyph name="atilde" format="2">
  <advance width="526"/>
  <unicode hex="00E3"/>
  <outline>
    <contour>
      <point x="157" y="137" type="curve" smooth="yes"/>
      <point x="157" y="99"/>
      <point x="185" y="80"/>
      <point x="232" y="80" type="curve" smooth="yes"/>
      <point x="294" y="80"/>
      <point x="345" y="106"/>
      <point x="345" y="184" type="curve"/>
      <point x="361" y="130" type="line"/>
      <point x="361" y="41"/>
      <point x="285" y="-10"/>
      <point x="190" y="-10" type="curve" smooth="yes"/>
      <point x="91" y="-10"/>
      <point x="26" y="41"/>
      <point x="26" y="127" type="curve" smooth="yes"/>
      <point x="26" y="225"/>
      <point x="109" y="281"/>
      <point x="224" y="281" type="curve" smooth="yes"/>
      <point x="298" y="281"/>
      <point x="360" y="248"/>
      <point x="378" y="228" type="curve"/>
      <point x="378" y="164" type="line"/>
      <point x="340" y="192"/>
      <point x="304" y="206"/>
      <point x="250" y="206" type="curve" smooth="yes"/>
      <point x="190" y="206"/>
      <point x="157" y="179"/>
    </contour>
    <contour>
      <point x="115" y="328" type="curve"/>
      <point x="68" y="418" type="line"/>
      <point x="116" y="443"/>
      <point x="185" y="472"/>
      <point x="268" y="472" type="curve" smooth="yes"/>
      <point x="386" y="472"/>
      <point x="471" y="419"/>
      <point x="471" y="326" type="curve" smooth="yes"/>
      <point x="471" y="0" type="line"/>
      <point x="345" y="0" type="line"/>
      <point x="345" y="305" type="line" smooth="yes"/>
      <point x="345" y="346"/>
      <point x="309" y="370"/>
      <point x="259" y="370" type="curve" smooth="yes"/>
      <point x="193" y="370"/>
      <point x="137" y="342"/>
    </contour>
    <contour>
      <point x="81" y="590" type="line"/>
      <point x="91" y="639"/>
      <point x="138" y="680"/>
      <point x="196" y="680" type="curve" smooth="yes"/>
      <point x="262" y="680"/>
      <point x="272" y="630"/>
      <point x="328" y="630" type="curve" smooth="yes"/>
      <point x="351" y="630"/>
      <point x="371" y="649"/>
      <point x="391" y="681" type="curve"/>
      <point x="454" y="616" type="line"/>
      <point x="438" y="579"/>
      <point x="386" y="534"/>
      <point x="328" y="534" type="curve" smooth="yes"/>
      <point x="273" y="534"/>
      <point x="242" y="586"/>
      <point x="194" y="586" type="curve" smooth="yes"/>
      <point x="155" y="586"/>
      <point x="147" y="550"/>
      <point x="147" y="535" type="curve"/>
    </contour>
  </outline>
</glyph>
<glyph name="aring" format="2">
  <advance width="526"/>
  <unicode hex="00E5"/>
  <outline>
    <contour>
      <point x="157" y="137" type="curve" smooth="yes"/>
      <point x="157" y="99"/>
      <point x="185" y="80"/>
      <point x="232" y="80" type="curve" smooth="yes"/>
      <point x="294" y="80"/>
      <point x="345" y="106"/>
      <point x="345" y="184" type="curve"/>
      <point x="361" y="130" type="line"/>
      <point x="361" y="41"/>
      <point x="285" y="-10"/>
      <point x="190" y="-10" type="curve" smooth="yes"/>
      <point x="91" y="-10"/>
      <point x="26" y="41"/>
      <point x="26" y="127" type="curve" smooth="yes"/>
      <point x="26" y="225"/>
      <point x="109" y="281"/>
      <point x="224" y="281" type="curve" smooth="yes"/>
      <point x="298" y="281"/>
      <point x="360" y="248"/>
      <point x="378" y="228" type="curve"/>
      <point x="378" y="164" type="line"/>
      <point x="340" y="192"/>
      <point x="304" y="206"/>
      <point x="250" y="206" type="curve" smooth="yes"/>
      <point x="190" y="206"/>
      <point x="157" y="179"/>
    </contour>
    <contour>
      <point x="115" y="328" type="curve"/>
      <point x="68" y="418" type="line"/>
      <point x="116" y="443"/>
      <point x="185" y="472"/>
      <point x="268" y="472" type="curve" smooth="yes"/>
      <point x="386" y="472"/>
      <point x="471" y="419"/>
      <point x="471" y="326" type="curve" smooth="yes"/>
      <point x="471" y="0" type="line"/>
      <point x="345" y="0" type="line"/>
      <point x="345" y="305" type="line" smooth="yes"/>
      <point x="345" y="346"/>
      <point x="309" y="370"/>
      <point x="259" y="370" type="curve" smooth="yes"/>
      <point x="193" y="370"/>
      <point x="137" y="342"/>
    </contour>
    <contour>
      <point x="150" y="644" type="curve" smooth="yes"/>
      <point x="150" y="710"/>
      <point x="204" y="754"/>
      <point x="268" y="754" type="curve" smooth="yes"/>
      <point x="332" y="754"/>
      <point x="386" y="710"/>
      <point x="386" y="644" type="curve" smooth="yes"/>
      <point x="386" y="578"/>
      <point x="332" y="532"/>
      <point x="268" y="532" type="curve" smooth="yes"/>
      <point x="204" y="532"/>
      <point x="150" y="578"/>
    </contour>
    <contour>
      <point x="220" y="644" type="curve" smooth="yes"/>
      <point x="220" y="613"/>
      <point x="243" y="594"/>
      <point x="268" y="594" type="curve" smooth="yes"/>
      <point x="293" y="594"/>
      <point x="315" y="613"/>
      <point x="315" y="644" type="curve" smooth="yes"/>
      <point x="315" y="675"/>
      <point x="293" y="693"/>
      <point x="268" y="693" type="curve" smooth="yes"/>
      <point x="243" y="693"/>
      <point x="220" y="675"/>
    </contour>
  </outline>
</glyph>
<glyph name="ae" format="2">
  <advance width="874"/>
  <unicode hex="00E6"/>
  <outline>
    <contour>
      <point x="214" y="-10" type="curve" smooth="yes"/>
      <point x="96" y="-10"/>
      <point x="26" y="41"/>
      <point x="26" y="127" type="curve" smooth="yes"/>
      <point x="26" y="219"/>
      <point x="106" y="281"/>
      <point x="224" y="281" type="curve" smooth="yes"/>
      <point x="281" y="281"/>
      <point x="328" y="268"/>
      <point x="408" y="226" type="curve"/>
      <point x="345" y="226" type="line"/>
      <point x="345" y="288" type="line" smooth="yes"/>
      <point x="345" y="342"/>
      <point x="315" y="370"/>
      <point x="259" y="370" type="curve" smooth="yes"/>
      <point x="215" y="370"/>
      <point x="153" y="352"/>
      <point x="115" y="328" type="curve"/>
      <point x="68" y="418" type="line"/>
      <point x="136" y="454"/>
      <point x="202" y="472"/>
      <point x="268" y="472" type="curve" smooth="yes"/>
      <point x="364" y="472"/>
      <point x="417" y="435"/>
      <point x="427" y="359" type="curve"/>
      <point x="416" y="359" type="line"/>
      <point x="456" y="431"/>
      <point x="529" y="470"/>
      <point x="620" y="470" type="curve" smooth="yes"/>
      <point x="756" y="470"/>
      <point x="840" y="380"/>
      <point x="840" y="236" type="curve" smooth="yes"/>
      <point x="840" y="222"/>
      <point x="839" y="208"/>
      <point x="838" y="202" type="curve"/>
      <point x="463" y="202" type="line"/>
      <point x="484" y="220" type="line"/>
      <point x="487" y="135"/>
      <point x="528" y="89"/>
      <point x="602" y="89" type="curve" smooth="yes"/>
      <point x="656" y="89"/>
      <point x="698" y="112"/>
      <point x="724" y="156" type="curve"/>
      <point x="838" y="120" type="line"/>
      <point x="788" y="33"/>
      <point x="710" y="-10"/>
      <point x="600" y="-10" type="curve" smooth="yes"/>
      <point x="500" y="-10"/>
      <point x="437" y="26"/>
      <point x="402" y="105" type="curve"/>
      <point x="414" y="104" type="line"/>
      <point x="396" y="32"/>
      <point x="321" y="-10"/>
    </contour>
    <contour>
      <point x="232" y="80" type="curve" smooth="yes"/>
      <point x="305" y="80"/>
      <point x="344" y="116"/>
      <point x="350" y="188" type="curve"/>
      <point x="350" y="128" type="line"/>
      <point x="344" y="203" type="line"/>
      <point x="362" y="176" type="line"/>
      <point x="329" y="196"/>
      <point x="290" y="206"/>
      <point x="250" y="206" type="curve" smooth="yes"/>
      <point x="189" y="206"/>
      <point x="157" y="183"/>
      <point x="157" y="137" type="curve" smooth="yes"/>
      <point x="157" y="99"/>
      <point x="180" y="80"/>
    </contour>
    <contour>
      <point x="482" y="237" type="curve"/>
      <point x="463" y="281" type="line"/>
      <point x="723" y="281" type="line"/>
      <point x="700" y="250" type="line"/>
      <point x="702" y="257"/>
      <point x="702" y="258"/>
      <point x="702" y="266" type="curve" smooth="yes"/>
      <point x="702" y="337"/>
      <point x="663" y="378"/>
      <point x="598" y="378" type="curve" smooth="yes"/>
      <point x="526" y="378"/>
      <point x="482" y="327"/>
    </contour>
  </outline>
</glyph>
<glyph name="ccedilla" format="2">
  <advance width="488"/>
  <unicode hex="00E7"/>
  <outline>
    <contour>
      <point x="164" y="230" type="curve" smooth="yes"/>
      <point x="164" y="150"/>
      <point x="222" y="97"/>
      <point x="296" y="97" type="curve" smooth="yes"/>
      <point x="356" y="97"/>
      <point x="414" y="126"/>
      <point x="439" y="170" type="curve"/>
      <point x="439" y="37" type="line"/>
      <point x="407" y="7"/>
      <point x="355" y="-10"/>
      <point x="288" y="-10" type="curve" smooth="yes"/>
      <point x="140" y="-10"/>
      <point x="30" y="87"/>
      <point x="30" y="230" type="curve" smooth="yes"/>
      <point x="30" y="373"/>
      <point x="140" y="470"/>
      <point x="288" y="470" type="curve" smooth="yes"/>
      <point x="355" y="470"/>
      <point x="407" y="451"/>
      <point x="439" y="424" type="curve"/>
      <point x="439" y="290" type="line"/>
      <point x="414" y="334"/>
      <point x="352" y="363"/>
      <point x="296" y="363" type="curve" smooth="yes"/>
      <point x="222" y="363"/>
      <point x="164" y="306"/>
    </contour>
    <contour>
      <point x="244" y="60" type="line"/>
      <point x="338" y="58" type="line"/>
      <point x="259" y="-62" type="line"/>
      <point x="267" y="-60"/>
      <point x="278" y="-58"/>
      <point x="288" y="-58" type="curve" smooth="yes"/>
      <point x="326" y="-58"/>
      <point x="373" y="-89"/>
      <point x="373" y="-150" type="curve" smooth="yes"/>
      <point x="373" y="-218"/>
      <point x="310" y="-254"/>
      <point x="250" y="-254" type="curve" smooth="yes"/>
      <point x="200" y="-254"/>
      <point x="164" y="-245"/>
      <point x="122" y="-215" type="curve"/>
      <point x="164" y="-155" type="line"/>
      <point x="187" y="-173"/>
      <point x="214" y="-180"/>
      <point x="236" y="-180" type="curve" smooth="yes"/>
      <point x="270" y="-180"/>
      <point x="288" y="-167"/>
      <point x="288" y="-143" type="curve" smooth="yes"/>
      <point x="288" y="-117"/>
      <point x="264" y="-110"/>
      <point x="232" y="-110" type="curve" smooth="yes"/>
      <point x="222" y="-110"/>
      <point x="187" y="-112"/>
      <point x="156" y="-126" type="curve"/>
    </contour>
  </outline>
</glyph>
<glyph name="igrave" format="2">
  <advance width="271"/>
  <unicode hex="00EC"/>
  <outline>
    <contour>
      <point x="72" y="460" type="line"/>
      <point x="198" y="460" type="line"/>
      <point x="198" y="0" type="line"/>
      <point x="72" y="0" type="line"/>
    </contour>
    <contour>
      <point x="-38" y="692" type="line"/>
      <point x="64" y="740" type="line"/>
      <point x="214" y="580" type="line"/>
      <point x="142" y="542" type="line"/>
    </contour>
  </outline>
</glyph>
<glyph name="idieresis" format="2">
  <advance width="271"/>
  <unicode hex="00EF"/>
  <outline>
    <contour>
      <point x="72" y="460" type="line"/>
      <point x="198" y="460" type="line"/>
      <point x="198" y="0" type="line"/>
      <point x="72" y="0" type="line"/>
    </contour>
    <contour>
      <point x="173" y="622" type="curve" smooth="yes"/>
      <point x="173" y="664"/>
      <point x="207" y="695"/>
      <point x="251" y="695" type="curve" smooth="yes"/>
      <point x="295" y="695"/>
      <point x="329" y="664"/>
      <point x="329" y="622" type="curve" smooth="yes"/>
      <point x="329" y="580"/>
      <point x="295" y="548"/>
      <point x="251" y="548" type="curve" smooth="yes"/>
      <point x="207" y="548"/>
      <point x="173" y="580"/>
    </contour>
    <contour>
      <point x="-58" y="622" type="curve" smooth="yes"/>
      <point x="-58" y="664"/>
      <point x="-24" y="695"/>
      <point x="20" y="695" type="curve" smooth="yes"/>
      <point x="64" y="695"/>
      <point x="98" y="664"/>
      <point x="98" y="622" type="curve" smooth="yes"/>
      <point x="98" y="580"/>
      <point x="64" y="548"/>
      <point x="20" y="548" type="curve" smooth="yes"/>
      <point x="-24" y="548"/>
      <point x="-58" y="580"/>
    </contour>
  </outline>
</glyph>
<glyph name="eth" format="2">
  <advance width="611"/>
  <unicode hex="00F0"/>
  <outline>
    <contour>
      <point x="304" y="-14" type="curve" smooth="yes"/>
      <point x="156" y="-14"/>
      <point x="50" y="92"/>
      <point x="50" y="241" type="curve" smooth="yes"/>
      <point x="50" y="375"/>
      <point x="136" y="468"/>
      <point x="260" y="468" type="curve" smooth="yes"/>
      <point x="338" y="468"/>
      <point x="409" y="430"/>
      <point x="474" y="356" type="curve"/>
      <point x="430" y="358" type="line"/>
      <point x="368" y="477"/>
      <point x="279" y="578"/>
      <point x="149" y="680" type="curve"/>
      <point x="242" y="750" type="line"/>
      <point x="458" y="548"/>
      <point x="562" y="383"/>
      <point x="562" y="241" type="curve" smooth="yes"/>
      <point x="562" y="93"/>
      <point x="453" y="-14"/>
    </contour>
    <contour>
      <point x="306" y="102" type="curve" smooth="yes"/>
      <point x="378" y="102"/>
      <point x="428" y="156"/>
      <point x="428" y="230" type="curve" smooth="yes"/>
      <point x="428" y="306"/>
      <point x="376" y="360"/>
      <point x="306" y="360" type="curve" smooth="yes"/>
      <point x="236" y="360"/>
      <point x="184" y="306"/>
      <point x="184" y="230" type="curve" smooth="yes"/>
      <point x="184" y="156"/>
      <point x="234" y="102"/>
    </contour>
    <contour>
      <point x="164" y="506" type="line"/>
      <point x="148" y="558" type="line"/>
      <point x="476" y="669" type="line"/>
      <point x="492" y="616" type="line"/>
    </contour>
  </outline>
</glyph>
<glyph name="ograve" format="2">
  <advance width="576"/>
  <unicode hex="00F2"/>
  <outline>
    <contour>
      <point x="33" y="230" type="curve" smooth="yes"/>
      <point x="33" y="373"/>
      <point x="142" y="470"/>
      <point x="288" y="470" type="curve" smooth="yes"/>
      <point x="434" y="470"/>
      <point x="544" y="373"/>
      <point x="544" y="230" type="curve" smooth="yes"/>
      <point x="544" y="87"/>
      <point x="434" y="-10"/>
      <point x="288" y="-10" type="curve" smooth="yes"/>
      <point x="142" y="-10"/>
      <point x="33" y="87"/>
    </contour>
    <contour>
      <point x="166" y="230" type="curve" smooth="yes"/>
      <point x="166" y="152"/>
      <point x="220" y="100"/>
      <point x="288" y="100" type="curve" smooth="yes"/>
      <point x="356" y="100"/>
      <point x="410" y="152"/>
      <point x="410" y="230" type="curve" smooth="yes"/>
      <point x="410" y="308"/>
      <point x="356" y="360"/>
      <point x="288" y="360" type="curve" smooth="yes"/>
      <point x="220" y="360"/>
      <point x="166" y="308"/>
    </contour>
    <contour>
      <point x="128" y="692" type="line"/>
      <point x="232" y="740" type="line"/>
      <point x="382" y="580" type="line"/>
      <point x="308" y="542" type="line"/>
    </contour>
  </outline>
</glyph>
<glyph name="odieresis" format="2">
  <advance width="576"/>
  <unicode hex="00F6"/>
  <outline>
    <contour>
      <point x="33" y="230" type="curve" smooth="yes"/>
      <point x="33" y="373"/>
      <point x="142" y="470"/>
      <point x="288" y="470" type="curve" smooth="yes"/>
      <point x="434" y="470"/>
      <point x="544" y="373"/>
      <point x="544" y="230" type="curve" smooth="yes"/>
      <point x="544" y="87"/>
      <point x="434" y="-10"/>
      <point x="288" y="-10" type="curve" smooth="yes"/>
      <point x="142" y="-10"/>
      <point x="33" y="87"/>
    </contour>
    <contour>
      <point x="166" y="230" type="curve" smooth="yes"/>
      <point x="166" y="152"/>
      <point x="220" y="100"/>
      <point x="288" y="100" type="curve" smooth="yes"/>
      <point x="356" y="100"/>
      <point x="410" y="152"/>
      <point x="410" y="230" type="curve" smooth="yes"/>
      <point x="410" y="308"/>
      <point x="356" y="360"/>
      <point x="288" y="360" type="curve" smooth="yes"/>
      <point x="220" y="360"/>
      <point x="166" y="308"/>
    </contour>
    <contour>
      <point x="326" y="622" type="curve" smooth="yes"/>
      <point x="326" y="664"/>
      <point x="360" y="695"/>
      <point x="404" y="695" type="curve" smooth="yes"/>
      <point x="448" y="695"/>
      <point x="482" y="664"/>
      <point x="482" y="622" type="curve" smooth="yes"/>
      <point x="482" y="580"/>
      <point x="448" y="548"/>
      <point x="404" y="548" type="curve" smooth="yes"/>
      <point x="360" y="548"/>
      <point x="326" y="580"/>
    </contour>
    <contour>
      <point x="95" y="622" type="curve" smooth="yes"/>
      <point x="95" y="664"/>
      <point x="129" y="695"/>
      <point x="173" y="695" type="curve" smooth="yes"/>
      <point x="217" y="695"/>
      <point x="251" y="664"/>
      <point x="251" y="622" type="curve" smooth="yes"/>
      <point x="251" y="580"/>
      <point x="217" y="548"/>
      <point x="173" y="548" type="curve" smooth="yes"/>
      <point x="129" y="548"/>
      <point x="95" y="580"/>
    </contour>
  </outline>
</glyph>
<glyph name="divide" format="2">
  <advance width="634"/>
  <unicode hex="00F7"/>
  <outline>
    <contour>
      <point x="234" y="522" type="curve" smooth="yes"/>
      <point x="234" y="566"/>
      <point x="268" y="604"/>
      <point x="316" y="604" type="curve" smooth="yes"/>
      <point x="364" y="604"/>
      <point x="400" y="566"/>
      <point x="400" y="522" type="curve" smooth="yes"/>
      <point x="400" y="478"/>
      <point x="364" y="441"/>
      <point x="316" y="441" type="curve" smooth="yes"/>
      <point x="268" y="441"/>
      <point x="234" y="478"/>
    </contour>
    <contour>
      <point x="234" y="90" type="curve" smooth="yes"/>
      <point x="234" y="134"/>
      <point x="268" y="171"/>
      <point x="316" y="171" type="curve" smooth="yes"/>
      <point x="364" y="171"/>
      <point x="400" y="134"/>
      <point x="400" y="90" type="curve" smooth="yes"/>
      <point x="400" y="46"/>
      <point x="364" y="8"/>
      <point x="316" y="8" type="curve" smooth="yes"/>
      <point x="268" y="8"/>
      <point x="234" y="46"/>
    </contour>
    <contour>
      <point x="36" y="249" type="line"/>
      <point x="36" y="368" type="line"/>
      <point x="597" y="368" type="line"/>
      <point x="597" y="249" type="line"/>
    </contour>
  </outline>
</glyph>
<glyph name="uacute" format="2">
  <advance width="560"/>
  <unicode hex="00FA"/>
  <outline>
    <contour>
      <point x="366" y="0" type="line"/>
      <point x="366" y="460" type="line"/>
      <point x="496" y="460" type="line"/>
      <point x="496" y="0" type="line"/>
    </contour>
    <contour>
      <point x="199" y="180" type="line" smooth="yes"/>
      <point x="199" y="120"/>
      <point x="220" y="86"/>
      <point x="274" y="86" type="curve" smooth="yes"/>
      <point x="328" y="86"/>
      <point x="366" y="122"/>
      <point x="366" y="180" type="curve"/>
      <point x="398" y="184" type="line"/>
      <point x="398" y="75"/>
      <point x="334" y="-10"/>
      <point x="226" y="-10" type="curve" smooth="yes"/>
      <point x="118" y="-10"/>
      <point x="64" y="51"/>
      <point x="64" y="166" type="curve" smooth="yes"/>
      <point x="64" y="460" type="line"/>
      <point x="199" y="460" type="line"/>
    </contour>
    <contour>
      <point x="417" y="692" type="line"/>
      <point x="237" y="542" type="line"/>
      <point x="164" y="580" type="line"/>
      <point x="314" y="740" type="line"/>
    </contour>
  </outline>
</glyph>
<glyph name="udieresis" format="2">
  <advance width="560"/>
  <unicode hex="00FC"/>
  <outline>
    <contour>
      <point x="366" y="0" type="line"/>
      <point x="366" y="460" type="line"/>
      <point x="496" y="460" type="line"/>
      <point x="496" y="0" type="line"/>
    </contour>
    <contour>
      <point x="199" y="180" type="line" smooth="yes"/>
      <point x="199" y="120"/>
      <point x="220" y="86"/>
      <point x="274" y="86" type="curve" smooth="yes"/>
      <point x="328" y="86"/>
      <point x="366" y="122"/>
      <point x="366" y="180" type="curve"/>
      <point x="398" y="184" type="line"/>
      <point x="398" y="75"/>
      <point x="334" y="-10"/>
      <point x="226" y="-10" type="curve" smooth="yes"/>
      <point x="118" y="-10"/>
      <point x="64" y="51"/>
      <point x="64" y="166" type="curve" smooth="yes"/>
      <point x="64" y="460" type="line"/>
      <point x="199" y="460" type="line"/>
    </contour>
    <contour>
      <point x="318" y="616" type="curve" smooth="yes"/>
      <point x="318" y="658"/>
      <point x="352" y="690"/>
      <point x="396" y="690" type="curve" smooth="yes"/>
      <point x="440" y="690"/>
      <point x="474" y="658"/>
      <point x="474" y="616" type="curve" smooth="yes"/>
      <point x="474" y="574"/>
      <point x="440" y="542"/>
      <point x="396" y="542" type="curve" smooth="yes"/>
      <point x="352" y="542"/>
      <point x="318" y="574"/>
    </contour>
    <contour>
      <point x="87" y="616" type="curve" smooth="yes"/>
      <point x="87" y="658"/>
      <point x="121" y="690"/>
      <point x="165" y="690" type="curve" smooth="yes"/>
      <point x="209" y="690"/>
      <point x="243" y="658"/>
      <point x="243" y="616" type="curve" smooth="yes"/>
      <point x="243" y="574"/>
      <point x="209" y="542"/>
      <point x="165" y="542" type="curve" smooth="yes"/>
      <point x="121" y="542"/>
      <point x="87" y="574"/>
    </contour>
  </outline>
</glyph>
<glyph name="yacute" format="2">
  <advance width="496"/>
  <unicode hex="00FD"/>
  <outline>
    <contour>
      <point x="504" y="460" type="line"/>
      <point x="204" y="-220" type="line"/>
      <point x="70" y="-220" type="line"/>
      <point x="186" y="46" type="line"/>
      <point x="-6" y="460" type="line"/>
      <point x="139" y="460" type="line"/>
      <point x="286" y="94" type="line"/>
      <point x="222" y="96" type="line"/>
      <point x="368" y="460" type="line"/>
    </contour>
    <contour>
      <point x="400" y="692" type="line"/>
      <point x="220" y="542" type="line"/>
      <point x="146" y="580" type="line"/>
      <point x="296" y="740" type="line"/>
    </contour>
  </outline>
</glyph>
<glyph name="ydieresis" format="2">
  <advance width="496"/>
  <unicode hex="00FF"/>
  <outline>
    <contour>
      <point x="504" y="460" type="line"/>
      <point x="204" y="-220" type="line"/>
      <point x="70" y="-220" type="line"/>
      <point x="186" y="46" type="line"/>
      <point x="-6" y="460" type="line"/>
      <point x="139" y="460" type="line"/>
      <point x="286" y="94" type="line"/>
      <point x="222" y="96" type="line"/>
      <point x="368" y="460" type="line"/>
    </contour>
    <contour>
      <point x="286" y="604" type="curve" smooth="yes"/>
      <point x="286" y="646"/>
      <point x="320" y="678"/>
      <point x="364" y="678" type="curve" smooth="yes"/>
      <point x="408" y="678"/>
      <point x="442" y="646"/>
      <point x="442" y="604" type="curve" smooth="yes"/>
      <point x="442" y="562"/>
      <point x="408" y="530"/>
      <point x="364" y="530" type="curve" smooth="yes"/>
      <point x="320" y="530"/>
      <point x="286" y="562"/>
    </contour>
    <contour>
      <point x="55" y="604" type="curve" smooth="yes"/>
      <point x="55" y="646"/>
      <point x="90" y="678"/>
      <point x="134" y="678" type="curve" smooth="yes"/>
      <point x="178" y="678"/>
      <point x="212" y="646"/>
      <point x="212" y="604" type="curve" smooth="yes"/>
      <point x="212" y="562"/>
      <point x="178" y="530"/>
      <point x="134" y="530" type="curve" smooth="yes"/>
      <point x="90" y="530"/>
      <point x="55" y="562"/>
    </contour>
  </outline>
</glyph>
<glyph name="Amacron" format="2">
  <advance width="712"/>
  <unicode hex="0100"/>
  <outline>
    <contour>
      <point x="173" y="158" type="line"/>
      <point x="190" y="272" type="line"/>
      <point x="526" y="272" type="line"/>
      <point x="543" y="158" type="line"/>
    </contour>
    <contour>
      <point x="356" y="472" type="line"/>
      <point x="252" y="231" type="line"/>
      <point x="255" y="199" type="line"/>
      <point x="164" y="0" type="line"/>
      <point x="1" y="0" type="line"/>
      <point x="356" y="742" type="line"/>
      <point x="712" y="0" type="line"/>
      <point x="549" y="0" type="line"/>
      <point x="460" y="192" type="line"/>
      <point x="461" y="229" type="line"/>
    </contour>
    <contour>
      <point x="174" y="802" type="line"/>
      <point x="174" y="916" type="line"/>
      <point x="538" y="916" type="line"/>
      <point x="538" y="802" type="line"/>
    </contour>
  </outline>
</glyph>
<glyph name="amacron" format="2">
  <advance width="526"/>
  <unicode hex="0101"/>
  <outline>
    <contour>
      <point x="157" y="137" type="curve" smooth="yes"/>
      <point x="157" y="99"/>
      <point x="185" y="80"/>
      <point x="232" y="80" type="curve" smooth="yes"/>
      <point x="294" y="80"/>
      <point x="345" y="106"/>
      <point x="345" y="184" type="curve"/>
      <point x="361" y="130" type="line"/>
      <point x="361" y="41"/>
      <point x="285" y="-10"/>
      <point x="190" y="-10" type="curve" smooth="yes"/>
      <point x="91" y="-10"/>
      <point x="26" y="41"/>
      <point x="26" y="127" type="curve" smooth="yes"/>
      <point x="26" y="225"/>
      <point x="109" y="281"/>
      <point x="224" y="281" type="curve" smooth="yes"/>
      <point x="298" y="281"/>
      <point x="360" y="248"/>
      <point x="378" y="228" type="curve"/>
      <point x="378" y="164" type="line"/>
      <point x="340" y="192"/>
      <point x="304" y="206"/>
      <point x="250" y="206" type="curve" smooth="yes"/>
      <point x="190" y="206"/>
      <point x="157" y="179"/>
    </contour>
    <contour>
      <point x="115" y="328" type="curve"/>
      <point x="68" y="418" type="line"/>
      <point x="116" y="443"/>
      <point x="185" y="472"/>
      <point x="268" y="472" type="curve" smooth="yes"/>
      <point x="386" y="472"/>
      <point x="471" y="419"/>
      <point x="471" y="326" type="curve" smooth="yes"/>
      <point x="471" y="0" type="line"/>
      <point x="345" y="0" type="line"/>
      <point x="345" y="305" type="line" smooth="yes"/>
      <point x="345" y="346"/>
      <point x="309" y="370"/>
      <point x="259" y="370" type="curve" smooth="yes"/>
      <point x="193" y="370"/>
      <point x="137" y="342"/>
    </contour>
    <contour>
      <point x="85" y="544" type="line"/>
      <point x="85" y="658" type="line"/>
      <point x="450" y="658" type="line"/>
      <point x="450" y="544" type="line"/>
    </contour>
  </outline>
</glyph>
<glyph name="Abreve" format="2">
  <advance width="712"/>
  <unicode hex="0102"/>
  <outline>
    <contour>
      <point x="173" y="158" type="line"/>
      <point x="190" y="272" type="line"/>
      <point x="526" y="272" type="line"/>
      <point x="543" y="158" type="line"/>
    </contour>
    <contour>
      <point x="356" y="472" type="line"/>
      <point x="252" y="231" type="line"/>
      <point x="255" y="199" type="line"/>
      <point x="164" y="0" type="line"/>
      <point x="1" y="0" type="line"/>
      <point x="356" y="742" type="line"/>
      <point x="712" y="0" type="line"/>
      <point x="549" y="0" type="line"/>
      <point x="460" y="192" type="line"/>
      <point x="461" y="229" type="line"/>
    </contour>
    <contour>
      <point x="194" y="946" type="curve"/>
      <point x="284" y="946" type="line"/>
      <point x="284" y="914"/>
      <point x="308" y="882"/>
      <point x="356" y="882" type="curve" smooth="yes"/>
      <point x="404" y="882"/>
      <point x="428" y="914"/>
      <point x="428" y="946" type="curve"/>
      <point x="519" y="946" type="line"/>
      <point x="519" y="868"/>
      <point x="461" y="802"/>
      <point x="356" y="802" type="curve" smooth="yes"/>
      <point x="251" y="802"/>
      <point x="194" y="868"/>
    </contour>
  </outline>
</glyph>
<glyph name="Aogonek" format="2">
  <advance width="712"/>
  <unicode hex="0104"/>
  <outline>
    <contour>
      <point x="173" y="158" type="line"/>
      <point x="190" y="272" type="line"/>
      <point x="526" y="272" type="line"/>
      <point x="543" y="158" type="line"/>
    </contour>
    <contour>
      <point x="356" y="472" type="line"/>
      <point x="252" y="231" type="line"/>
      <point x="255" y="199" type="line"/>
      <point x="164" y="0" type="line"/>
      <point x="1" y="0" type="line"/>
      <point x="356" y="742" type="line"/>
      <point x="712" y="0" type="line"/>
      <point x="549" y="0" type="line"/>
      <point x="460" y="192" type="line"/>
      <point x="461" y="229" type="line"/>
    </contour>
    <contour>
      <point x="682" y="-116" type="curve"/>
      <point x="714" y="-180" type="line"/>
      <point x="699" y="-200"/>
      <point x="670" y="-220"/>
      <point x="618" y="-220" type="curve" smooth="yes"/>
      <point x="548" y="-220"/>
      <point x="500" y="-183"/>
      <point x="500" y="-120" type="curve" smooth="yes"/>
      <point x="500" y="-57"/>
      <point x="566" y="-11"/>
      <point x="636" y="25" type="curve"/>
      <point x="676" y="0" type="line"/>
      <point x="624" y="-26"/>
      <point x="593" y="-63"/>
      <point x="593" y="-96" type="curve" smooth="yes"/>
      <point x="593" y="-124"/>
      <point x="606" y="-136"/>
      <point x="632" y="-136" type="curve" smooth="yes"/>
      <point x="654" y="-136"/>
      <point x="668" y="-129"/>
    </contour>
  </outline>
</glyph>
<glyph name="aogonek" format="2">
  <advance width="526"/>
  <unicode hex="0105"/>
  <outline>
    <contour>
      <point x="157" y="137" type="curve" smooth="yes"/>
      <point x="157" y="99"/>
      <point x="190" y="80"/>
      <point x="232" y="80" type="curve" smooth="yes"/>
      <point x="294" y="80"/>
      <point x="345" y="106"/>
      <point x="345" y="184" type="curve"/>
      <point x="361" y="130" type="line"/>
      <point x="361" y="41"/>
      <point x="285" y="-10"/>
      <point x="190" y="-10" type="curve" smooth="yes"/>
      <point x="96" y="-10"/>
      <point x="26" y="40"/>
      <point x="26" y="132" type="curve" smooth="yes"/>
      <point x="26" y="225"/>
      <point x="103" y="281"/>
      <point x="224" y="281" type="curve" smooth="yes"/>
      <point x="298" y="281"/>
      <point x="360" y="248"/>
      <point x="378" y="228" type="curve"/>
      <point x="378" y="164" type="line"/>
      <point x="340" y="192"/>
      <point x="304" y="206"/>
      <point x="250" y="206" type="curve" smooth="yes"/>
      <point x="190" y="206"/>
      <point x="157" y="179"/>
    </contour>
    <contour>
      <point x="115" y="328" type="curve"/>
      <point x="68" y="418" type="line"/>
      <point x="116" y="443"/>
      <point x="185" y="472"/>
      <point x="268" y="472" type="curve" smooth="yes"/>
      <point x="386" y="472"/>
      <point x="471" y="419"/>
      <point x="471" y="326" type="curve" smooth="yes"/>
      <point x="471" y="0" type="line"/>
      <point x="345" y="0" type="line"/>
      <point x="345" y="305" type="line" smooth="yes"/>
      <point x="345" y="346"/>
      <point x="309" y="370"/>
      <point x="259" y="370" type="curve" smooth="yes"/>
      <point x="193" y="370"/>
      <point x="137" y="342"/>
    </contour>
    <contour>
      <point x="454" y="-116" type="curve"/>
      <point x="487" y="-180" type="line"/>
      <point x="472" y="-200"/>
      <point x="442" y="-220"/>
      <point x="390" y="-220" type="curve" smooth="yes"/>
      <point x="320" y="-220"/>
      <point x="272" y="-183"/>
      <point x="272" y="-120" type="curve" smooth="yes"/>
      <point x="272" y="-57"/>
      <point x="338" y="-11"/>
      <point x="408" y="25" type="curve"/>
      <point x="449" y="0" type="line"/>
      <point x="397" y="-26"/>
      <point x="365" y="-63"/>
      <point x="365" y="-96" type="curve" smooth="yes"/>
      <point x="365" y="-124"/>
      <point x="378" y="-136"/>
      <point x="404" y="-136" type="curve" smooth="yes"/>
      <point x="426" y="-136"/>
      <point x="440" y="-129"/>
    </contour>
  </outline>
</glyph>
<glyph name="cdotaccent" format="2">
  <advance width="488"/>
  <unicode hex="010B"/>
  <outline>
    <contour>
      <point x="164" y="230" type="curve" smooth="yes"/>
      <point x="164" y="150"/>
      <point x="222" y="97"/>
      <point x="296" y="97" type="curve" smooth="yes"/>
      <point x="356" y="97"/>
      <point x="414" y="126"/>
      <point x="439" y="170" type="curve"/>
      <point x="439" y="37" type="line"/>
      <point x="407" y="7"/>
      <point x="355" y="-10"/>
      <point x="288" y="-10" type="curve" smooth="yes"/>
      <point x="140" y="-10"/>
      <point x="30" y="87"/>
      <point x="30" y="230" type="curve" smooth="yes"/>
      <point x="30" y="373"/>
      <point x="140" y="470"/>
      <point x="288" y="470" type="curve" smooth="yes"/>
      <point x="355" y="470"/>
      <point x="407" y="451"/>
      <point x="439" y="424" type="curve"/>
      <point x="439" y="290" type="line"/>
      <point x="414" y="334"/>
      <point x="352" y="363"/>
      <point x="296" y="363" type="curve" smooth="yes"/>
      <point x="222" y="363"/>
      <point x="164" y="306"/>
    </contour>
    <contour>
      <point x="192" y="609" type="curve" smooth="yes"/>
      <point x="192" y="651"/>
      <point x="226" y="682"/>
      <point x="270" y="682" type="curve" smooth="yes"/>
      <point x="314" y="682"/>
      <point x="348" y="651"/>
      <point x="348" y="609" type="curve" smooth="yes"/>
      <point x="348" y="567"/>
      <point x="314" y="535"/>
      <point x="270" y="535" type="curve" smooth="yes"/>
      <point x="226" y="535"/>
      <point x="192" y="567"/>
    </contour>
  </outline>
</glyph>
<glyph name="Dcroat" format="2">
  <advance width="717"/>
  <unicode hex="0110"/>
  <outline>
    <contour>
      <point x="5" y="302" type="line"/>
      <point x="5" y="394" type="line"/>
      <point x="336" y="394" type="line"/>
      <point x="336" y="302" type="line"/>
    </contour>
    <contour>
      <point x="76" y="700" type="line"/>
      <point x="224" y="700" type="line"/>
      <point x="224" y="0" type="line"/>
      <point x="76" y="0" type="line"/>
    </contour>
    <contour>
      <point x="314" y="0" type="curve" smooth="yes"/>
      <point x="168" y="0" type="line"/>
      <point x="168" y="131" type="line"/>
      <point x="310" y="131" type="line" smooth="yes"/>
      <point x="433" y="131"/>
      <point x="534" y="196"/>
      <point x="534" y="350" type="curve" smooth="yes"/>
      <point x="534" y="504"/>
      <point x="433" y="569"/>
      <point x="310" y="569" type="curve" smooth="yes"/>
      <point x="168" y="569" type="line"/>
      <point x="168" y="700" type="line"/>
      <point x="314" y="700" type="line" smooth="yes"/>
      <point x="536" y="700"/>
      <point x="682" y="563"/>
      <point x="682" y="350" type="curve" smooth="yes"/>
      <point x="682" y="137"/>
      <point x="536" y="0"/>
    </contour>
  </outline>
</glyph>
<glyph name="Eogonek" format="2">
  <advance width="587"/>
  <unicode hex="0118"/>
  <outline>
    <contour>
      <point x="168" y="0" type="line"/>
      <point x="168" y="122" type="line"/>
      <point x="522" y="122" type="line"/>
      <point x="522" y="0" type="line"/>
    </contour>
    <contour>
      <point x="168" y="578" type="line"/>
      <point x="168" y="700" type="line"/>
      <point x="522" y="700" type="line"/>
      <point x="522" y="578" type="line"/>
    </contour>
    <contour>
      <point x="168" y="312" type="line"/>
      <point x="168" y="431" type="line"/>
      <point x="502" y="431" type="line"/>
      <point x="502" y="312" type="line"/>
    </contour>
    <contour>
      <point x="76" y="700" type="line"/>
      <point x="216" y="700" type="line"/>
      <point x="216" y="0" type="line"/>
      <point x="76" y="0" type="line"/>
    </contour>
    <contour>
      <point x="389" y="-116" type="curve"/>
      <point x="422" y="-180" type="line"/>
      <point x="407" y="-200"/>
      <point x="378" y="-220"/>
      <point x="326" y="-220" type="curve" smooth="yes"/>
      <point x="256" y="-220"/>
      <point x="206" y="-183"/>
      <point x="206" y="-120" type="curve" smooth="yes"/>
      <point x="206" y="-57"/>
      <point x="273" y="-11"/>
      <point x="343" y="25" type="curve"/>
      <point x="384" y="0" type="line"/>
      <point x="332" y="-26"/>
      <point x="300" y="-63"/>
      <point x="300" y="-96" type="curve" smooth="yes"/>
      <point x="300" y="-124"/>
      <point x="313" y="-136"/>
      <point x="339" y="-136" type="curve" smooth="yes"/>
      <point x="361" y="-136"/>
      <point x="375" y="-129"/>
    </contour>
  </outline>
</glyph>
<glyph name="eogonek" format="2">
  <advance width="555"/>
  <unicode hex="0119"/>
  <outline>
    <contour>
      <point x="108" y="202" type="line"/>
      <point x="108" y="281" type="line"/>
      <point x="382" y="281" type="line"/>
      <point x="374" y="341"/>
      <point x="342" y="378"/>
      <point x="280" y="378" type="curve" smooth="yes"/>
      <point x="214" y="378"/>
      <point x="166" y="334"/>
      <point x="166" y="256" type="curve"/>
      <point x="164" y="230" type="line"/>
      <point x="164" y="132"/>
      <point x="214" y="89"/>
      <point x="282" y="89" type="curve" smooth="yes"/>
      <point x="340" y="89"/>
      <point x="382" y="114"/>
      <point x="406" y="156" type="curve"/>
      <point x="520" y="120" type="line"/>
      <point x="474" y="42"/>
      <point x="410" y="-10"/>
      <point x="282" y="-10" type="curve" smooth="yes"/>
      <point x="126" y="-10"/>
      <point x="33" y="91"/>
      <point x="33" y="230" type="curve" smooth="yes"/>
      <point x="33" y="247"/>
      <point x="34" y="263"/>
      <point x="37" y="279" type="curve" smooth="yes"/>
      <point x="56" y="392"/>
      <point x="142" y="470"/>
      <point x="282" y="470" type="curve" smooth="yes"/>
      <point x="434" y="470"/>
      <point x="522" y="381"/>
      <point x="522" y="236" type="curve" smooth="yes"/>
      <point x="522" y="228"/>
      <point x="522" y="216"/>
      <point x="520" y="202" type="curve"/>
    </contour>
    <contour>
      <point x="318" y="-112" type="curve"/>
      <point x="352" y="-174" type="line"/>
      <point x="337" y="-194"/>
      <point x="307" y="-214"/>
      <point x="255" y="-214" type="curve" smooth="yes"/>
      <point x="185" y="-214"/>
      <point x="136" y="-177"/>
      <point x="136" y="-114" type="curve" smooth="yes"/>
      <point x="136" y="-51"/>
      <point x="202" y="-6"/>
      <point x="272" y="30" type="curve"/>
      <point x="314" y="6" type="line"/>
      <point x="262" y="-20"/>
      <point x="230" y="-57"/>
      <point x="230" y="-90" type="curve" smooth="yes"/>
      <point x="230" y="-118"/>
      <point x="242" y="-132"/>
      <point x="268" y="-132" type="curve" smooth="yes"/>
      <point x="290" y="-132"/>
      <point x="304" y="-125"/>
    </contour>
  </outline>
</glyph>
<glyph name="gbreve" format="2">
  <advance width="598"/>
  <unicode hex="011F"/>
  <outline>
    <contour>
      <point x="42" y="-32" type="curve"/>
      <point x="170" y="-32" type="line"/>
      <point x="174" y="-92"/>
      <point x="218" y="-129"/>
      <point x="286" y="-129" type="curve" smooth="yes"/>
      <point x="352" y="-129"/>
      <point x="412" y="-84"/>
      <point x="412" y="10" type="curve" smooth="yes"/>
      <point x="412" y="460" type="line"/>
      <point x="537" y="460" type="line"/>
      <point x="537" y="10" type="line" smooth="yes"/>
      <point x="537" y="-162"/>
      <point x="424" y="-236"/>
      <point x="292" y="-236" type="curve" smooth="yes"/>
      <point x="131" y="-236"/>
      <point x="50" y="-153"/>
    </contour>
    <contour>
      <point x="33" y="234" type="curve" smooth="yes"/>
      <point x="33" y="387"/>
      <point x="138" y="470"/>
      <point x="254" y="470" type="curve" smooth="yes"/>
      <point x="369" y="470"/>
      <point x="452" y="383"/>
      <point x="452" y="234" type="curve" smooth="yes"/>
      <point x="452" y="85"/>
      <point x="369" y="-2"/>
      <point x="254" y="-2" type="curve" smooth="yes"/>
      <point x="138" y="-2"/>
      <point x="33" y="81"/>
    </contour>
    <contour>
      <point x="168" y="234" type="curve" smooth="yes"/>
      <point x="168" y="152"/>
      <point x="224" y="106"/>
      <point x="292" y="106" type="curve" smooth="yes"/>
      <point x="348" y="106"/>
      <point x="412" y="150"/>
      <point x="412" y="234" type="curve" smooth="yes"/>
      <point x="412" y="318"/>
      <point x="348" y="362"/>
      <point x="292" y="362" type="curve" smooth="yes"/>
      <point x="224" y="362"/>
      <point x="168" y="316"/>
    </contour>
    <contour>
      <point x="140" y="675" type="curve"/>
      <point x="230" y="675" type="line"/>
      <point x="230" y="643"/>
      <point x="254" y="611"/>
      <point x="302" y="611" type="curve" smooth="yes"/>
      <point x="350" y="611"/>
      <point x="374" y="643"/>
      <point x="374" y="675" type="curve"/>
      <point x="465" y="675" type="line"/>
      <point x="465" y="597"/>
      <point x="407" y="530"/>
      <point x="302" y="530" type="curve" smooth="yes"/>
      <point x="197" y="530"/>
      <point x="140" y="597"/>
    </contour>
  </outline>
</glyph>
<glyph name="Gdotaccent" format="2">
  <advance width="802"/>
  <unicode hex="0120"/>
  <outline>
    <contour>
      <point x="416" y="260" type="line"/>
      <point x="416" y="374" type="line"/>
      <point x="762" y="374" type="line"/>
      <point x="770" y="160"/>
      <point x="642" y="-18"/>
      <point x="410" y="-18" type="curve" smooth="yes"/>
      <point x="192" y="-18"/>
      <point x="36" y="132"/>
      <point x="36" y="350" type="curve" smooth="yes"/>
      <point x="36" y="568"/>
      <point x="196" y="714"/>
      <point x="414" y="714" type="curve" smooth="yes"/>
      <point x="556" y="714"/>
      <point x="659" y="651"/>
      <point x="723" y="554" type="curve"/>
      <point x="600" y="482" type="line"/>
      <point x="564" y="542"/>
      <point x="504" y="586"/>
      <point x="414" y="586" type="curve" smooth="yes"/>
      <point x="288" y="586"/>
      <point x="186" y="496"/>
      <point x="186" y="350" type="curve" smooth="yes"/>
      <point x="186" y="204"/>
      <point x="284" y="110"/>
      <point x="414" y="110" type="curve" smooth="yes"/>
      <point x="528" y="110"/>
      <point x="593" y="176"/>
      <point x="616" y="260" type="curve"/>
    </contour>
    <contour>
      <point x="336" y="848" type="curve" smooth="yes"/>
      <point x="336" y="890"/>
      <point x="370" y="922"/>
      <point x="414" y="922" type="curve" smooth="yes"/>
      <point x="458" y="922"/>
      <point x="492" y="890"/>
      <point x="492" y="848" type="curve" smooth="yes"/>
      <point x="492" y="806"/>
      <point x="458" y="774"/>
      <point x="414" y="774" type="curve" smooth="yes"/>
      <point x="370" y="774"/>
      <point x="336" y="806"/>
    </contour>
  </outline>
</glyph>
<glyph name="uni0122" format="2">
  <advance width="802"/>
  <unicode hex="0122"/>
  <outline>
    <contour>
      <point x="416" y="260" type="line"/>
      <point x="416" y="374" type="line"/>
      <point x="762" y="374" type="line"/>
      <point x="770" y="160"/>
      <point x="642" y="-18"/>
      <point x="410" y="-18" type="curve" smooth="yes"/>
      <point x="192" y="-18"/>
      <point x="36" y="132"/>
      <point x="36" y="350" type="curve" smooth="yes"/>
      <point x="36" y="568"/>
      <point x="196" y="714"/>
      <point x="414" y="714" type="curve" smooth="yes"/>
      <point x="556" y="714"/>
      <point x="659" y="651"/>
      <point x="723" y="554" type="curve"/>
      <point x="600" y="482" type="line"/>
      <point x="564" y="542"/>
      <point x="504" y="586"/>
      <point x="414" y="586" type="curve" smooth="yes"/>
      <point x="288" y="586"/>
      <point x="186" y="496"/>
      <point x="186" y="350" type="curve" smooth="yes"/>
      <point x="186" y="204"/>
      <point x="284" y="110"/>
      <point x="414" y="110" type="curve" smooth="yes"/>
      <point x="528" y="110"/>
      <point x="593" y="176"/>
      <point x="616" y="260" type="curve"/>
    </contour>
    <contour>
      <point x="368" y="-78" type="line"/>
      <point x="498" y="-110" type="line"/>
      <point x="376" y="-360" type="line"/>
      <point x="280" y="-338" type="line"/>
    </contour>
  </outline>
</glyph>
<glyph name="uni0123" format="2">
  <advance width="570"/>
  <unicode hex="0123"/>
  <outline>
    <contour>
      <point x="42" y="-32" type="curve"/>
      <point x="170" y="-32" type="line"/>
      <point x="174" y="-92"/>
      <point x="218" y="-129"/>
      <point x="286" y="-129" type="curve" smooth="yes"/>
      <point x="352" y="-129"/>
      <point x="412" y="-84"/>
      <point x="412" y="10" type="curve" smooth="yes"/>
      <point x="412" y="460" type="line"/>
      <point x="537" y="460" type="line"/>
      <point x="537" y="10" type="line" smooth="yes"/>
      <point x="537" y="-162"/>
      <point x="424" y="-236"/>
      <point x="292" y="-236" type="curve" smooth="yes"/>
      <point x="131" y="-236"/>
      <point x="50" y="-153"/>
    </contour>
    <contour>
      <point x="33" y="234" type="curve" smooth="yes"/>
      <point x="33" y="387"/>
      <point x="138" y="470"/>
      <point x="254" y="470" type="curve" smooth="yes"/>
      <point x="369" y="470"/>
      <point x="452" y="383"/>
      <point x="452" y="234" type="curve" smooth="yes"/>
      <point x="452" y="85"/>
      <point x="369" y="-2"/>
      <point x="254" y="-2" type="curve" smooth="yes"/>
      <point x="138" y="-2"/>
      <point x="33" y="81"/>
    </contour>
    <contour>
      <point x="168" y="234" type="curve" smooth="yes"/>
      <point x="168" y="152"/>
      <point x="224" y="106"/>
      <point x="292" y="106" type="curve" smooth="yes"/>
      <point x="348" y="106"/>
      <point x="412" y="150"/>
      <point x="412" y="234" type="curve" smooth="yes"/>
      <point x="412" y="318"/>
      <point x="348" y="362"/>
      <point x="292" y="362" type="curve" smooth="yes"/>
      <point x="224" y="362"/>
      <point x="168" y="316"/>
    </contour>
    <contour>
      <point x="302" y="543" type="line"/>
      <point x="178" y="594" type="line"/>
      <point x="336" y="823" type="line"/>
      <point x="428" y="786" type="line"/>
    </contour>
  </outline>
</glyph>
<glyph name="Hcircumflex" format="2">
  <advance width="764"/>
  <unicode hex="0124"/>
  <outline>
    <contour>
      <point x="123" y="307" type="line"/>
      <point x="123" y="438" type="line"/>
      <point x="638" y="438" type="line"/>
      <point x="638" y="307" type="line"/>
    </contour>
    <contour>
      <point x="546" y="700" type="line"/>
      <point x="690" y="700" type="line"/>
      <point x="690" y="0" type="line"/>
      <point x="546" y="0" type="line"/>
    </contour>
    <contour>
      <point x="76" y="700" type="line"/>
      <point x="220" y="700" type="line"/>
      <point x="220" y="0" type="line"/>
      <point x="76" y="0" type="line"/>
    </contour>
    <contour>
      <point x="383" y="863" type="line"/>
      <point x="286" y="774" type="line"/>
      <point x="196" y="836" type="line"/>
      <point x="383" y="976" type="line"/>
      <point x="569" y="836" type="line"/>
      <point x="480" y="774" type="line"/>
    </contour>
  </outline>
</glyph>
<glyph name="hcircumflex" format="2">
  <advance width="555"/>
  <unicode hex="0125"/>
  <outline>
    <contour>
      <point x="194" y="780" type="line"/>
      <point x="194" y="0" type="line"/>
      <point x="64" y="0" type="line"/>
      <point x="64" y="780" type="line"/>
    </contour>
    <contour>
      <point x="362" y="280" type="line" smooth="yes"/>
      <point x="362" y="340"/>
      <point x="340" y="374"/>
      <point x="286" y="374" type="curve" smooth="yes"/>
      <point x="232" y="374"/>
      <point x="194" y="338"/>
      <point x="194" y="280" type="curve"/>
      <point x="163" y="280" type="line"/>
      <point x="163" y="389"/>
      <point x="226" y="475"/>
      <point x="334" y="475" type="curve" smooth="yes"/>
      <point x="442" y="475"/>
      <point x="492" y="413"/>
      <point x="492" y="298" type="curve" smooth="yes"/>
      <point x="492" y="0" type="line"/>
      <point x="362" y="0" type="line"/>
    </contour>
    <contour>
      <point x="133" y="928" type="line"/>
      <point x="36" y="840" type="line"/>
      <point x="-54" y="902" type="line"/>
      <point x="133" y="1042" type="line"/>
      <point x="319" y="902" type="line"/>
      <point x="230" y="840" type="line"/>
    </contour>
  </outline>
</glyph>
<glyph name="Hbar" format="2">
  <advance width="764"/>
  <unicode hex="0126"/>
  <outline>
    <contour>
      <point x="123" y="307" type="line"/>
      <point x="123" y="438" type="line"/>
      <point x="638" y="438" type="line"/>
      <point x="638" y="307" type="line"/>
    </contour>
    <contour>
      <point x="546" y="700" type="line"/>
      <point x="690" y="700" type="line"/>
      <point x="690" y="0" type="line"/>
      <point x="546" y="0" type="line"/>
    </contour>
    <contour>
      <point x="76" y="700" type="line"/>
      <point x="220" y="700" type="line"/>
      <point x="220" y="0" type="line"/>
      <point x="76" y="0" type="line"/>
    </contour>
    <contour>
      <point x="5" y="538" type="line"/>
      <point x="5" y="634" type="line"/>
      <point x="760" y="634" type="line"/>
      <point x="760" y="538" type="line"/>
    </contour>
  </outline>
</glyph>
<glyph name="hbar" format="2">
  <advance width="555"/>
  <unicode hex="0127"/>
  <outline>
    <contour>
      <point x="194" y="780" type="line"/>
      <point x="194" y="0" type="line"/>
      <point x="64" y="0" type="line"/>
      <point x="64" y="780" type="line"/>
    </contour>
    <contour>
      <point x="362" y="280" type="line" smooth="yes"/>
      <point x="362" y="340"/>
      <point x="340" y="374"/>
      <point x="286" y="374" type="curve" smooth="yes"/>
      <point x="232" y="374"/>
      <point x="194" y="338"/>
      <point x="194" y="280" type="curve"/>
      <point x="168" y="280" type="line"/>
      <point x="168" y="389"/>
      <point x="226" y="475"/>
      <point x="334" y="475" type="curve" smooth="yes"/>
      <point x="442" y="475"/>
      <point x="492" y="413"/>
      <point x="492" y="298" type="curve" smooth="yes"/>
      <point x="492" y="0" type="line"/>
      <point x="362" y="0" type="line"/>
    </contour>
    <contour>
      <point x="5" y="606" type="line"/>
      <point x="5" y="720" type="line"/>
      <point x="331" y="720" type="line"/>
      <point x="331" y="606" type="line"/>
    </contour>
  </outline>
</glyph>
<glyph name="Itilde" format="2">
  <advance width="297"/>
  <unicode hex="0128"/>
  <outline>
    <contour>
      <point x="76" y="700" type="line"/>
      <point x="222" y="700" type="line"/>
      <point x="222" y="0" type="line"/>
      <point x="76" y="0" type="line"/>
    </contour>
    <contour>
      <point x="-38" y="832" type="line"/>
      <point x="-28" y="881"/>
      <point x="18" y="922"/>
      <point x="76" y="922" type="curve" smooth="yes"/>
      <point x="142" y="922"/>
      <point x="154" y="872"/>
      <point x="210" y="872" type="curve" smooth="yes"/>
      <point x="233" y="872"/>
      <point x="253" y="892"/>
      <point x="273" y="924" type="curve"/>
      <point x="336" y="858" type="line"/>
      <point x="320" y="821"/>
      <point x="268" y="777"/>
      <point x="210" y="777" type="curve" smooth="yes"/>
      <point x="155" y="777"/>
      <point x="124" y="828"/>
      <point x="76" y="828" type="curve" smooth="yes"/>
      <point x="37" y="828"/>
      <point x="28" y="792"/>
      <point x="28" y="777" type="curve"/>
    </contour>
  </outline>
</glyph>
<glyph name="Iogonek" format="2">
  <advance width="297"/>
  <unicode hex="012E"/>
  <outline>
    <contour>
      <point x="76" y="700" type="line"/>
      <point x="222" y="700" type="line"/>
      <point x="222" y="0" type="line"/>
      <point x="76" y="0" type="line"/>
    </contour>
    <contour>
      <point x="208" y="-116" type="curve"/>
      <point x="242" y="-178" type="line"/>
      <point x="227" y="-198"/>
      <point x="197" y="-218"/>
      <point x="145" y="-218" type="curve" smooth="yes"/>
      <point x="75" y="-218"/>
      <point x="26" y="-181"/>
      <point x="26" y="-118" type="curve" smooth="yes"/>
      <point x="26" y="-55"/>
      <point x="92" y="-10"/>
      <point x="162" y="26" type="curve"/>
      <point x="204" y="2" type="line"/>
      <point x="152" y="-24"/>
      <point x="120" y="-61"/>
      <point x="120" y="-94" type="curve" smooth="yes"/>
      <point x="120" y="-122"/>
      <point x="132" y="-136"/>
      <point x="158" y="-136" type="curve" smooth="yes"/>
      <point x="180" y="-136"/>
      <point x="194" y="-129"/>
    </contour>
  </outline>
</glyph>
<glyph name="iogonek" format="2">
  <advance width="271"/>
  <unicode hex="012F"/>
  <outline>
    <contour>
      <point x="58" y="638" type="curve" smooth="yes"/>
      <point x="58" y="680"/>
      <point x="92" y="712"/>
      <point x="136" y="712" type="curve" smooth="yes"/>
      <point x="180" y="712"/>
      <point x="214" y="680"/>
      <point x="214" y="638" type="curve" smooth="yes"/>
      <point x="214" y="596"/>
      <point x="180" y="564"/>
      <point x="136" y="564" type="curve" smooth="yes"/>
      <point x="92" y="564"/>
      <point x="58" y="596"/>
    </contour>
    <contour>
      <point x="72" y="460" type="line"/>
      <point x="198" y="460" type="line"/>
      <point x="198" y="0" type="line"/>
      <point x="72" y="0" type="line"/>
    </contour>
    <contour>
      <point x="186" y="-116" type="curve"/>
      <point x="219" y="-180" type="line"/>
      <point x="204" y="-200"/>
      <point x="175" y="-220"/>
      <point x="123" y="-220" type="curve" smooth="yes"/>
      <point x="53" y="-220"/>
      <point x="4" y="-183"/>
      <point x="4" y="-120" type="curve" smooth="yes"/>
      <point x="4" y="-57"/>
      <point x="70" y="-11"/>
      <point x="140" y="25" type="curve"/>
      <point x="181" y="0" type="line"/>
      <point x="129" y="-26"/>
      <point x="98" y="-63"/>
      <point x="98" y="-96" type="curve" smooth="yes"/>
      <point x="98" y="-124"/>
      <point x="110" y="-136"/>
      <point x="136" y="-136" type="curve" smooth="yes"/>
      <point x="158" y="-136"/>
      <point x="172" y="-129"/>
    </contour>
  </outline>
</glyph>
<glyph name="Idotaccent" format="2">
  <advance width="297"/>
  <unicode hex="0130"/>
  <outline>
    <contour>
      <point x="76" y="700" type="line"/>
      <point x="222" y="700" type="line"/>
      <point x="222" y="0" type="line"/>
      <point x="76" y="0" type="line"/>
    </contour>
    <contour>
      <point x="70" y="848" type="curve" smooth="yes"/>
      <point x="70" y="890"/>
      <point x="104" y="922"/>
      <point x="148" y="922" type="curve" smooth="yes"/>
      <point x="192" y="922"/>
      <point x="226" y="890"/>
      <point x="226" y="848" type="curve" smooth="yes"/>
      <point x="226" y="806"/>
      <point x="192" y="774"/>
      <point x="148" y="774" type="curve" smooth="yes"/>
      <point x="104" y="774"/>
      <point x="70" y="806"/>
    </contour>
  </outline>
</glyph>
<glyph name="IJ" format="2">
  <advance width="583"/>
  <unicode hex="0132"/>
  <outline>
    <contour>
      <point x="210" y="-76" type="line"/>
      <point x="228" y="-96"/>
      <point x="258" y="-109"/>
      <point x="290" y="-109" type="curve" smooth="yes"/>
      <point x="320" y="-109"/>
      <point x="356" y="-88"/>
      <point x="356" y="-26" type="curve" smooth="yes"/>
      <point x="356" y="700" type="line"/>
      <point x="508" y="700" type="line"/>
      <point x="508" y="-56" type="line" smooth="yes"/>
      <point x="508" y="-182"/>
      <point x="417" y="-234"/>
      <point x="301" y="-234" type="curve" smooth="yes"/>
      <point x="231" y="-234"/>
      <point x="164" y="-202"/>
      <point x="132" y="-178" type="curve"/>
    </contour>
    <contour>
      <point x="76" y="700" type="line"/>
      <point x="222" y="700" type="line"/>
      <point x="222" y="0" type="line"/>
      <point x="76" y="0" type="line"/>
    </contour>
  </outline>
</glyph>
<glyph name="ij" format="2">
  <advance width="534"/>
  <unicode hex="0133"/>
  <outline>
    <contour>
      <point x="321" y="638" type="curve" smooth="yes"/>
      <point x="321" y="680"/>
      <point x="355" y="712"/>
      <point x="399" y="712" type="curve" smooth="yes"/>
      <point x="443" y="712"/>
      <point x="477" y="680"/>
      <point x="477" y="638" type="curve" smooth="yes"/>
      <point x="477" y="596"/>
      <point x="443" y="564"/>
      <point x="399" y="564" type="curve" smooth="yes"/>
      <point x="355" y="564"/>
      <point x="321" y="596"/>
    </contour>
    <contour>
      <point x="240" y="-88" type="line"/>
      <point x="254" y="-108"/>
      <point x="270" y="-114"/>
      <point x="288" y="-114" type="curve" smooth="yes"/>
      <point x="318" y="-114"/>
      <point x="336" y="-91"/>
      <point x="336" y="-39" type="curve" smooth="yes"/>
      <point x="336" y="460" type="line"/>
      <point x="462" y="460" type="line"/>
      <point x="462" y="-68" type="line" smooth="yes"/>
      <point x="462" y="-173"/>
      <point x="406" y="-234"/>
      <point x="300" y="-234" type="curve" smooth="yes"/>
      <point x="240" y="-234"/>
      <point x="203" y="-206"/>
      <point x="184" y="-186" type="curve"/>
    </contour>
    <contour>
      <point x="58" y="638" type="curve" smooth="yes"/>
      <point x="58" y="680"/>
      <point x="92" y="712"/>
      <point x="136" y="712" type="curve" smooth="yes"/>
      <point x="180" y="712"/>
      <point x="214" y="680"/>
      <point x="214" y="638" type="curve" smooth="yes"/>
      <point x="214" y="596"/>
      <point x="180" y="564"/>
      <point x="136" y="564" type="curve" smooth="yes"/>
      <point x="92" y="564"/>
      <point x="58" y="596"/>
    </contour>
    <contour>
      <point x="72" y="460" type="line"/>
      <point x="198" y="460" type="line"/>
      <point x="198" y="0" type="line"/>
      <point x="72" y="0" type="line"/>
    </contour>
  </outline>
</glyph>
<glyph name="jcircumflex" format="2">
  <advance width="264"/>
  <unicode hex="0135"/>
  <outline>
    <contour>
      <point x="-28" y="-88" type="line"/>
      <point x="-14" y="-108"/>
      <point x="0" y="-114"/>
      <point x="18" y="-114" type="curve" smooth="yes"/>
      <point x="48" y="-114"/>
      <point x="66" y="-91"/>
      <point x="66" y="-39" type="curve" smooth="yes"/>
      <point x="66" y="460" type="line"/>
      <point x="193" y="460" type="line"/>
      <point x="193" y="-68" type="line" smooth="yes"/>
      <point x="193" y="-173"/>
      <point x="137" y="-234"/>
      <point x="31" y="-234" type="curve" smooth="yes"/>
      <point x="-29" y="-234"/>
      <point x="-65" y="-206"/>
      <point x="-84" y="-186" type="curve"/>
    </contour>
    <contour>
      <point x="130" y="618" type="line"/>
      <point x="32" y="530" type="line"/>
      <point x="-57" y="592" type="line"/>
      <point x="130" y="732" type="line"/>
      <point x="316" y="592" type="line"/>
      <point x="226" y="530" type="line"/>
    </contour>
  </outline>
</glyph>
<glyph name="kgreenlandic" format="2">
  <advance width="535"/>
  <unicode hex="0138"/>
  <outline>
    <contour>
      <point x="62" y="460" type="line"/>
      <point x="187" y="460" type="line"/>
      <point x="187" y="0" type="line"/>
      <point x="62" y="0" type="line"/>
    </contour>
    <contour>
      <point x="356" y="460" type="line"/>
      <point x="512" y="460" type="line"/>
      <point x="314" y="270" type="line"/>
      <point x="532" y="0" type="line"/>
      <point x="377" y="0" type="line"/>
      <point x="158" y="270" type="line"/>
    </contour>
  </outline>
</glyph>
<glyph name="Lacute" format="2">
  <advance width="504"/>
  <unicode hex="0139"/>
  <outline>
    <contour>
      <point x="76" y="700" type="line"/>
      <point x="220" y="700" type="line"/>
      <point x="220" y="126" type="line"/>
      <point x="499" y="126" type="line"/>
      <point x="499" y="0" type="line"/>
      <point x="76" y="0" type="line"/>
    </contour>
    <contour>
      <point x="439" y="924" type="line"/>
      <point x="259" y="774" type="line"/>
      <point x="186" y="814" type="line"/>
      <point x="336" y="974" type="line"/>
    </contour>
  </outline>
</glyph>
<glyph name="Lcaron" format="2">
  <advance width="504"/>
  <unicode hex="013D"/>
  <outline>
    <contour>
      <point x="76" y="700" type="line"/>
      <point x="220" y="700" type="line"/>
      <point x="220" y="126" type="line"/>
      <point x="499" y="126" type="line"/>
      <point x="499" y="0" type="line"/>
      <point x="76" y="0" type="line"/>
    </contour>
    <contour>
      <point x="387" y="714" type="line"/>
      <point x="517" y="683" type="line"/>
      <point x="396" y="433" type="line"/>
      <point x="299" y="455" type="line"/>
    </contour>
  </outline>
</glyph>
<glyph name="Ldot" format="2">
  <advance width="504"/>
  <unicode hex="013F"/>
  <outline>
    <contour>
      <point x="76" y="700" type="line"/>
      <point x="220" y="700" type="line"/>
      <point x="220" y="126" type="line"/>
      <point x="499" y="126" type="line"/>
      <point x="499" y="0" type="line"/>
      <point x="76" y="0" type="line"/>
    </contour>
    <contour>
      <point x="302" y="426" type="curve" smooth="yes"/>
      <point x="302" y="470"/>
      <point x="338" y="507"/>
      <point x="386" y="507" type="curve" smooth="yes"/>
      <point x="434" y="507"/>
      <point x="468" y="470"/>
      <point x="468" y="426" type="curve" smooth="yes"/>
      <point x="468" y="382"/>
      <point x="434" y="344"/>
      <point x="386" y="344" type="curve" smooth="yes"/>
      <point x="338" y="344"/>
      <point x="302" y="382"/>
    </contour>
  </outline>
</glyph>
<glyph name="ldot" format="2">
  <advance width="444"/>
  <unicode hex="0140"/>
  <outline>
    <contour>
      <point x="64" y="780" type="line"/>
      <point x="194" y="780" type="line"/>
      <point x="194" y="0" type="line"/>
      <point x="64" y="0" type="line"/>
    </contour>
    <contour>
      <point x="241" y="411" type="curve" smooth="yes"/>
      <point x="241" y="455"/>
      <point x="276" y="492"/>
      <point x="324" y="492" type="curve" smooth="yes"/>
      <point x="372" y="492"/>
      <point x="406" y="455"/>
      <point x="406" y="411" type="curve" smooth="yes"/>
      <point x="406" y="367"/>
      <point x="372" y="329"/>
      <point x="324" y="329" type="curve" smooth="yes"/>
      <point x="276" y="329"/>
      <point x="241" y="367"/>
    </contour>
  </outline>
</glyph>
<glyph name="Lslash" format="2">
  <advance width="508"/>
  <unicode hex="0141"/>
  <outline>
    <contour>
      <point x="5" y="318" type="line"/>
      <point x="-28" y="386" type="line"/>
      <point x="308" y="609" type="line"/>
      <point x="341" y="541" type="line"/>
    </contour>
    <contour>
      <point x="76" y="700" type="line"/>
      <point x="220" y="700" type="line"/>
      <point x="220" y="126" type="line"/>
      <point x="499" y="126" type="line"/>
      <point x="499" y="0" type="line"/>
      <point x="76" y="0" type="line"/>
    </contour>
  </outline>
</glyph>
<glyph name="Nacute" format="2">
  <advance width="787"/>
  <unicode hex="0143"/>
  <outline>
    <contour>
      <point x="573" y="700" type="line"/>
      <point x="712" y="700" type="line"/>
      <point x="712" y="-35" type="line"/>
      <point x="216" y="432" type="line"/>
      <point x="216" y="0" type="line"/>
      <point x="76" y="0" type="line"/>
      <point x="76" y="735" type="line"/>
      <point x="573" y="268" type="line"/>
    </contour>
    <contour>
      <point x="552" y="909" type="line"/>
      <point x="372" y="759" type="line"/>
      <point x="298" y="798" type="line"/>
      <point x="448" y="958" type="line"/>
    </contour>
  </outline>
</glyph>
<glyph name="nacute" format="2">
  <advance width="560"/>
  <unicode hex="0144"/>
  <outline>
    <contour>
      <point x="194" y="460" type="line"/>
      <point x="194" y="0" type="line"/>
      <point x="64" y="0" type="line"/>
      <point x="64" y="460" type="line"/>
    </contour>
    <contour>
      <point x="362" y="280" type="line" smooth="yes"/>
      <point x="362" y="340"/>
      <point x="340" y="374"/>
      <point x="286" y="374" type="curve" smooth="yes"/>
      <point x="232" y="374"/>
      <point x="194" y="338"/>
      <point x="194" y="280" type="curve"/>
      <point x="168" y="276" type="line"/>
      <point x="168" y="385"/>
      <point x="226" y="470"/>
      <point x="334" y="470" type="curve" smooth="yes"/>
      <point x="442" y="470"/>
      <point x="496" y="409"/>
      <point x="496" y="294" type="curve" smooth="yes"/>
      <point x="496" y="0" type="line"/>
      <point x="362" y="0" type="line"/>
    </contour>
    <contour>
      <point x="437" y="680" type="line"/>
      <point x="257" y="530" type="line"/>
      <point x="184" y="569" type="line"/>
      <point x="334" y="729" type="line"/>
    </contour>
  </outline>
</glyph>
<glyph name="Ncaron" format="2">
  <advance width="787"/>
  <unicode hex="0147"/>
  <outline>
    <contour>
      <point x="382" y="896" type="line"/>
      <point x="479" y="984" type="line"/>
      <point x="568" y="922" type="line"/>
      <point x="382" y="782" type="line"/>
      <point x="196" y="922" type="line"/>
      <point x="286" y="984" type="line"/>
    </contour>
    <contour>
      <point x="573" y="700" type="line"/>
      <point x="712" y="700" type="line"/>
      <point x="712" y="-35" type="line"/>
      <point x="216" y="432" type="line"/>
      <point x="216" y="0" type="line"/>
      <point x="76" y="0" type="line"/>
      <point x="76" y="735" type="line"/>
      <point x="573" y="268" type="line"/>
    </contour>
  </outline>
</glyph>
<glyph name="ncaron" format="2">
  <advance width="560"/>
  <unicode hex="0148"/>
  <outline>
    <contour>
      <point x="194" y="460" type="line"/>
      <point x="194" y="0" type="line"/>
      <point x="64" y="0" type="line"/>
      <point x="64" y="460" type="line"/>
    </contour>
    <contour>
      <point x="362" y="280" type="line" smooth="yes"/>
      <point x="362" y="340"/>
      <point x="340" y="374"/>
      <point x="286" y="374" type="curve" smooth="yes"/>
      <point x="232" y="374"/>
      <point x="194" y="338"/>
      <point x="194" y="280" type="curve"/>
      <point x="163" y="276" type="line"/>
      <point x="163" y="385"/>
      <point x="226" y="470"/>
      <point x="334" y="470" type="curve" smooth="yes"/>
      <point x="442" y="470"/>
      <point x="496" y="409"/>
      <point x="496" y="294" type="curve" smooth="yes"/>
      <point x="496" y="0" type="line"/>
      <point x="362" y="0" type="line"/>
    </contour>
    <contour>
      <point x="280" y="644" type="line"/>
      <point x="376" y="732" type="line"/>
      <point x="466" y="670" type="line"/>
      <point x="280" y="530" type="line"/>
      <point x="94" y="670" type="line"/>
      <point x="183" y="732" type="line"/>
    </contour>
  </outline>
</glyph>
<glyph name="Eng" format="2">
  <advance width="787"/>
  <unicode hex="014A"/>
  <outline>
    <contour>
      <point x="551" y="-216" type="curve" smooth="yes"/>
      <point x="503" y="-216"/>
      <point x="470" y="-203"/>
      <point x="436" y="-169" type="curve"/>
      <point x="492" y="-72" type="line"/>
      <point x="505" y="-88"/>
      <point x="519" y="-98"/>
      <point x="538" y="-98" type="curve" smooth="yes"/>
      <point x="570" y="-98"/>
      <point x="586" y="-72"/>
      <point x="586" y="-22" type="curve" smooth="yes"/>
      <point x="586" y="75" type="line"/>
      <point x="216" y="432" type="line"/>
      <point x="216" y="0" type="line"/>
      <point x="76" y="0" type="line"/>
      <point x="76" y="735" type="line"/>
      <point x="573" y="268" type="line"/>
      <point x="573" y="700" type="line"/>
      <point x="712" y="700" type="line"/>
      <point x="712" y="-52" type="line" smooth="yes"/>
      <point x="712" y="-154"/>
      <point x="652" y="-216"/>
    </contour>
  </outline>
</glyph>
<glyph name="eng" format="2">
  <advance width="560"/>
  <unicode hex="014B"/>
  <outline>
    <contour>
      <point x="326" y="-234" type="curve" smooth="yes"/>
      <point x="282" y="-234"/>
      <point x="242" y="-218"/>
      <point x="210" y="-186" type="curve"/>
      <point x="266" y="-88" type="line"/>
      <point x="279" y="-106"/>
      <point x="295" y="-114"/>
      <point x="314" y="-114" type="curve" smooth="yes"/>
      <point x="346" y="-114"/>
      <point x="362" y="-89"/>
      <point x="362" y="-39" type="curve" smooth="yes"/>
      <point x="362" y="280" type="line" smooth="yes"/>
      <point x="362" y="344"/>
      <point x="338" y="374"/>
      <point x="286" y="374" type="curve" smooth="yes"/>
      <point x="232" y="374"/>
      <point x="194" y="338"/>
      <point x="194" y="278" type="curve" smooth="yes"/>
      <point x="194" y="0" type="line"/>
      <point x="64" y="0" type="line"/>
      <point x="64" y="460" type="line"/>
      <point x="194" y="460" type="line"/>
      <point x="194" y="391" type="line"/>
      <point x="224" y="443"/>
      <point x="272" y="470"/>
      <point x="334" y="470" type="curve" smooth="yes"/>
      <point x="441" y="470"/>
      <point x="496" y="410"/>
      <point x="496" y="294" type="curve" smooth="yes"/>
      <point x="496" y="-68" type="line" smooth="yes"/>
      <point x="496" y="-174"/>
      <point x="436" y="-234"/>
    </contour>
  </outline>
</glyph>
<glyph name="oe" format="2">
  <advance width="900"/>
  <unicode hex="0153"/>
  <outline>
    <contour>
      <point x="728" y="250" type="line" smooth="yes"/>
      <point x="728" y="328"/>
      <point x="694" y="378"/>
      <point x="626" y="378" type="curve" smooth="yes"/>
      <point x="564" y="378"/>
      <point x="512" y="338"/>
      <point x="512" y="260" type="curve"/>
      <point x="510" y="230" type="line"/>
      <point x="510" y="138"/>
      <point x="556" y="86"/>
      <point x="628" y="86" type="curve" smooth="yes"/>
      <point x="686" y="86"/>
      <point x="722" y="114"/>
      <point x="750" y="156" type="curve"/>
      <point x="864" y="120" type="line"/>
      <point x="822" y="46"/>
      <point x="743" y="-10"/>
      <point x="644" y="-10" type="curve" smooth="yes"/>
      <point x="519" y="-10"/>
      <point x="430" y="91"/>
      <point x="430" y="230" type="curve" smooth="yes"/>
      <point x="430" y="247"/>
      <point x="431" y="263"/>
      <point x="434" y="279" type="curve" smooth="yes"/>
      <point x="453" y="392"/>
      <point x="539" y="470"/>
      <point x="658" y="470" type="curve" smooth="yes"/>
      <point x="768" y="470"/>
      <point x="865" y="379"/>
      <point x="865" y="234" type="curve" smooth="yes"/>
      <point x="865" y="226"/>
      <point x="865" y="210"/>
      <point x="864" y="202" type="curve"/>
      <point x="728" y="230" type="line"/>
    </contour>
    <contour>
      <point x="481" y="202" type="line"/>
      <point x="481" y="280" type="line"/>
      <point x="844" y="280" type="line"/>
      <point x="864" y="202" type="line"/>
    </contour>
    <contour>
      <point x="35" y="230" type="curve" smooth="yes"/>
      <point x="35" y="379"/>
      <point x="138" y="470"/>
      <point x="263" y="470" type="curve" smooth="yes"/>
      <point x="388" y="470"/>
      <point x="466" y="379"/>
      <point x="466" y="230" type="curve" smooth="yes"/>
      <point x="466" y="81"/>
      <point x="388" y="-10"/>
      <point x="263" y="-10" type="curve" smooth="yes"/>
      <point x="138" y="-10"/>
      <point x="35" y="81"/>
    </contour>
    <contour>
      <point x="164" y="230" type="curve" smooth="yes"/>
      <point x="164" y="146"/>
      <point x="218" y="100"/>
      <point x="286" y="100" type="curve" smooth="yes"/>
      <point x="348" y="100"/>
      <point x="396" y="146"/>
      <point x="396" y="230" type="curve" smooth="yes"/>
      <point x="396" y="314"/>
      <point x="348" y="360"/>
      <point x="286" y="360" type="curve" smooth="yes"/>
      <point x="218" y="360"/>
      <point x="164" y="314"/>
    </contour>
  </outline>
</glyph>
<glyph name="Sacute" format="2">
  <advance width="601"/>
  <unicode hex="015A"/>
  <outline>
    <contour>
      <point x="140" y="244" type="line"/>
      <point x="186" y="156"/>
      <point x="236" y="108"/>
      <point x="314" y="108" type="curve" smooth="yes"/>
      <point x="376" y="108"/>
      <point x="410" y="138"/>
      <point x="410" y="190" type="curve" smooth="yes"/>
      <point x="410" y="258"/>
      <point x="340" y="282"/>
      <point x="260" y="313" type="curve" smooth="yes"/>
      <point x="190" y="339"/>
      <point x="74" y="393"/>
      <point x="74" y="524" type="curve" smooth="yes"/>
      <point x="74" y="638"/>
      <point x="172" y="714"/>
      <point x="308" y="714" type="curve" smooth="yes"/>
      <point x="447" y="714"/>
      <point x="524" y="633"/>
      <point x="552" y="562" type="curve"/>
      <point x="442" y="496" type="line"/>
      <point x="412" y="550"/>
      <point x="375" y="590"/>
      <point x="314" y="590" type="curve" smooth="yes"/>
      <point x="258" y="590"/>
      <point x="223" y="562"/>
      <point x="223" y="518" type="curve" smooth="yes"/>
      <point x="223" y="464"/>
      <point x="300" y="438"/>
      <point x="384" y="408" type="curve" smooth="yes"/>
      <point x="474" y="376"/>
      <point x="562" y="317"/>
      <point x="562" y="194" type="curve" smooth="yes"/>
      <point x="562" y="58"/>
      <point x="466" y="-18"/>
      <point x="310" y="-18" type="curve" smooth="yes"/>
      <point x="186" y="-18"/>
      <point x="80" y="57"/>
      <point x="36" y="172" type="curve"/>
    </contour>
    <contour>
      <point x="488" y="924" type="line"/>
      <point x="308" y="774" type="line"/>
      <point x="235" y="814" type="line"/>
      <point x="385" y="974" type="line"/>
    </contour>
  </outline>
</glyph>
<glyph name="Scedilla" format="2">
  <advance width="601"/>
  <unicode hex="015E"/>
  <outline>
    <contour>
      <point x="140" y="244" type="line"/>
      <point x="186" y="156"/>
      <point x="236" y="108"/>
      <point x="314" y="108" type="curve" smooth="yes"/>
      <point x="376" y="108"/>
      <point x="410" y="138"/>
      <point x="410" y="190" type="curve" smooth="yes"/>
      <point x="410" y="258"/>
      <point x="340" y="282"/>
      <point x="260" y="313" type="curve" smooth="yes"/>
      <point x="190" y="339"/>
      <point x="74" y="386"/>
      <point x="74" y="522" type="curve" smooth="yes"/>
      <point x="74" y="636"/>
      <point x="166" y="714"/>
      <point x="308" y="714" type="curve" smooth="yes"/>
      <point x="447" y="714"/>
      <point x="519" y="639"/>
      <point x="552" y="562" type="curve"/>
      <point x="442" y="496" type="line"/>
      <point x="412" y="550"/>
      <point x="369" y="590"/>
      <point x="308" y="590" type="curve" smooth="yes"/>
      <point x="252" y="590"/>
      <point x="223" y="562"/>
      <point x="223" y="518" type="curve" smooth="yes"/>
      <point x="223" y="464"/>
      <point x="300" y="438"/>
      <point x="384" y="408" type="curve" smooth="yes"/>
      <point x="474" y="376"/>
      <point x="562" y="317"/>
      <point x="562" y="194" type="curve" smooth="yes"/>
      <point x="562" y="58"/>
      <point x="460" y="-18"/>
      <point x="310" y="-18" type="curve" smooth="yes"/>
      <point x="186" y="-18"/>
      <point x="80" y="57"/>
      <point x="36" y="172" type="curve"/>
    </contour>
    <contour>
      <point x="294" y="60" type="line"/>
      <point x="388" y="58" type="line"/>
      <point x="310" y="-62" type="line"/>
      <point x="318" y="-60"/>
      <point x="328" y="-58"/>
      <point x="338" y="-58" type="curve" smooth="yes"/>
      <point x="376" y="-58"/>
      <point x="424" y="-89"/>
      <point x="424" y="-150" type="curve" smooth="yes"/>
      <point x="424" y="-218"/>
      <point x="360" y="-254"/>
      <point x="300" y="-254" type="curve" smooth="yes"/>
      <point x="250" y="-254"/>
      <point x="214" y="-245"/>
      <point x="172" y="-215" type="curve"/>
      <point x="214" y="-155" type="line"/>
      <point x="237" y="-173"/>
      <point x="264" y="-180"/>
      <point x="286" y="-180" type="curve" smooth="yes"/>
      <point x="320" y="-180"/>
      <point x="339" y="-167"/>
      <point x="339" y="-143" type="curve" smooth="yes"/>
      <point x="339" y="-117"/>
      <point x="314" y="-110"/>
      <point x="282" y="-110" type="curve" smooth="yes"/>
      <point x="272" y="-110"/>
      <point x="237" y="-112"/>
      <point x="206" y="-126" type="curve"/>
    </contour>
  </outline>
</glyph>
<glyph name="scedilla" format="2">
  <advance width="440"/>
  <unicode hex="015F"/>
  <outline>
    <contour>
      <point x="84" y="172" type="line"/>
      <point x="147" y="109"/>
      <point x="198" y="86"/>
      <point x="230" y="86" type="curve" smooth="yes"/>
      <point x="261" y="86"/>
      <point x="284" y="99"/>
      <point x="284" y="127" type="curve" smooth="yes"/>
      <point x="284" y="167"/>
      <point x="236" y="182"/>
      <point x="184" y="201" type="curve" smooth="yes"/>
      <point x="119" y="225"/>
      <point x="54" y="253"/>
      <point x="54" y="342" type="curve" smooth="yes"/>
      <point x="54" y="428"/>
      <point x="126" y="470"/>
      <point x="218" y="470" type="curve" smooth="yes"/>
      <point x="295" y="470"/>
      <point x="360" y="438"/>
      <point x="406" y="396" type="curve"/>
      <point x="349" y="315" type="line"/>
      <point x="317" y="349"/>
      <point x="267" y="376"/>
      <point x="230" y="376" type="curve" smooth="yes"/>
      <point x="196" y="376"/>
      <point x="174" y="364"/>
      <point x="174" y="340" type="curve" smooth="yes"/>
      <point x="174" y="302"/>
      <point x="232" y="292"/>
      <point x="288" y="270" type="curve" smooth="yes"/>
      <point x="353" y="244"/>
      <point x="414" y="211"/>
      <point x="414" y="130" type="curve" smooth="yes"/>
      <point x="414" y="27"/>
      <point x="348" y="-16"/>
      <point x="246" y="-16" type="curve" smooth="yes"/>
      <point x="152" y="-16"/>
      <point x="77" y="28"/>
      <point x="21" y="90" type="curve"/>
    </contour>
    <contour>
      <point x="224" y="63" type="line"/>
      <point x="320" y="60" type="line"/>
      <point x="241" y="-58" type="line"/>
      <point x="249" y="-56"/>
      <point x="258" y="-56"/>
      <point x="268" y="-56" type="curve" smooth="yes"/>
      <point x="306" y="-56"/>
      <point x="355" y="-85"/>
      <point x="355" y="-146" type="curve" smooth="yes"/>
      <point x="355" y="-214"/>
      <point x="290" y="-251"/>
      <point x="230" y="-251" type="curve" smooth="yes"/>
      <point x="180" y="-251"/>
      <point x="146" y="-242"/>
      <point x="104" y="-212" type="curve"/>
      <point x="145" y="-152" type="line"/>
      <point x="168" y="-170"/>
      <point x="194" y="-177"/>
      <point x="216" y="-177" type="curve" smooth="yes"/>
      <point x="250" y="-177"/>
      <point x="270" y="-164"/>
      <point x="270" y="-140" type="curve" smooth="yes"/>
      <point x="270" y="-114"/>
      <point x="244" y="-107"/>
      <point x="212" y="-107" type="curve" smooth="yes"/>
      <point x="202" y="-107"/>
      <point x="169" y="-110"/>
      <point x="138" y="-124" type="curve"/>
    </contour>
  </outline>
</glyph>
<glyph name="Tcaron" format="2">
  <advance width="532"/>
  <unicode hex="0164"/>
  <outline>
    <contour>
      <point x="6" y="570" type="line"/>
      <point x="6" y="700" type="line"/>
      <point x="527" y="700" type="line"/>
      <point x="527" y="570" type="line"/>
      <point x="338" y="570" type="line"/>
      <point x="338" y="0" type="line"/>
      <point x="194" y="0" type="line"/>
      <point x="194" y="570" type="line"/>
    </contour>
    <contour>
      <point x="266" y="888" type="line"/>
      <point x="363" y="976" type="line"/>
      <point x="452" y="914" type="line"/>
      <point x="266" y="774" type="line"/>
      <point x="80" y="914" type="line"/>
      <point x="170" y="976" type="line"/>
    </contour>
  </outline>
</glyph>
<glyph name="tcaron" format="2">
  <advance width="443"/>
  <unicode hex="0165"/>
  <outline>
    <contour>
      <point x="5" y="460" type="line"/>
      <point x="290" y="460" type="line"/>
      <point x="290" y="350" type="line"/>
      <point x="5" y="350" type="line"/>
    </contour>
    <contour>
      <point x="84" y="620" type="line"/>
      <point x="210" y="620" type="line"/>
      <point x="210" y="0" type="line"/>
      <point x="84" y="0" type="line"/>
    </contour>
    <contour>
      <point x="355" y="793" type="line"/>
      <point x="485" y="762" type="line"/>
      <point x="364" y="512" type="line"/>
      <point x="267" y="534" type="line"/>
    </contour>
  </outline>
</glyph>
<glyph name="Utilde" format="2">
  <advance width="678"/>
  <unicode hex="0168"/>
  <outline>
    <contour>
      <point x="71" y="700" type="line"/>
      <point x="214" y="700" type="line"/>
      <point x="214" y="238" type="line" smooth="yes"/>
      <point x="214" y="160"/>
      <point x="257" y="107"/>
      <point x="339" y="107" type="curve" smooth="yes"/>
      <point x="421" y="107"/>
      <point x="464" y="160"/>
      <point x="464" y="238" type="curve" smooth="yes"/>
      <point x="464" y="700" type="line"/>
      <point x="608" y="700" type="line"/>
      <point x="608" y="230" type="line" smooth="yes"/>
      <point x="608" y="65"/>
      <point x="493" y="-24"/>
      <point x="339" y="-24" type="curve" smooth="yes"/>
      <point x="185" y="-24"/>
      <point x="71" y="65"/>
      <point x="71" y="230" type="curve" smooth="yes"/>
    </contour>
    <contour>
      <point x="152" y="832" type="line"/>
      <point x="162" y="881"/>
      <point x="210" y="922"/>
      <point x="268" y="922" type="curve" smooth="yes"/>
      <point x="334" y="922"/>
      <point x="344" y="872"/>
      <point x="400" y="872" type="curve" smooth="yes"/>
      <point x="423" y="872"/>
      <point x="443" y="892"/>
      <point x="463" y="924" type="curve"/>
      <point x="526" y="858" type="line"/>
      <point x="510" y="821"/>
      <point x="458" y="777"/>
      <point x="400" y="777" type="curve" smooth="yes"/>
      <point x="345" y="777"/>
      <point x="314" y="828"/>
      <point x="266" y="828" type="curve" smooth="yes"/>
      <point x="227" y="828"/>
      <point x="218" y="792"/>
      <point x="218" y="777" type="curve"/>
    </contour>
  </outline>
</glyph>
<glyph name="utilde" format="2">
  <advance width="560"/>
  <unicode hex="0169"/>
  <outline>
    <contour>
      <point x="366" y="0" type="line"/>
      <point x="366" y="460" type="line"/>
      <point x="496" y="460" type="line"/>
      <point x="496" y="0" type="line"/>
    </contour>
    <contour>
      <point x="199" y="180" type="line" smooth="yes"/>
      <point x="199" y="120"/>
      <point x="220" y="86"/>
      <point x="274" y="86" type="curve" smooth="yes"/>
      <point x="328" y="86"/>
      <point x="366" y="122"/>
      <point x="366" y="180" type="curve"/>
      <point x="392" y="184" type="line"/>
      <point x="392" y="75"/>
      <point x="334" y="-10"/>
      <point x="226" y="-10" type="curve" smooth="yes"/>
      <point x="118" y="-10"/>
      <point x="64" y="51"/>
      <point x="64" y="166" type="curve" smooth="yes"/>
      <point x="64" y="460" type="line"/>
      <point x="199" y="460" type="line"/>
    </contour>
    <contour>
      <point x="93" y="588" type="line"/>
      <point x="103" y="637"/>
      <point x="150" y="678"/>
      <point x="208" y="678" type="curve" smooth="yes"/>
      <point x="274" y="678"/>
      <point x="284" y="628"/>
      <point x="340" y="628" type="curve" smooth="yes"/>
      <point x="363" y="628"/>
      <point x="384" y="648"/>
      <point x="404" y="680" type="curve"/>
      <point x="467" y="614" type="line"/>
      <point x="451" y="577"/>
      <point x="400" y="532"/>
      <point x="342" y="532" type="curve" smooth="yes"/>
      <point x="287" y="532"/>
      <point x="255" y="584"/>
      <point x="207" y="584" type="curve" smooth="yes"/>
      <point x="168" y="584"/>
      <point x="160" y="548"/>
      <point x="160" y="533" type="curve"/>
    </contour>
  </outline>
</glyph>
<glyph name="Ubreve" format="2">
  <advance width="678"/>
  <unicode hex="016C"/>
  <outline>
    <contour>
      <point x="71" y="700" type="line"/>
      <point x="214" y="700" type="line"/>
      <point x="214" y="238" type="line" smooth="yes"/>
      <point x="214" y="160"/>
      <point x="257" y="107"/>
      <point x="339" y="107" type="curve" smooth="yes"/>
      <point x="421" y="107"/>
      <point x="464" y="160"/>
      <point x="464" y="238" type="curve" smooth="yes"/>
      <point x="464" y="700" type="line"/>
      <point x="608" y="700" type="line"/>
      <point x="608" y="230" type="line" smooth="yes"/>
      <point x="608" y="65"/>
      <point x="493" y="-24"/>
      <point x="339" y="-24" type="curve" smooth="yes"/>
      <point x="185" y="-24"/>
      <point x="71" y="65"/>
      <point x="71" y="230" type="curve" smooth="yes"/>
    </contour>
    <contour>
      <point x="176" y="918" type="curve"/>
      <point x="268" y="918" type="line"/>
      <point x="268" y="886"/>
      <point x="291" y="854"/>
      <point x="339" y="854" type="curve" smooth="yes"/>
      <point x="387" y="854"/>
      <point x="411" y="886"/>
      <point x="411" y="918" type="curve"/>
      <point x="502" y="918" type="line"/>
      <point x="502" y="840"/>
      <point x="444" y="774"/>
      <point x="339" y="774" type="curve" smooth="yes"/>
      <point x="234" y="774"/>
      <point x="176" y="840"/>
    </contour>
  </outline>
</glyph>
<glyph name="ubreve" format="2">
  <advance width="560"/>
  <unicode hex="016D"/>
  <outline>
    <contour>
      <point x="366" y="0" type="line"/>
      <point x="366" y="460" type="line"/>
      <point x="496" y="460" type="line"/>
      <point x="496" y="0" type="line"/>
    </contour>
    <contour>
      <point x="199" y="180" type="line" smooth="yes"/>
      <point x="199" y="120"/>
      <point x="220" y="86"/>
      <point x="274" y="86" type="curve" smooth="yes"/>
      <point x="328" y="86"/>
      <point x="366" y="122"/>
      <point x="366" y="180" type="curve"/>
      <point x="392" y="184" type="line"/>
      <point x="392" y="75"/>
      <point x="334" y="-10"/>
      <point x="226" y="-10" type="curve" smooth="yes"/>
      <point x="118" y="-10"/>
      <point x="64" y="51"/>
      <point x="64" y="166" type="curve" smooth="yes"/>
      <point x="64" y="460" type="line"/>
      <point x="199" y="460" type="line"/>
    </contour>
    <contour>
      <point x="118" y="675" type="curve"/>
      <point x="208" y="675" type="line"/>
      <point x="208" y="643"/>
      <point x="232" y="611"/>
      <point x="280" y="611" type="curve" smooth="yes"/>
      <point x="328" y="611"/>
      <point x="352" y="643"/>
      <point x="352" y="675" type="curve"/>
      <point x="442" y="675" type="line"/>
      <point x="442" y="597"/>
      <point x="385" y="530"/>
      <point x="280" y="530" type="curve" smooth="yes"/>
      <point x="175" y="530"/>
      <point x="118" y="597"/>
    </contour>
  </outline>
</glyph>
<glyph name="Uring" format="2">
  <advance width="678"/>
  <unicode hex="016E"/>
  <outline>
    <contour>
      <point x="71" y="700" type="line"/>
      <point x="214" y="700" type="line"/>
      <point x="214" y="238" type="line" smooth="yes"/>
      <point x="214" y="160"/>
      <point x="257" y="107"/>
      <point x="339" y="107" type="curve" smooth="yes"/>
      <point x="421" y="107"/>
      <point x="464" y="160"/>
      <point x="464" y="238" type="curve" smooth="yes"/>
      <point x="464" y="700" type="line"/>
      <point x="608" y="700" type="line"/>
      <point x="608" y="230" type="line" smooth="yes"/>
      <point x="608" y="65"/>
      <point x="493" y="-24"/>
      <point x="339" y="-24" type="curve" smooth="yes"/>
      <point x="185" y="-24"/>
      <point x="71" y="65"/>
      <point x="71" y="230" type="curve" smooth="yes"/>
    </contour>
    <contour>
      <point x="221" y="886" type="curve" smooth="yes"/>
      <point x="221" y="952"/>
      <point x="275" y="996"/>
      <point x="339" y="996" type="curve" smooth="yes"/>
      <point x="403" y="996"/>
      <point x="458" y="952"/>
      <point x="458" y="886" type="curve" smooth="yes"/>
      <point x="458" y="820"/>
      <point x="403" y="774"/>
      <point x="339" y="774" type="curve" smooth="yes"/>
      <point x="275" y="774"/>
      <point x="221" y="820"/>
    </contour>
    <contour>
      <point x="292" y="886" type="curve" smooth="yes"/>
      <point x="292" y="855"/>
      <point x="314" y="836"/>
      <point x="339" y="836" type="curve" smooth="yes"/>
      <point x="364" y="836"/>
      <point x="386" y="855"/>
      <point x="386" y="886" type="curve" smooth="yes"/>
      <point x="386" y="917"/>
      <point x="364" y="935"/>
      <point x="339" y="935" type="curve" smooth="yes"/>
      <point x="314" y="935"/>
      <point x="292" y="917"/>
    </contour>
  </outline>
</glyph>
<glyph name="uring" format="2">
  <advance width="560"/>
  <unicode hex="016F"/>
  <outline>
    <contour>
      <point x="366" y="0" type="line"/>
      <point x="366" y="460" type="line"/>
      <point x="496" y="460" type="line"/>
      <point x="496" y="0" type="line"/>
    </contour>
    <contour>
      <point x="199" y="180" type="line" smooth="yes"/>
      <point x="199" y="120"/>
      <point x="220" y="86"/>
      <point x="274" y="86" type="curve" smooth="yes"/>
      <point x="328" y="86"/>
      <point x="366" y="122"/>
      <point x="366" y="180" type="curve"/>
      <point x="392" y="184" type="line"/>
      <point x="392" y="75"/>
      <point x="334" y="-10"/>
      <point x="226" y="-10" type="curve" smooth="yes"/>
      <point x="118" y="-10"/>
      <point x="64" y="51"/>
      <point x="64" y="166" type="curve" smooth="yes"/>
      <point x="64" y="460" type="line"/>
      <point x="199" y="460" type="line"/>
    </contour>
    <contour>
      <point x="162" y="641" type="curve" smooth="yes"/>
      <point x="162" y="707"/>
      <point x="216" y="752"/>
      <point x="280" y="752" type="curve" smooth="yes"/>
      <point x="344" y="752"/>
      <point x="398" y="707"/>
      <point x="398" y="641" type="curve" smooth="yes"/>
      <point x="398" y="575"/>
      <point x="344" y="530"/>
      <point x="280" y="530" type="curve" smooth="yes"/>
      <point x="216" y="530"/>
      <point x="162" y="575"/>
    </contour>
    <contour>
      <point x="232" y="641" type="curve" smooth="yes"/>
      <point x="232" y="610"/>
      <point x="255" y="592"/>
      <point x="280" y="592" type="curve" smooth="yes"/>
      <point x="305" y="592"/>
      <point x="328" y="610"/>
      <point x="328" y="641" type="curve" smooth="yes"/>
      <point x="328" y="672"/>
      <point x="305" y="690"/>
      <point x="280" y="690" type="curve" smooth="yes"/>
      <point x="255" y="690"/>
      <point x="232" y="672"/>
    </contour>
  </outline>
</glyph>
<glyph name="wcircumflex" format="2">
  <advance width="736"/>
  <unicode hex="0175"/>
  <outline>
    <contour>
      <point x="-4" y="460" type="line"/>
      <point x="134" y="460" type="line"/>
      <point x="236" y="206" type="line"/>
      <point x="366" y="495" type="line"/>
      <point x="500" y="204" type="line"/>
      <point x="602" y="460" type="line"/>
      <point x="741" y="460" type="line"/>
      <point x="514" y="-31" type="line"/>
      <point x="366" y="261" type="line"/>
      <point x="222" y="-31" type="line"/>
    </contour>
    <contour>
      <point x="366" y="644" type="line"/>
      <point x="269" y="555" type="line"/>
      <point x="179" y="616" type="line"/>
      <point x="366" y="756" type="line"/>
      <point x="552" y="616" type="line"/>
      <point x="462" y="555" type="line"/>
    </contour>
  </outline>
</glyph>
<glyph name="Ycircumflex" format="2">
  <advance width="630"/>
  <unicode hex="0176"/>
  <outline>
    <contour>
      <point x="465" y="700" type="line"/>
      <point x="630" y="700" type="line"/>
      <point x="389" y="290" type="line"/>
      <point x="389" y="0" type="line"/>
      <point x="242" y="0" type="line"/>
      <point x="242" y="289" type="line"/>
      <point x="1" y="700" type="line"/>
      <point x="166" y="700" type="line"/>
      <point x="315" y="418" type="line"/>
    </contour>
    <contour>
      <point x="315" y="863" type="line"/>
      <point x="218" y="774" type="line"/>
      <point x="130" y="836" type="line"/>
      <point x="315" y="976" type="line"/>
      <point x="502" y="836" type="line"/>
      <point x="412" y="774" type="line"/>
    </contour>
  </outline>
</glyph>
<glyph name="Ydieresis" format="2">
  <advance width="630"/>
  <unicode hex="0178"/>
  <outline>
    <contour>
      <point x="109" y="856" type="curve" smooth="yes"/>
      <point x="109" y="898"/>
      <point x="142" y="930"/>
      <point x="186" y="930" type="curve" smooth="yes"/>
      <point x="230" y="930"/>
      <point x="266" y="898"/>
      <point x="266" y="856" type="curve" smooth="yes"/>
      <point x="266" y="814"/>
      <point x="230" y="782"/>
      <point x="186" y="782" type="curve" smooth="yes"/>
      <point x="142" y="782"/>
      <point x="109" y="814"/>
    </contour>
    <contour>
      <point x="366" y="856" type="curve" smooth="yes"/>
      <point x="366" y="898"/>
      <point x="400" y="930"/>
      <point x="444" y="930" type="curve" smooth="yes"/>
      <point x="488" y="930"/>
      <point x="522" y="898"/>
      <point x="522" y="856" type="curve" smooth="yes"/>
      <point x="522" y="814"/>
      <point x="488" y="782"/>
      <point x="444" y="782" type="curve" smooth="yes"/>
      <point x="400" y="782"/>
      <point x="366" y="814"/>
    </contour>
    <contour>
      <point x="465" y="700" type="line"/>
      <point x="630" y="700" type="line"/>
      <point x="389" y="290" type="line"/>
      <point x="389" y="0" type="line"/>
      <point x="242" y="0" type="line"/>
      <point x="242" y="289" type="line"/>
      <point x="1" y="700" type="line"/>
      <point x="166" y="700" type="line"/>
      <point x="315" y="418" type="line"/>
    </contour>
  </outline>
</glyph>
<glyph name="Zacute" format="2">
  <advance width="597"/>
  <unicode hex="0179"/>
  <outline>
    <contour>
      <point x="50" y="570" type="line"/>
      <point x="50" y="700" type="line"/>
      <point x="582" y="700" type="line"/>
      <point x="240" y="126" type="line"/>
      <point x="551" y="126" type="line"/>
      <point x="551" y="0" type="line"/>
      <point x="11" y="0" type="line"/>
      <point x="350" y="570" type="line"/>
    </contour>
    <contour>
      <point x="485" y="924" type="line"/>
      <point x="305" y="774" type="line"/>
      <point x="231" y="814" type="line"/>
      <point x="381" y="974" type="line"/>
    </contour>
  </outline>
</glyph>
<glyph name="zacute" format="2">
  <advance width="503"/>
  <unicode hex="017A"/>
  <outline>
    <contour>
      <point x="269" y="341" type="line"/>
      <point x="54" y="341" type="line"/>
      <point x="54" y="460" type="line"/>
      <point x="489" y="460" type="line"/>
      <point x="242" y="119" type="line"/>
      <point x="460" y="119" type="line"/>
      <point x="460" y="0" type="line"/>
      <point x="15" y="0" type="line"/>
    </contour>
    <contour>
      <point x="440" y="692" type="line"/>
      <point x="260" y="542" type="line"/>
      <point x="186" y="580" type="line"/>
      <point x="336" y="740" type="line"/>
    </contour>
  </outline>
</glyph>
<glyph name="Zdotaccent" format="2">
  <advance width="597"/>
  <unicode hex="017B"/>
  <outline>
    <contour>
      <point x="50" y="570" type="line"/>
      <point x="50" y="700" type="line"/>
      <point x="582" y="700" type="line"/>
      <point x="240" y="126" type="line"/>
      <point x="551" y="126" type="line"/>
      <point x="551" y="0" type="line"/>
      <point x="11" y="0" type="line"/>
      <point x="350" y="570" type="line"/>
    </contour>
    <contour>
      <point x="238" y="848" type="curve" smooth="yes"/>
      <point x="238" y="890"/>
      <point x="272" y="922"/>
      <point x="316" y="922" type="curve" smooth="yes"/>
      <point x="360" y="922"/>
      <point x="394" y="890"/>
      <point x="394" y="848" type="curve" smooth="yes"/>
      <point x="394" y="806"/>
      <point x="360" y="774"/>
      <point x="316" y="774" type="curve" smooth="yes"/>
      <point x="272" y="774"/>
      <point x="238" y="806"/>
    </contour>
  </outline>
</glyph>
<glyph name="zdotaccent" format="2">
  <advance width="503"/>
  <unicode hex="017C"/>
  <outline>
    <contour>
      <point x="269" y="341" type="line"/>
      <point x="54" y="341" type="line"/>
      <point x="54" y="460" type="line"/>
      <point x="489" y="460" type="line"/>
      <point x="242" y="119" type="line"/>
      <point x="460" y="119" type="line"/>
      <point x="460" y="0" type="line"/>
      <point x="15" y="0" type="line"/>
    </contour>
    <contour>
      <point x="193" y="622" type="curve" smooth="yes"/>
      <point x="193" y="664"/>
      <point x="227" y="695"/>
      <point x="271" y="695" type="curve" smooth="yes"/>
      <point x="315" y="695"/>
      <point x="350" y="664"/>
      <point x="350" y="622" type="curve" smooth="yes"/>
      <point x="350" y="580"/>
      <point x="315" y="548"/>
      <point x="271" y="548" type="curve" smooth="yes"/>
      <point x="227" y="548"/>
      <point x="193" y="580"/>
    </contour>
  </outline>
</glyph>
<glyph name="zcaron" format="2">
  <advance width="499"/>
  <unicode hex="017E"/>
  <outline>
    <contour>
      <point x="271" y="644" type="line"/>
      <point x="368" y="732" type="line"/>
      <point x="458" y="670" type="line"/>
      <point x="271" y="530" type="line"/>
      <point x="85" y="670" type="line"/>
      <point x="174" y="732" type="line"/>
    </contour>
    <contour>
      <point x="270" y="341" type="line"/>
      <point x="54" y="341" type="line"/>
      <point x="54" y="460" type="line"/>
      <point x="489" y="460" type="line"/>
      <point x="242" y="119" type="line"/>
      <point x="460" y="119" type="line"/>
      <point x="460" y="0" type="line"/>
      <point x="15" y="0" type="line"/>
    </contour>
  </outline>
</glyph>
<glyph name="florin" format="2">
  <advance width="600"/>
  <unicode hex="0192"/>
  <outline>
    <contour>
      <point x="196" y="-200" type="curve" smooth="yes"/>
      <point x="157" y="-200"/>
      <point x="125" y="-186"/>
      <point x="80" y="-150" type="curve"/>
      <point x="134" y="-57" type="line"/>
      <point x="154" y="-77"/>
      <point x="166" y="-83"/>
      <point x="178" y="-83" type="curve" smooth="yes"/>
      <point x="206" y="-83"/>
      <point x="224" y="-55"/>
      <point x="228" y="-7" type="curve" smooth="yes"/>
      <point x="248" y="350" type="line"/>
      <point x="182" y="350" type="line"/>
      <point x="190" y="460" type="line"/>
      <point x="254" y="460" type="line"/>
      <point x="262" y="628" type="line"/>
      <point x="268" y="730"/>
      <point x="332" y="795"/>
      <point x="420" y="793" type="curve" smooth="yes"/>
      <point x="459" y="793"/>
      <point x="491" y="780"/>
      <point x="536" y="744" type="curve"/>
      <point x="482" y="650" type="line"/>
      <point x="462" y="670"/>
      <point x="450" y="676"/>
      <point x="438" y="676" type="curve" smooth="yes"/>
      <point x="410" y="676"/>
      <point x="393" y="648"/>
      <point x="389" y="600" type="curve" smooth="yes"/>
      <point x="380" y="460" type="line"/>
      <point x="467" y="460" type="line"/>
      <point x="460" y="350" type="line"/>
      <point x="374" y="350" type="line"/>
      <point x="353" y="-35" type="line" smooth="yes"/>
      <point x="347" y="-137"/>
      <point x="284" y="-202"/>
    </contour>
  </outline>
</glyph>
